%TF.GenerationSoftware,KiCad,Pcbnew,9.0.6*%
%TF.CreationDate,2025-11-27T10:25:12-05:00*%
%TF.ProjectId,Proyecto 2,50726f79-6563-4746-9f20-322e6b696361,rev?*%
%TF.SameCoordinates,Original*%
%TF.FileFunction,Copper,L1,Top*%
%TF.FilePolarity,Positive*%
%FSLAX46Y46*%
G04 Gerber Fmt 4.6, Leading zero omitted, Abs format (unit mm)*
G04 Created by KiCad (PCBNEW 9.0.6) date 2025-11-27 10:25:12*
%MOMM*%
%LPD*%
G01*
G04 APERTURE LIST*
G04 Aperture macros list*
%AMRoundRect*
0 Rectangle with rounded corners*
0 $1 Rounding radius*
0 $2 $3 $4 $5 $6 $7 $8 $9 X,Y pos of 4 corners*
0 Add a 4 corners polygon primitive as box body*
4,1,4,$2,$3,$4,$5,$6,$7,$8,$9,$2,$3,0*
0 Add four circle primitives for the rounded corners*
1,1,$1+$1,$2,$3*
1,1,$1+$1,$4,$5*
1,1,$1+$1,$6,$7*
1,1,$1+$1,$8,$9*
0 Add four rect primitives between the rounded corners*
20,1,$1+$1,$2,$3,$4,$5,0*
20,1,$1+$1,$4,$5,$6,$7,0*
20,1,$1+$1,$6,$7,$8,$9,0*
20,1,$1+$1,$8,$9,$2,$3,0*%
G04 Aperture macros list end*
%TA.AperFunction,ComponentPad*%
%ADD10C,1.524000*%
%TD*%
%TA.AperFunction,ComponentPad*%
%ADD11C,2.340000*%
%TD*%
%TA.AperFunction,ComponentPad*%
%ADD12R,1.700000X1.700000*%
%TD*%
%TA.AperFunction,ComponentPad*%
%ADD13C,1.700000*%
%TD*%
%TA.AperFunction,ComponentPad*%
%ADD14R,3.500000X3.500000*%
%TD*%
%TA.AperFunction,ComponentPad*%
%ADD15RoundRect,0.750000X1.000000X-0.750000X1.000000X0.750000X-1.000000X0.750000X-1.000000X-0.750000X0*%
%TD*%
%TA.AperFunction,ComponentPad*%
%ADD16RoundRect,0.875000X0.875000X-0.875000X0.875000X0.875000X-0.875000X0.875000X-0.875000X-0.875000X0*%
%TD*%
%TA.AperFunction,ComponentPad*%
%ADD17O,1.900000X1.524000*%
%TD*%
G04 APERTURE END LIST*
D10*
%TO.P,U2,1,VIN*%
%TO.N,VDC*%
X179930000Y-130850000D03*
%TO.P,U2,2,GND*%
%TO.N,GND*%
X179930000Y-128310000D03*
%TO.P,U2,3,GND*%
X179930000Y-125770000D03*
%TO.P,U2,4,BAT*%
%TO.N,+BATT*%
X179930000Y-123230000D03*
%TO.P,U2,5,GND*%
%TO.N,GND*%
X179930000Y-120690000D03*
%TO.P,U2,6,OUT-5V*%
%TO.N,+5V*%
X179930000Y-118150000D03*
%TD*%
D11*
%TO.P,RV1,1,1*%
%TO.N,GND*%
X146995590Y-48423478D03*
%TO.P,RV1,2,2*%
%TO.N,/ph2*%
X141995590Y-48423478D03*
%TO.P,RV1,3,3*%
%TO.N,/PH*%
X136995590Y-48423478D03*
%TD*%
D12*
%TO.P,J2,1,Pin_1*%
%TO.N,/Conduc*%
X125000000Y-79400000D03*
D13*
%TO.P,J2,2,Pin_2*%
%TO.N,+5V*%
X122460000Y-79400000D03*
%TO.P,J2,3,Pin_3*%
%TO.N,GND*%
X119920000Y-79400000D03*
%TD*%
D12*
%TO.P,J1,1,Pin_1*%
%TO.N,+5V*%
X122500000Y-52000000D03*
D13*
%TO.P,J1,2,Pin_2*%
%TO.N,GND*%
X122500000Y-49460000D03*
%TO.P,J1,3,Pin_3*%
%TO.N,unconnected-(J1-Pin_3-Pad3)*%
X122500000Y-46920000D03*
%TO.P,J1,4,Pin_4*%
%TO.N,/PH*%
X122500000Y-44380000D03*
%TO.P,J1,5,Pin_5*%
%TO.N,unconnected-(J1-Pin_5-Pad5)*%
X122500000Y-41840000D03*
%TO.P,J1,6,Pin_6*%
%TO.N,unconnected-(J1-Pin_6-Pad6)*%
X122500000Y-39300000D03*
%TD*%
D14*
%TO.P,J4,1*%
%TO.N,VDC*%
X139500000Y-119000000D03*
D15*
%TO.P,J4,2*%
%TO.N,GND*%
X139500000Y-125000000D03*
D16*
%TO.P,J4,3*%
X144200000Y-122000000D03*
%TD*%
D12*
%TO.P,J3,1,Pin_1*%
%TO.N,/Turbi*%
X124995420Y-104999084D03*
D13*
%TO.P,J3,2,Pin_2*%
%TO.N,+5V*%
X122455420Y-104999084D03*
%TO.P,J3,3,Pin_3*%
%TO.N,GND*%
X119915420Y-104999084D03*
%TD*%
D17*
%TO.P,U3,1,VIN*%
%TO.N,+5V*%
X155484055Y-78481904D03*
%TO.P,U3,2,GND*%
%TO.N,GND*%
X155484055Y-75941904D03*
%TO.P,U3,3,GPIO13*%
%TO.N,unconnected-(U3-GPIO13-Pad3)*%
X155484055Y-73401904D03*
%TO.P,U3,4,GPIO12*%
%TO.N,unconnected-(U3-GPIO12-Pad4)*%
X155484055Y-70861904D03*
%TO.P,U3,5,GPIO14*%
%TO.N,unconnected-(U3-GPIO14-Pad5)*%
X155484055Y-68321904D03*
%TO.P,U3,6,GPIO27*%
%TO.N,unconnected-(U3-GPIO27-Pad6)*%
X155484055Y-65781904D03*
%TO.P,U3,7,GPIO26*%
%TO.N,unconnected-(U3-GPIO26-Pad7)*%
X155484055Y-63241904D03*
%TO.P,U3,8,GPIO25*%
%TO.N,unconnected-(U3-GPIO25-Pad8)*%
X155484055Y-60701904D03*
%TO.P,U3,9,GPIO33*%
%TO.N,/Turbi*%
X155484055Y-58161904D03*
%TO.P,U3,10,GPIO32*%
%TO.N,/Conduc*%
X155484055Y-55621904D03*
%TO.P,U3,11,GPIO35*%
%TO.N,unconnected-(U3-GPIO35-Pad11)*%
X155484055Y-53081904D03*
%TO.P,U3,12,GPIO34*%
%TO.N,/ph2*%
X155484055Y-50541904D03*
%TO.P,U3,13,GPIO39*%
%TO.N,unconnected-(U3-GPIO39-Pad13)*%
X155484055Y-48001904D03*
%TO.P,U3,14,GPIO36*%
%TO.N,unconnected-(U3-GPIO36-Pad14)*%
X155484055Y-45461904D03*
%TO.P,U3,15,EN*%
%TO.N,unconnected-(U3-EN-Pad15)*%
X155484055Y-42921904D03*
%TO.P,U3,16,3.3v*%
%TO.N,unconnected-(U3-3.3v-Pad16)*%
X180884055Y-78481904D03*
%TO.P,U3,17,GND*%
%TO.N,unconnected-(U3-GND-Pad17)*%
X180884055Y-75941904D03*
%TO.P,U3,18,GPIO15*%
%TO.N,unconnected-(U3-GPIO15-Pad18)*%
X180884055Y-73401904D03*
%TO.P,U3,19,GPIO2*%
%TO.N,unconnected-(U3-GPIO2-Pad19)*%
X180884055Y-70861904D03*
%TO.P,U3,20,GPIO4*%
%TO.N,unconnected-(U3-GPIO4-Pad20)*%
X180884055Y-68321904D03*
%TO.P,U3,21,GPIO16*%
%TO.N,unconnected-(U3-GPIO16-Pad21)*%
X180884055Y-65781904D03*
%TO.P,U3,22,GPIO17*%
%TO.N,unconnected-(U3-GPIO17-Pad22)*%
X180884055Y-63241904D03*
%TO.P,U3,23,GPIO5*%
%TO.N,unconnected-(U3-GPIO5-Pad23)*%
X180884055Y-60701904D03*
%TO.P,U3,24,GPIO18*%
%TO.N,unconnected-(U3-GPIO18-Pad24)*%
X180884055Y-58161904D03*
%TO.P,U3,25,GPIO19*%
%TO.N,unconnected-(U3-GPIO19-Pad25)*%
X180884055Y-55621904D03*
%TO.P,U3,26,GPIO21*%
%TO.N,unconnected-(U3-GPIO21-Pad26)*%
X180884055Y-53081904D03*
%TO.P,U3,27,GPIO3*%
%TO.N,unconnected-(U3-GPIO3-Pad27)*%
X180884055Y-50541904D03*
%TO.P,U3,28,GPIO1*%
%TO.N,unconnected-(U3-GPIO1-Pad28)*%
X180884055Y-48001904D03*
%TO.P,U3,29,GPIO22*%
%TO.N,unconnected-(U3-GPIO22-Pad29)*%
X180884055Y-45461904D03*
%TO.P,U3,30,GPIO23*%
%TO.N,unconnected-(U3-GPIO23-Pad30)*%
X180884055Y-42921904D03*
%TD*%
M02*
