%TF.GenerationSoftware,KiCad,Pcbnew,9.0.6*%
%TF.CreationDate,2025-11-27T10:25:12-05:00*%
%TF.ProjectId,Proyecto 2,50726f79-6563-4746-9f20-322e6b696361,rev?*%
%TF.SameCoordinates,Original*%
%TF.FileFunction,Soldermask,Top*%
%TF.FilePolarity,Negative*%
%FSLAX46Y46*%
G04 Gerber Fmt 4.6, Leading zero omitted, Abs format (unit mm)*
G04 Created by KiCad (PCBNEW 9.0.6) date 2025-11-27 10:25:12*
%MOMM*%
%LPD*%
G01*
G04 APERTURE LIST*
G04 Aperture macros list*
%AMRoundRect*
0 Rectangle with rounded corners*
0 $1 Rounding radius*
0 $2 $3 $4 $5 $6 $7 $8 $9 X,Y pos of 4 corners*
0 Add a 4 corners polygon primitive as box body*
4,1,4,$2,$3,$4,$5,$6,$7,$8,$9,$2,$3,0*
0 Add four circle primitives for the rounded corners*
1,1,$1+$1,$2,$3*
1,1,$1+$1,$4,$5*
1,1,$1+$1,$6,$7*
1,1,$1+$1,$8,$9*
0 Add four rect primitives between the rounded corners*
20,1,$1+$1,$2,$3,$4,$5,0*
20,1,$1+$1,$4,$5,$6,$7,0*
20,1,$1+$1,$6,$7,$8,$9,0*
20,1,$1+$1,$8,$9,$2,$3,0*%
G04 Aperture macros list end*
%ADD10C,3.200000*%
%ADD11C,1.524000*%
%ADD12C,2.340000*%
%ADD13R,1.700000X1.700000*%
%ADD14C,1.700000*%
%ADD15R,3.500000X3.500000*%
%ADD16RoundRect,0.750000X1.000000X-0.750000X1.000000X0.750000X-1.000000X0.750000X-1.000000X-0.750000X0*%
%ADD17RoundRect,0.875000X0.875000X-0.875000X0.875000X0.875000X-0.875000X0.875000X-0.875000X-0.875000X0*%
%ADD18O,1.900000X1.524000*%
%ADD19C,2.390000*%
%ADD20C,3.450000*%
G04 APERTURE END LIST*
D10*
%TO.C,H1*%
X206100000Y-39000000D03*
%TD*%
%TO.C,H4*%
X115100000Y-129700000D03*
%TD*%
%TO.C,H2*%
X206200000Y-130200000D03*
%TD*%
%TO.C,H3*%
X114600000Y-38600000D03*
%TD*%
D11*
%TO.C,U2*%
X179930000Y-130850000D03*
X179930000Y-128310000D03*
X179930000Y-125770000D03*
X179930000Y-123230000D03*
X179930000Y-120690000D03*
X179930000Y-118150000D03*
%TD*%
D12*
%TO.C,RV1*%
X146995590Y-48423478D03*
X141995590Y-48423478D03*
X136995590Y-48423478D03*
%TD*%
D13*
%TO.C,J2*%
X125000000Y-79400000D03*
D14*
X122460000Y-79400000D03*
X119920000Y-79400000D03*
%TD*%
D13*
%TO.C,J1*%
X122500000Y-52000000D03*
D14*
X122500000Y-49460000D03*
X122500000Y-46920000D03*
X122500000Y-44380000D03*
X122500000Y-41840000D03*
X122500000Y-39300000D03*
%TD*%
D15*
%TO.C,J4*%
X139500000Y-119000000D03*
D16*
X139500000Y-125000000D03*
D17*
X144200000Y-122000000D03*
%TD*%
D13*
%TO.C,J3*%
X124995420Y-104999084D03*
D14*
X122455420Y-104999084D03*
X119915420Y-104999084D03*
%TD*%
D18*
%TO.C,U3*%
X155484055Y-78481904D03*
X155484055Y-75941904D03*
X155484055Y-73401904D03*
X155484055Y-70861904D03*
X155484055Y-68321904D03*
X155484055Y-65781904D03*
X155484055Y-63241904D03*
X155484055Y-60701904D03*
X155484055Y-58161904D03*
X155484055Y-55621904D03*
X155484055Y-53081904D03*
X155484055Y-50541904D03*
X155484055Y-48001904D03*
X155484055Y-45461904D03*
X155484055Y-42921904D03*
X180884055Y-78481904D03*
X180884055Y-75941904D03*
X180884055Y-73401904D03*
X180884055Y-70861904D03*
X180884055Y-68321904D03*
X180884055Y-65781904D03*
X180884055Y-63241904D03*
X180884055Y-60701904D03*
X180884055Y-58161904D03*
X180884055Y-55621904D03*
X180884055Y-53081904D03*
X180884055Y-50541904D03*
X180884055Y-48001904D03*
X180884055Y-45461904D03*
X180884055Y-42921904D03*
%TD*%
D19*
%TO.C,BT1*%
X188954923Y-46968232D03*
D20*
X204954923Y-55478232D03*
X188954923Y-110718232D03*
%TD*%
M02*
