  0
SECTION
  2
HEADER
  9
$ACADVER
  1
AC1015
  9
$ACADMAINTVER
 70
     6
  9
$DWGCODEPAGE
  3
ANSI_1252
  9
$INSBASE
 10
0.0
 20
0.0
 30
0.0
  9
$EXTMIN
 10
-80.9789833748
 20
-14.5069059297
 30
0.0
  9
$EXTMAX
 10
-11.7689727454
 20
17.7481323735
 30
0.0
  9
$LIMMIN
 10
0.0
 20
0.0
  9
$LIMMAX
 10
420.0
 20
297.0
  9
$ORTHOMODE
 70
     0
  9
$REGENMODE
 70
     1
  9
$FILLMODE
 70
     1
  9
$QTEXTMODE
 70
     0
  9
$MIRRTEXT
 70
     1
  9
$LTSCALE
 40
1.0
  9
$ATTMODE
 70
     1
  9
$TEXTSIZE
 40
3.5
  9
$TRACEWID
 40
1.0
  9
$TEXTSTYLE
  7
Standard
  9
$CLAYER
  8
0
  9
$CELTYPE
  6
ByLayer
  9
$CECOLOR
 62
   256
  9
$CELTSCALE
 40
1.0
  9
$DISPSILH
 70
     0
  9
$DIMSCALE
 40
1.0
  9
$DIMASZ
 40
3.302
  9
$DIMEXO
 40
1.0
  9
$DIMDLI
 40
3.75
  9
$DIMRND
 40
0.0
  9
$DIMDLE
 40
0.0
  9
$DIMEXE
 40
1.0
  9
$DIMTP
 40
0.0
  9
$DIMTM
 40
0.0
  9
$DIMTXT
 40
3.5
  9
$DIMCEN
 40
2.5
  9
$DIMTSZ
 40
0.0
  9
$DIMTOL
 70
     0
  9
$DIMLIM
 70
     0
  9
$DIMTIH
 70
     1
  9
$DIMTOH
 70
     1
  9
$DIMSE1
 70
     0
  9
$DIMSE2
 70
     0
  9
$DIMTAD
 70
     1
  9
$DIMZIN
 70
     1
  9
$DIMBLK
  1

  9
$DIMASO
 70
     1
  9
$DIMSHO
 70
     1
  9
$DIMPOST
  1

  9
$DIMAPOST
  1

  9
$DIMALT
 70
     0
  9
$DIMALTD
 70
     3
  9
$DIMALTF
 40
0.0393700787
  9
$DIMLFAC
 40
1.0
  9
$DIMTOFL
 70
     1
  9
$DIMTVP
 40
0.0
  9
$DIMTIX
 70
     0
  9
$DIMSOXD
 70
     0
  9
$DIMSAH
 70
     0
  9
$DIMBLK1
  1

  9
$DIMBLK2
  1

  9
$DIMSTYLE
  2
ISO-25
  9
$DIMCLRD
 70
     0
  9
$DIMCLRE
 70
     0
  9
$DIMCLRT
 70
     0
  9
$DIMTFAC
 40
1.0
  9
$DIMGAP
 40
1.524
  9
$DIMJUST
 70
     0
  9
$DIMSD1
 70
     0
  9
$DIMSD2
 70
     0
  9
$DIMTOLJ
 70
     0
  9
$DIMTZIN
 70
     1
  9
$DIMALTZ
 70
     0
  9
$DIMALTTZ
 70
     0
  9
$DIMUPT
 70
     0
  9
$DIMDEC
 70
     2
  9
$DIMTDEC
 70
     2
  9
$DIMALTU
 70
     2
  9
$DIMALTTD
 70
     3
  9
$DIMTXSTY
  7
Standard
  9
$DIMAUNIT
 70
     0
  9
$DIMADEC
 70
     2
  9
$DIMALTRND
 40
0.0
  9
$DIMAZIN
 70
     0
  9
$DIMDSEP
 70
    44
  9
$DIMATFIT
 70
     3
  9
$DIMFRAC
 70
     0
  9
$DIMLDRBLK
  1

  9
$DIMLUNIT
 70
     2
  9
$DIMLWD
 70
    -2
  9
$DIMLWE
 70
    -2
  9
$DIMTMOVE
 70
     0
  9
$LUNITS
 70
     2
  9
$LUPREC
 70
     2
  9
$SKETCHINC
 40
1.0
  9
$FILLETRAD
 40
10.0
  9
$AUNITS
 70
     0
  9
$AUPREC
 70
     2
  9
$MENU
  1
.
  9
$ELEVATION
 40
0.0
  9
$PELEVATION
 40
0.0
  9
$THICKNESS
 40
0.0
  9
$LIMCHECK
 70
     0
  9
$CHAMFERA
 40
0.0
  9
$CHAMFERB
 40
0.0
  9
$CHAMFERC
 40
0.0
  9
$CHAMFERD
 40
0.0
  9
$SKPOLY
 70
     0
  9
$TDCREATE
 40
2459596.853698322
  9
$TDUCREATE
 40
2459597.062031655
  9
$TDUPDATE
 40
2459596.853815104
  9
$TDUUPDATE
 40
2459597.062148437
  9
$TDINDWG
 40
0.0000000116
  9
$TDUSRTIMER
 40
0.0000000116
  9
$USRTIMER
 70
     1
  9
$ANGBASE
 50
0.0
  9
$ANGDIR
 70
     0
  9
$PDMODE
 70
     0
  9
$PDSIZE
 40
-1.0
  9
$PLINEWID
 40
0.0
  9
$SPLFRAME
 70
     0
  9
$SPLINETYPE
 70
     6
  9
$SPLINESEGS
 70
     8
  9
$HANDSEED
  5
433
  9
$SURFTAB1
 70
     6
  9
$SURFTAB2
 70
     6
  9
$SURFTYPE
 70
     6
  9
$SURFU
 70
     6
  9
$SURFV
 70
     6
  9
$UCSBASE
  2

  9
$UCSNAME
  2

  9
$UCSORG
 10
0.0
 20
0.0
 30
0.0
  9
$UCSXDIR
 10
1.0
 20
0.0
 30
0.0
  9
$UCSYDIR
 10
0.0
 20
1.0
 30
0.0
  9
$UCSORTHOREF
  2

  9
$UCSORTHOVIEW
 70
     0
  9
$UCSORGTOP
 10
0.0
 20
0.0
 30
0.0
  9
$UCSORGBOTTOM
 10
0.0
 20
0.0
 30
0.0
  9
$UCSORGLEFT
 10
0.0
 20
0.0
 30
0.0
  9
$UCSORGRIGHT
 10
0.0
 20
0.0
 30
0.0
  9
$UCSORGFRONT
 10
0.0
 20
0.0
 30
0.0
  9
$UCSORGBACK
 10
0.0
 20
0.0
 30
0.0
  9
$PUCSBASE
  2

  9
$PUCSNAME
  2

  9
$PUCSORG
 10
0.0
 20
0.0
 30
0.0
  9
$PUCSXDIR
 10
1.0
 20
0.0
 30
0.0
  9
$PUCSYDIR
 10
0.0
 20
1.0
 30
0.0
  9
$PUCSORTHOREF
  2

  9
$PUCSORTHOVIEW
 70
     0
  9
$PUCSORGTOP
 10
0.0
 20
0.0
 30
0.0
  9
$PUCSORGBOTTOM
 10
0.0
 20
0.0
 30
0.0
  9
$PUCSORGLEFT
 10
0.0
 20
0.0
 30
0.0
  9
$PUCSORGRIGHT
 10
0.0
 20
0.0
 30
0.0
  9
$PUCSORGFRONT
 10
0.0
 20
0.0
 30
0.0
  9
$PUCSORGBACK
 10
0.0
 20
0.0
 30
0.0
  9
$USERI1
 70
     0
  9
$USERI2
 70
     0
  9
$USERI3
 70
     0
  9
$USERI4
 70
     0
  9
$USERI5
 70
     0
  9
$USERR1
 40
0.0
  9
$USERR2
 40
0.0
  9
$USERR3
 40
0.0
  9
$USERR4
 40
0.0
  9
$USERR5
 40
0.0
  9
$WORLDVIEW
 70
     1
  9
$SHADEDGE
 70
     3
  9
$SHADEDIF
 70
    70
  9
$TILEMODE
 70
     1
  9
$MAXACTVP
 70
    64
  9
$PINSBASE
 10
0.0
 20
0.0
 30
0.0
  9
$PLIMCHECK
 70
     0
  9
$PEXTMIN
 10
1.0000000000E+20
 20
1.0000000000E+20
 30
1.0000000000E+20
  9
$PEXTMAX
 10
-1.0000000000E+20
 20
-1.0000000000E+20
 30
-1.0000000000E+20
  9
$PLIMMIN
 10
0.0
 20
0.0
  9
$PLIMMAX
 10
420.0
 20
297.0
  9
$UNITMODE
 70
     0
  9
$VISRETAIN
 70
     1
  9
$PLINEGEN
 70
     0
  9
$PSLTSCALE
 70
     1
  9
$TREEDEPTH
 70
  3020
  9
$CMLSTYLE
  2
Standard
  9
$CMLJUST
 70
     0
  9
$CMLSCALE
 40
20.0
  9
$PROXYGRAPHICS
 70
     1
  9
$MEASUREMENT
 70
     1
  9
$CELWEIGHT
370
    -1
  9
$ENDCAPS
280
     0
  9
$JOINSTYLE
280
     0
  9
$LWDISPLAY
290
     1
  9
$INSUNITS
 70
     4
  9
$HYPERLINKBASE
  1

  9
$STYLESHEET
  1

  9
$XEDIT
290
     1
  9
$CEPSNTYPE
380
     0
  9
$PSTYLEMODE
290
     1
  9
$FINGERPRINTGUID
  2
{3bbf1214-6144-4543-b038-79668a6b7960}
  9
$VERSIONGUID
  2
{FAEB1C32-E019-11D5-929B-00C0DF256EC4}
  9
$EXTNAMES
290
     1
  9
$PSVPSCALE
 40
0.0
  9
$OLESTARTUP
290
     0
  0
ENDSEC
  0
SECTION
  2
CLASSES
  0
CLASS
  1
ACDBDICTIONARYWDFLT
  2
AcDbDictionaryWithDefault
  3
ObjectDBX Classes
 90
        0
280
     0
281
     0
  0
CLASS
  1
VISUALSTYLE
  2
AcDbVisualStyle
  3
ObjectDBX Classes
 90
     4095
280
     0
281
     0
  0
CLASS
  1
MATERIAL
  2
AcDbMaterial
  3
ObjectDBX Classes
 90
     1153
280
     0
281
     0
  0
CLASS
  1
SCALE
  2
AcDbScale
  3
ObjectDBX Classes
 90
     1153
280
     0
281
     0
  0
CLASS
  1
TABLESTYLE
  2
AcDbTableStyle
  3
ObjectDBX Classes
 90
     4095
280
     0
281
     0
  0
CLASS
  1
MLEADERSTYLE
  2
AcDbMLeaderStyle
  3
ACDB_MLEADERSTYLE_CLASS
 90
     4095
280
     0
281
     0
  0
CLASS
  1
SUN
  2
AcDbSun
  3
SCENEOE
 90
     1153
280
     0
281
     0
  0
CLASS
  1
ACDBPLACEHOLDER
  2
AcDbPlaceHolder
  3
ObjectDBX Classes
 90
        0
280
     0
281
     0
  0
CLASS
  1
LAYOUT
  2
AcDbLayout
  3
ObjectDBX Classes
 90
        0
280
     0
281
     0
  0
ENDSEC
  0
SECTION
  2
TABLES
  0
TABLE
  2
VPORT
  5
8
330
0
100
AcDbSymbolTable
 70
     1
  0
VPORT
  5
29
330
8
100
AcDbSymbolTableRecord
100
AcDbViewportTableRecord
  2
*Active
 70
     0
 10
0.0
 20
0.0
 11
1.0
 21
1.0
 12
-46.3739780601
 22
1.6206132219
 13
0.0
 23
0.0
 14
10.0
 24
10.0
 15
10.0
 25
10.0
 16
0.0
 26
0.0
 36
1.0
 17
0.0
 27
0.0
 37
0.0
 40
32.9001390693
 41
2.1457116243
 42
50.0
 43
0.0
 44
0.0
 50
0.0
 51
0.0
 71
     0
 72
   100
 73
     1
 74
     3
 75
     0
 76
     0
 77
     0
 78
     0
281
     0
 65
     1
110
0.0
120
0.0
130
0.0
111
1.0
121
0.0
131
0.0
112
0.0
122
1.0
132
0.0
 79
     0
146
0.0
  0
ENDTAB
  0
TABLE
  2
LTYPE
  5
5
330
0
100
AcDbSymbolTable
 70
     6
  0
LTYPE
  5
14
330
5
100
AcDbSymbolTableRecord
100
AcDbLinetypeTableRecord
  2
ByBlock
 70
     0
  3

 72
    65
 73
     0
 40
0.0
  0
LTYPE
  5
15
330
5
100
AcDbSymbolTableRecord
100
AcDbLinetypeTableRecord
  2
ByLayer
 70
     0
  3

 72
    65
 73
     0
 40
0.0
  0
LTYPE
  5
16
330
5
100
AcDbSymbolTableRecord
100
AcDbLinetypeTableRecord
  2
Continuous
 70
     0
  3
Solid line
 72
    65
 73
     0
 40
0.0
  0
LTYPE
  5
6E
330
5
100
AcDbSymbolTableRecord
100
AcDbLinetypeTableRecord
  2
HIDDEN
 70
     0
  3
Hidden __ __ __ __ __ __ __ __ __ __ __ __ __ __
 72
    65
 73
     2
 40
1.905
 49
1.27
 74
     0
 49
-0.635
 74
     0
  0
LTYPE
  5
6F
330
5
100
AcDbSymbolTableRecord
100
AcDbLinetypeTableRecord
  2
PHANTOM
 70
     0
  3
Phantom ______  __  __  ______  __  __  ______
 72
    65
 73
     6
 40
12.7
 49
6.35
 74
     0
 49
-1.27
 74
     0
 49
1.27
 74
     0
 49
-1.27
 74
     0
 49
1.27
 74
     0
 49
-1.27
 74
     0
  0
LTYPE
  5
70
330
5
100
AcDbSymbolTableRecord
100
AcDbLinetypeTableRecord
  2
CENTER
 70
     0
  3
Center ____ _ ____ _ ____ _ ____ _ ____ _ ____
 72
    65
 73
     4
 40
10.16
 49
6.35
 74
     0
 49
-1.27
 74
     0
 49
1.27
 74
     0
 49
-1.27
 74
     0
  0
LTYPE
  5
71
330
5
100
AcDbSymbolTableRecord
100
AcDbLinetypeTableRecord
  2
CENTERX2
 70
     0
  3
Center (2x) ________  __  ________  __  _____
 72
    65
 73
     4
 40
20.32
 49
12.7
 74
     0
 49
-2.54
 74
     0
 49
2.54
 74
     0
 49
-2.54
 74
     0
  0
LTYPE
  5
72
330
5
100
AcDbSymbolTableRecord
100
AcDbLinetypeTableRecord
  2
DOT2
 70
     0
  3
Dot (.5x) ........................................
 72
    65
 73
     2
 40
0.635
 49
0.0
 74
     0
 49
-0.635
 74
     0
  0
ENDTAB
  0
TABLE
  2
LAYER
  5
2
330
0
100
AcDbSymbolTable
 70
     1
  0
LAYER
  5
10
330
2
100
AcDbSymbolTableRecord
100
AcDbLayerTableRecord
  2
0
 70
     0
 62
     7
  6
Continuous
370
    -3
390
F
  0
ENDTAB
  0
TABLE
  2
STYLE
  5
3
330
0
100
AcDbSymbolTable
 70
     1
  0
STYLE
  5
11
330
3
100
AcDbSymbolTableRecord
100
AcDbTextStyleTableRecord
  2
Standard
 70
     0
 40
0.0
 41
1.0
 50
0.0
 71
     0
 42
3.5
  3
txt
  4

  0
ENDTAB
  0
TABLE
  2
VIEW
  5
6
330
0
100
AcDbSymbolTable
 70
     0
  0
ENDTAB
  0
TABLE
  2
UCS
  5
7
330
0
100
AcDbSymbolTable
 70
     0
  0
ENDTAB
  0
TABLE
  2
APPID
  5
9
330
0
100
AcDbSymbolTable
 70
     1
  0
APPID
  5
12
330
9
100
AcDbSymbolTableRecord
100
AcDbRegAppTableRecord
  2
ACAD
 70
     0
  0
ENDTAB
  0
TABLE
  2
DIMSTYLE
  5
A
330
0
100
AcDbSymbolTable
 70
     1
100
AcDbDimStyleTable
  0
DIMSTYLE
105
27
330
A
100
AcDbSymbolTableRecord
100
AcDbDimStyleTableRecord
  2
ISO-25
 70
     0
 41
2.5
 42
0.625
 43
3.75
 44
1.25
 73
     0
 74
     0
 77
     1
 78
     8
140
2.5
141
2.5
143
0.0393700787
147
0.625
171
     3
172
     1
178
     0
271
     2
272
     2
274
     3
278
    44
283
     0
284
     8
340
11
  0
ENDTAB
  0
TABLE
  2
BLOCK_RECORD
  5
1
330
0
100
AcDbSymbolTable
 70
     1
  0
BLOCK_RECORD
  5
1F
330
1
100
AcDbSymbolTableRecord
100
AcDbBlockTableRecord
  2
*Model_Space
340
22
  0
BLOCK_RECORD
  5
1B
330
1
100
AcDbSymbolTableRecord
100
AcDbBlockTableRecord
  2
*Paper_Space
340
1E
  0
BLOCK_RECORD
  5
23
330
1
100
AcDbSymbolTableRecord
100
AcDbBlockTableRecord
  2
*Paper_Space0
340
26
  0
ENDTAB
  0
ENDSEC
  0
SECTION
  2
BLOCKS
  0
BLOCK
  5
20
330
1F
100
AcDbEntity
  8
0
100
AcDbBlockBegin
  2
*Model_Space
 70
     0
 10
0.0
 20
0.0
 30
0.0
  3
*Model_Space
  1

  0
ENDBLK
  5
21
330
1F
100
AcDbEntity
  8
0
100
AcDbBlockEnd
  0
BLOCK
  5
1C
330
1B
100
AcDbEntity
 67
     1
  8
0
100
AcDbBlockBegin
  2
*Paper_Space
 70
     0
 10
0.0
 20
0.0
 30
0.0
  3
*Paper_Space
  1

  0
ENDBLK
  5
1D
330
1B
100
AcDbEntity
 67
     1
  8
0
100
AcDbBlockEnd
  0
BLOCK
  5
24
330
23
100
AcDbEntity
  8
0
100
AcDbBlockBegin
  2
*Paper_Space0
 70
     0
 10
0.0
 20
0.0
 30
0.0
  3
*Paper_Space0
  1

  0
ENDBLK
  5
25
330
23
100
AcDbEntity
  8
0
100
AcDbBlockEnd
  0
ENDSEC
  0
SECTION
  2
ENTITIES
  0
SPLINE
  5
75
330
1F
100
AcDbEntity
  8
0
  6
Continuous
 62
     7
370
    25
100
AcDbSpline
210
0.0
220
0.0
230
1.0
 70
     8
 71
     3
 72
     9
 73
     5
 74
     0
 42
0.000000001
 43
0.00000001
 40
0.0
 40
0.0
 40
0.0
 40
0.0
 40
0.5208201501916179
 40
1.0
 40
1.0
 40
1.0
 40
1.0
 10
-24.97985022393491
 20
5.625336844562627
 30
0.0
 10
-25.01867922204965
 20
5.586533375260867
 30
0.0
 10
-25.09323278550231
 20
5.512028828369805
 30
0.0
 10
-25.16778795278839
 20
5.437526017389488
 30
0.0
 10
-25.20351328665098
 20
5.401825771613638
 30
0.0
  0
SPLINE
  5
76
330
1F
100
AcDbEntity
  8
0
  6
Continuous
 62
     7
370
    25
100
AcDbSpline
210
0.0
220
0.0
230
1.0
 70
     8
 71
     3
 72
     9
 73
     5
 74
     0
 42
0.000000001
 43
0.00000001
 40
0.0
 40
0.0
 40
0.0
 40
0.0
 40
0.4999964135700301
 40
1.0
 40
1.0
 40
1.0
 40
1.0
 10
-24.48745359105251
 20
-6.136191829152642
 30
0.0
 10
-24.4486218710877
 20
-6.174993854275141
 30
0.0
 10
-24.37095787408509
 20
-6.252598461167117
 30
0.0
 10
-24.2932956196183
 20
-6.330204655613128
 30
0.0
 10
-24.25446421385466
 20
-6.369008031165314
 30
0.0
  0
SPLINE
  5
7B
330
1F
100
AcDbEntity
  8
0
  6
Continuous
 62
     7
370
    25
100
AcDbSpline
210
0.0
220
0.0
230
1.0
 70
     8
 71
     3
 72
    12
 73
     8
 74
     0
 42
0.000000001
 43
0.00000001
 40
0.0
 40
0.0
 40
0.0
 40
0.0
 40
0.2573066703511204
 40
0.3772716352990483
 40
0.4937152576446602
 40
0.7369434107244972
 40
1.0
 40
1.0
 40
1.0
 40
1.0
 10
-30.28746934796738
 20
-6.136268775428595
 30
0.0
 10
-30.26920009637008
 20
-6.154481653703515
 30
0.0
 10
-30.2424131094008
 20
-6.181185984224385
 30
0.0
 10
-30.2032767739599
 20
-6.220112428831366
 30
0.0
 10
-30.16315529061128
 20
-6.260174848685608
 30
0.0
 10
-30.11279917309298
 20
-6.310715161675495
 30
0.0
 10
-30.07533734742615
 20
-6.348210946778947
 30
0.0
 10
-30.05587284600329
 20
-6.367693092923888
 30
0.0
  0
SPLINE
  5
7E
330
1F
100
AcDbEntity
  8
0
  6
Continuous
 62
     7
370
    25
100
AcDbSpline
210
0.0
220
0.0
230
1.0
 70
     8
 71
     3
 72
     9
 73
     5
 74
     0
 42
0.000000001
 43
0.00000001
 40
0.0
 40
0.0
 40
0.0
 40
0.0
 40
0.5209502572991885
 40
1.0
 40
1.0
 40
1.0
 40
1.0
 10
-27.88123965942943
 20
5.623901949759395
 30
0.0
 10
-27.91983708667005
 20
5.585329910371543
 30
0.0
 10
-27.99392751411455
 20
5.511288216663926
 30
0.0
 10
-28.06801952646727
 20
5.437248238376546
 30
0.0
 10
-28.10351328592103
 20
5.401779405828404
 30
0.0
  0
SPLINE
  5
7F
330
1F
100
AcDbEntity
  8
0
  6
Continuous
 62
     7
370
    25
100
AcDbSpline
210
0.0
220
0.0
230
1.0
 70
     8
 71
     3
 72
     9
 73
     5
 74
     0
 42
0.000000001
 43
0.00000001
 40
0.0
 40
0.0
 40
0.0
 40
0.0
 40
0.4999964337348182
 40
1.0
 40
1.0
 40
1.0
 40
1.0
 10
-27.38745359068186
 20
-6.136238194526035
 30
0.0
 10
-27.34885345913114
 20
-6.17480880654602
 30
0.0
 10
-27.27165264539257
 20
-6.251950580802037
 30
0.0
 10
-27.1944535540664
 20
-6.329093924288513
 30
0.0
 10
-27.15585373309088
 20
-6.367665871145369
 30
0.0
  0
SPLINE
  5
82
330
1F
100
AcDbEntity
  8
0
  6
Continuous
 62
     7
370
    25
100
AcDbSpline
210
0.0
220
0.0
230
1.0
 70
     8
 71
     3
 72
     9
 73
     5
 74
     0
 42
0.000000001
 43
0.00000001
 40
0.0
 40
0.0
 40
0.0
 40
0.0
 40
0.5209502572952099
 40
1.0
 40
1.0
 40
1.0
 40
1.0
 10
-29.33123965924241
 20
5.623878767074433
 30
0.0
 10
-29.36983708648303
 20
5.58530672768658
 30
0.0
 10
-29.4439275139281
 20
5.511265033978395
 30
0.0
 10
-29.51801952628141
 20
5.437225055690447
 30
0.0
 10
-29.55351328573573
 20
5.401756223141737
 30
0.0
  0
SPLINE
  5
83
330
1F
100
AcDbEntity
  8
0
  6
Continuous
 62
     7
370
    25
100
AcDbSpline
210
0.0
220
0.0
230
1.0
 70
     8
 71
     3
 72
     9
 73
     5
 74
     0
 42
0.000000001
 43
0.00000001
 40
0.0
 40
0.0
 40
0.0
 40
0.0
 40
0.4999964337347936
 40
1.0
 40
1.0
 40
1.0
 40
1.0
 10
-28.83745359049654
 20
-6.136261377212723
 30
0.0
 10
-28.79885345894582
 20
-6.174831989232711
 30
0.0
 10
-28.72165264520726
 20
-6.25197376348874
 30
0.0
 10
-28.64445355388107
 20
-6.329117106975214
 30
0.0
 10
-28.60585373290555
 20
-6.367689053832073
 30
0.0
  0
SPLINE
  5
86
330
1F
100
AcDbEntity
  8
0
  6
Continuous
 62
     7
370
    25
100
AcDbSpline
210
0.0
220
0.0
230
1.0
 70
     8
 71
     3
 72
     9
 73
     5
 74
     0
 42
0.000000001
 43
0.00000001
 40
0.0
 40
0.0
 40
0.0
 40
0.0
 40
0.5209502572972677
 40
1.0
 40
1.0
 40
1.0
 40
1.0
 10
-26.43123965961394
 20
5.62392513244692
 30
0.0
 10
-26.46983708685455
 20
5.585353093059068
 30
0.0
 10
-26.54392751429933
 20
5.511311399351178
 30
0.0
 10
-26.61801952665234
 20
5.437271421063523
 30
0.0
 10
-26.65351328610637
 20
5.401802588515108
 30
0.0
  0
SPLINE
  5
87
330
1F
100
AcDbEntity
  8
0
  6
Continuous
 62
     7
370
    25
100
AcDbSpline
210
0.0
220
0.0
230
1.0
 70
     8
 71
     3
 72
     9
 73
     5
 74
     0
 42
0.000000001
 43
0.00000001
 40
0.0
 40
0.0
 40
0.0
 40
0.0
 40
0.4999964337348258
 40
1.0
 40
1.0
 40
1.0
 40
1.0
 10
-25.9374535908672
 20
-6.136215011839337
 30
0.0
 10
-25.89885345931648
 20
-6.174785623859322
 30
0.0
 10
-25.8216526455779
 20
-6.251927398115338
 30
0.0
 10
-25.74445355425173
 20
-6.329070741601813
 30
0.0
 10
-25.70585373327622
 20
-6.367642688458671
 30
0.0
  0
SPLINE
  5
88
330
1F
100
AcDbEntity
  8
0
  6
Continuous
 62
     7
370
    25
100
AcDbSpline
210
0.0
220
0.0
230
1.0
 70
     8
 71
     3
 72
     9
 73
     5
 74
     0
 42
0.000000001
 43
0.00000001
 40
0.0
 40
0.0
 40
0.0
 40
0.0
 40
0.4999946319665722
 40
1.0
 40
1.0
 40
1.0
 40
1.0
 10
-28.0943726661866
 20
5.391301845677064
 30
0.0
 10
-28.12802997039783
 20
5.429881628068725
 30
0.0
 10
-28.19534530152217
 20
5.507042021251184
 30
0.0
 10
-28.26265837270644
 20
5.584204168330516
 30
0.0
 10
-28.2963152696374
 20
5.622785656079166
 30
0.0
  0
SPLINE
  5
89
330
1F
100
AcDbEntity
  8
0
  6
Continuous
 62
     7
370
    25
100
AcDbSpline
210
0.0
220
0.0
230
1.0
 70
     8
 71
     3
 72
     9
 73
     5
 74
     0
 42
0.000000001
 43
0.00000001
 40
0.0
 40
0.0
 40
0.0
 40
0.0
 40
0.5242335791214731
 40
1.0
 40
1.0
 40
1.0
 40
1.0
 10
-27.57092306448376
 20
-6.366134081105746
 30
0.0
 10
-27.53726913588681
 20
-6.327553486761405
 30
0.0
 10
-27.47307269762478
 20
-6.253959203829363
 30
0.0
 10
-27.40887421859613
 20
-6.180366887995809
 30
0.0
 10
-27.37833073800282
 20
-6.145354135287517
 30
0.0
  0
SPLINE
  5
8A
330
1F
100
AcDbEntity
  8
0
  6
Continuous
 62
     7
370
    25
100
AcDbSpline
210
0.0
220
0.0
230
1.0
 70
     8
 71
     3
 72
     9
 73
     5
 74
     0
 42
0.000000001
 43
0.00000001
 40
0.0
 40
0.0
 40
0.0
 40
0.0
 40
0.4999946319665667
 40
1.0
 40
1.0
 40
1.0
 40
1.0
 10
-29.54437266600021
 20
5.39127866298914
 30
0.0
 10
-29.57802997021143
 20
5.429858445380796
 30
0.0
 10
-29.64534530133576
 20
5.507018838563248
 30
0.0
 10
-29.71265837252004
 20
5.584180985642575
 30
0.0
 10
-29.74631526945099
 20
5.622762473391226
 30
0.0
  0
SPLINE
  5
8B
330
1F
100
AcDbEntity
  8
0
  6
Continuous
 62
     7
370
    25
100
AcDbSpline
210
0.0
220
0.0
230
1.0
 70
     8
 71
     3
 72
     9
 73
     5
 74
     0
 42
0.000000001
 43
0.00000001
 40
0.0
 40
0.0
 40
0.0
 40
0.0
 40
0.5242335791214805
 40
1.0
 40
1.0
 40
1.0
 40
1.0
 10
-29.02092306429846
 20
-6.366157263792463
 30
0.0
 10
-28.98726913570151
 20
-6.327576669448113
 30
0.0
 10
-28.92307269743947
 20
-6.253982386516062
 30
0.0
 10
-28.85887421841081
 20
-6.180390070682503
 30
0.0
 10
-28.82833073781751
 20
-6.145377317974209
 30
0.0
  0
SPLINE
  5
8C
330
1F
100
AcDbEntity
  8
0
  6
Continuous
 62
     7
370
    25
100
AcDbSpline
210
0.0
220
0.0
230
1.0
 70
     8
 71
     3
 72
     9
 73
     5
 74
     0
 42
0.000000001
 43
0.00000001
 40
0.0
 40
0.0
 40
0.0
 40
0.0
 40
0.4999946319665651
 40
0.9999999999999999
 40
0.9999999999999999
 40
0.9999999999999999
 40
0.9999999999999999
 10
-25.19437266655674
 20
5.391348211049865
 30
0.0
 10
-25.22802997076839
 20
5.429927993442013
 30
0.0
 10
-25.29534530189357
 20
5.507088386625448
 30
0.0
 10
-25.36265837307871
 20
5.58425053370576
 30
0.0
 10
-25.3963152700101
 20
5.622832021454901
 30
0.0
  0
SPLINE
  5
8D
330
1F
100
AcDbEntity
  8
0
  6
Continuous
 62
     7
370
    25
100
AcDbSpline
210
0.0
220
0.0
230
1.0
 70
     8
 71
     3
 72
     9
 73
     5
 74
     0
 42
0.000000001
 43
0.00000001
 40
0.0
 40
0.0
 40
0.0
 40
0.0
 40
0.5242335801208011
 40
1.0
 40
1.0
 40
1.0
 40
1.0
 10
-24.67092306485694
 20
-6.366087715735262
 30
0.0
 10
-24.63726913625955
 20
-6.327507121390426
 30
0.0
 10
-24.57307269811909
 20
-6.253912838597733
 30
0.0
 10
-24.508874219212
 20
-6.180320522903535
 30
0.0
 10
-24.47833073874069
 20
-6.145307770335085
 30
0.0
  0
SPLINE
  5
8E
330
1F
100
AcDbEntity
  8
0
  6
Continuous
 62
     7
370
    25
100
AcDbSpline
210
0.0
220
0.0
230
1.0
 70
     8
 71
     3
 72
     9
 73
     5
 74
     0
 42
0.000000001
 43
0.00000001
 40
0.0
 40
0.0
 40
0.0
 40
0.0
 40
0.4999946319665809
 40
1.0
 40
1.0
 40
1.0
 40
1.0
 10
-26.64437266637142
 20
5.391325028363166
 30
0.0
 10
-26.67802997058264
 20
5.429904810754826
 30
0.0
 10
-26.74534530170697
 20
5.507065203937284
 30
0.0
 10
-26.81265837289125
 20
5.584227351016618
 30
0.0
 10
-26.84631526982221
 20
5.622808838765268
 30
0.0
  0
SPLINE
  5
8F
330
1F
100
AcDbEntity
  8
0
  6
Continuous
 62
     7
370
    25
100
AcDbSpline
210
0.0
220
0.0
230
1.0
 70
     8
 71
     3
 72
     9
 73
     5
 74
     0
 42
0.000000001
 43
0.00000001
 40
0.0
 40
0.0
 40
0.0
 40
0.0
 40
0.5242335791217121
 40
1.0
 40
1.0
 40
1.0
 40
1.0
 10
-26.120923064669
 20
-6.366110898418962
 30
0.0
 10
-26.08726913607205
 20
-6.327530304074617
 30
0.0
 10
-26.02307269781005
 20
-6.253936021142604
 30
0.0
 10
-25.95887421878144
 20
-6.180343705309086
 30
0.0
 10
-25.92833073818815
 20
-6.145330952600829
 30
0.0
  0
SPLINE
  5
90
330
1F
100
AcDbEntity
  8
0
  6
Continuous
 62
     7
370
    25
100
AcDbSpline
210
0.0
220
0.0
230
1.0
 70
     8
 71
     3
 72
     9
 73
     5
 74
     0
 42
0.000000001
 43
0.00000001
 40
0.0
 40
0.0
 40
0.0
 40
0.0
 40
0.5233827452502146
 40
1.0
 40
1.0
 40
1.0
 40
1.0
 10
-30.47122053775507
 20
-6.366523215815148
 30
0.0
 10
-30.43756705416351
 20
-6.327943141705568
 30
0.0
 10
-30.3732671056135
 20
-6.25423021467521
 30
0.0
 10
-30.3089651396945
 20
-6.180519036829947
 30
0.0
 10
-30.27831771322318
 20
-6.145387017600966
 30
0.0
  0
LWPOLYLINE
  5
92
330
1F
100
AcDbEntity
  8
0
  6
Continuous
 62
     7
370
    25
100
AcDbPolyline
 90
       23
 70
   128
 43
0.0
 10
-61.8980412717
 20
11.8004807493
 10
-61.6255205455
 20
11.5208561661
 10
-61.3102418576
 20
11.2665250478
 10
-60.9565358434
 20
11.0409808604
 10
-60.5692609721
 20
10.8473216555
 10
-60.1537368113
 20
10.6882075158
 10
-59.7156709579
 20
10.5658240168
 10
-59.2610806392
 20
10.4818522056
 10
-58.7962100608
 20
10.4374455102
 10
-58.3274446369
 20
10.4332138965
 10
-57.8612232809
 20
10.4692154895
 10
-57.4039499612
 20
10.5449557749
 10
-56.9619057367
 20
10.6593943921
 10
-56.5411624812
 20
10.8109594241
 10
-56.1474994807
 20
10.9975689892
 10
-55.7863240493
 20
11.2166598378
 10
-55.4625972555
 20
11.4652225606
 10
-55.1807657769
 20
11.7398429257
 10
-54.9447008218
 20
12.0367487762
 10
-54.7576449538
 20
12.3518618441
 10
-54.6221675531
 20
12.6808537689
 10
-54.5401295232
 20
13.0192055514
 10
-54.51265773
 20
13.3622696265
  0
LWPOLYLINE
  5
95
330
1F
100
AcDbEntity
  8
0
  6
Continuous
 62
     7
370
    25
100
AcDbPolyline
 90
       23
 70
   128
 43
0.0
 10
-54.51265773
 20
13.3622696265
 10
-54.5400736796
 20
13.7049860409
 10
-54.6219457113
 20
14.0430045074
 10
-54.7571515254
 20
14.3716914772
 10
-54.9438377239
 20
14.6865413178
 10
-55.1794452172
 20
14.9832380754
 10
-55.4607443036
 20
15.2577146382
 10
-55.7838789424
 20
15.5062084887
 10
-56.1444196121
 20
15.7253132792
 10
-56.5374240303
 20
15.9120255268
 10
-56.9575049023
 20
16.0637857848
 10
-57.39890377
 20
16.1785137273
 10
-57.855569949
 20
16.2546366666
 10
-58.3212434708
 20
16.2911111114
 10
-58.7895408943
 20
16.2874370709
 10
-59.2540428105
 20
16.2436649088
 10
-59.7083818386
 20
16.1603946527
 10
-60.1463299108
 20
16.0387677692
 10
-60.5618836458
 20
15.8804515166
 10
-60.9493466437
 20
15.6876160901
 10
-61.3034075712
 20
15.4629048728
 10
-61.6192129703
 20
15.2093982005
 10
-61.8924337883
 20
14.9305711362
  0
SPLINE
  5
A5
330
1F
100
AcDbEntity
  8
0
  6
Continuous
 62
     7
370
    25
100
AcDbSpline
210
0.0
220
0.0
230
1.0
 70
     8
 71
     3
 72
    25
 73
    21
 74
     0
 42
0.000000001
 43
0.00000001
 40
0.0
 40
0.0
 40
0.0
 40
0.0
 40
0.0331879110787877
 40
0.0919082434909952
 40
0.1510158325973715
 40
0.2095539485390845
 40
0.2669304713419334
 40
0.3252365599062026
 40
0.3843048131104992
 40
0.4431822692622638
 40
0.5009341406330783
 40
0.5586860122717084
 40
0.6175634685385203
 40
0.6766317216942315
 40
0.7349378100509755
 40
0.7923143329095018
 40
0.8508524490286715
 40
0.9099600381513276
 40
0.9686803704171028
 40
1.0
 40
1.0
 40
1.0
 40
1.0
 10
-24.4876764956203
 20
-6.114469658641967
 30
0.0
 10
-24.49518355357175
 20
-6.109681834925349
 30
0.0
 10
-24.51597306661053
 20
-6.096422776020008
 30
0.0
 10
-24.55236783037617
 20
-5.872037684231716
 30
0.0
 10
-24.5950004129936
 20
-5.463486982018968
 30
0.0
 10
-24.63681552454194
 20
-4.886689471833301
 30
0.0
 10
-24.67547601593977
 20
-4.17305047111763
 30
0.0
 10
-24.71672890790977
 20
-3.337006588358527
 30
0.0
 10
-24.75936368229941
 20
-2.398417853418692
 30
0.0
 10
-24.80180440726689
 20
-1.397452701687465
 30
0.0
 10
-24.84154732803588
 20
-0.3717408537210545
 30
0.0
 10
-24.8812902475926
 20
0.6539708160801015
 30
0.0
 10
-24.92373097874158
 20
1.654936517656995
 30
0.0
 10
-24.96636573087235
 20
2.593523237116748
 30
0.0
 10
-25.00761870373385
 20
3.429574499483287
 30
0.0
 10
-25.04627889494972
 20
4.143186277655024
 30
0.0
 10
-25.08809514979655
 20
4.720087381918218
 30
0.0
 10
-25.1307234178977
 20
5.128247013010338
 30
0.0
 10
-25.16668146812053
 20
5.351083582820642
 30
0.0
 10
-25.18705396767711
 20
5.364579728318881
 30
0.0
 10
-25.19414036716784
 20
5.369274246942869
 30
0.0
  0
SPLINE
  5
A7
330
1F
100
AcDbEntity
  8
0
  6
Continuous
 62
     7
370
    25
100
AcDbSpline
210
0.0
220
0.0
230
1.0
 70
     8
 71
     3
 72
    67
 73
    63
 74
     0
 42
0.000000001
 43
0.00000001
 40
0.0
 40
0.0
 40
0.0
 40
0.0
 40
0.0144446315968299
 40
0.0298865597011927
 40
0.0473554846972088
 40
0.0668512349161831
 40
0.088373616726375
 40
0.1119224150355066
 40
0.1447746962259379
 40
0.17207335079172
 40
0.193816302328578
 40
0.2100018986666107
 40
0.2196406934632765
 40
0.2322114552844963
 40
0.24771391931533
 40
0.2632483953196206
 40
0.2699580976784899
 40
0.2768423842818174
 40
0.2839012550943884
 40
0.2911347100330606
 40
0.298542748970049
 40
0.3061253717358314
 40
0.3094815026013679
 40
0.3193019119126819
 40
0.3348650568977359
 40
0.3455143451551362
 40
0.3577971873620299
 40
0.371713502783101
 40
0.3872631999450123
 40
0.4044461766373433
 40
0.4403460057439536
 40
0.472649335129453
 40
0.501355159916952
 40
0.5127034584454652
 40
0.5248902116276917
 40
0.5379154013589788
 40
0.5517790075412131
 40
0.5664810082066629
 40
0.5820213796084238
 40
0.5984000962877256
 40
0.6363487488636635
 40
0.6653790360479271
 40
0.685485256504743
 40
0.6943811134769187
 40
0.7076451000957468
 40
0.7251478860180464
 40
0.7416524517547108
 40
0.7605185051939641
 40
0.7778863104252467
 40
0.7927668736325088
 40
0.8046660633849889
 40
0.8204299527325853
 40
0.8400579631128439
 40
0.8635493730691336
 40
0.8909033186863554
 40
0.9104926463165652
 40
0.9287395066305162
 40
0.9456438202568976
 40
0.9612055142107847
 40
0.9754245220551255
 40
0.9883007841462369
 40
1.0
 40
1.0
 40
1.0
 40
1.0
 10
-24.97299114995338
 20
5.626201947020341
 30
0.0
 10
-24.96962023258654
 20
5.625868449341688
 30
0.0
 10
-24.96264566058332
 20
5.625178428400933
 30
0.0
 10
-24.95151434873431
 20
5.602917125088244
 30
0.0
 10
-24.93895063977164
 20
5.563542444859459
 30
0.0
 10
-24.92476835004973
 20
5.497791766358383
 30
0.0
 10
-24.90895454438503
 20
5.399847629788897
 30
0.0
 10
-24.88968831620238
 20
5.248235796649704
 30
0.0
 10
-24.86894641219776
 20
5.04154335001233
 30
0.0
 10
-24.84877142689863
 20
4.795635572181842
 30
0.0
 10
-24.83280935870773
 20
4.572709136760883
 30
0.0
 10
-24.82127611946753
 20
4.3955403358523
 30
0.0
 10
-24.81218349655545
 20
4.244812352746486
 30
0.0
 10
-24.80335663875562
 20
4.090381332897263
 30
0.0
 10
-24.7932067966438
 20
3.90279353906071
 30
0.0
 10
-24.78449010430384
 20
3.73217323327879
 30
0.0
 10
-24.77767867431326
 20
3.596199252782327
 30
0.0
 10
-24.77281377131473
 20
3.49795661037102
 30
0.0
 10
-24.76779090325301
 20
3.395344729499995
 30
0.0
 10
-24.76261185547141
 20
3.288273897414629
 30
0.0
 10
-24.75726928364453
 20
3.176661574054521
 30
0.0
 10
-24.75285144762361
 20
3.082915304136135
 30
0.0
 10
-24.74777700019975
 20
2.975567127447837
 30
0.0
 10
-24.74070090999968
 20
2.824841967908902
 30
0.0
 10
-24.73182165729261
 20
2.630992725461381
 30
0.0
 10
-24.72232627806716
 20
2.418985040518303
 30
0.0
 10
-24.713233614793
 20
2.212147549308745
 30
0.0
 10
-24.70292708904559
 20
1.973139664081162
 30
0.0
 10
-24.69141156850477
 20
1.700742853708394
 30
0.0
 10
-24.67444232360855
 20
1.292333281432559
 30
0.0
 10
-24.65348862758055
 20
0.7705873740431259
 30
0.0
 10
-24.63019484766378
 20
0.1664982465782885
 30
0.0
 10
-24.61334461553127
 20
-0.2883736457461516
 30
0.0
 10
-24.60130452830302
 20
-0.6165417809734048
 30
0.0
 10
-24.5927050212178
 20
-0.8458807003997063
 30
0.0
 10
-24.58341652175898
 20
-1.090231468415963
 30
0.0
 10
-24.57342010117648
 20
-1.348999558409902
 30
0.0
 10
-24.56272033499697
 20
-1.621398619864228
 30
0.0
 10
-24.55131963917483
 20
-1.906455997009662
 30
0.0
 10
-24.53408910102354
 20
-2.327981686628618
 30
0.0
 10
-24.51345324341364
 20
-2.817746732361577
 30
0.0
 10
-24.49196277307159
 20
-3.305110875345456
 30
0.0
 10
-24.47767433996549
 20
-3.615890334764855
 30
0.0
 10
-24.46730774579909
 20
-3.835534524865238
 30
0.0
 10
-24.457769830954
 20
-4.036698236949169
 30
0.0
 10
-24.44650835702623
 20
-4.267757489408387
 30
0.0
 10
-24.43415816251904
 20
-4.514657472588834
 30
0.0
 10
-24.42201341549003
 20
-4.748274598553026
 30
0.0
 10
-24.41004787517495
 20
-4.961331998366436
 30
0.0
 10
-24.39958247283805
 20
-5.134574284235703
 30
0.0
 10
-24.38927947291932
 20
-5.292564225475444
 30
0.0
 10
-24.37772028639271
 20
-5.457638888591105
 30
0.0
 10
-24.36324482392633
 20
-5.645803160903938
 30
0.0
 10
-24.34585724424381
 20
-5.844720941841151
 30
0.0
 10
-24.32840746555174
 20
-6.011392513161378
 30
0.0
 10
-24.31229399414018
 20
-6.137141151764339
 30
0.0
 10
-24.29887441390572
 20
-6.223128223487169
 30
0.0
 10
-24.28654005557167
 20
-6.285532125320896
 30
0.0
 10
-24.27530104045978
 20
-6.328559834947661
 30
0.0
 10
-24.26513728949991
 20
-6.35437908709252
 30
0.0
 10
-24.25607042654279
 20
-6.370915219868687
 30
0.0
 10
-24.2503272588237
 20
-6.367769171909593
 30
0.0
 10
-24.24759320990792
 20
-6.366271488151733
 30
0.0
  0
SPLINE
  5
A9
330
1F
100
AcDbEntity
  8
0
  6
Continuous
 62
     7
370
    25
100
AcDbSpline
210
0.0
220
0.0
230
1.0
 70
     8
 71
     3
 72
    27
 73
    23
 74
     0
 42
0.000000001
 43
0.00000001
 40
0.0
 40
0.0
 40
0.0
 40
0.0
 40
0.0078663515825374
 40
0.0621060722987533
 40
0.1172756064594672
 40
0.1725610515942415
 40
0.227138271958033
 40
0.280827334330884
 40
0.3355592289497039
 40
0.390879978204757
 40
0.4459623170430533
 40
0.4999999998206466
 40
0.5540376828505649
 40
0.6091200218043098
 40
0.6644407710278182
 40
0.7191726654708958
 40
0.7728617278051033
 40
0.8274389483617984
 40
0.8827243935467746
 40
0.9378939276104102
 40
0.9921336480906798
 40
1.0
 40
1.0
 40
1.0
 40
1.0
 10
-29.0304106699306
 20
-6.361111940662245
 30
0.0
 10
-29.03225405393885
 20
-6.364538787870837
 30
0.0
 10
-29.04680785811214
 20
-6.391594280911093
 30
0.0
 10
-29.07456064748421
 20
-6.27532289001681
 30
0.0
 10
-29.11541738182488
 20
-5.999843633002
 30
0.0
 10
-29.15638415569964
 20
-5.538567742969269
 30
0.0
 10
-29.19603127036829
 20
-4.933660610435928
 30
0.0
 10
-29.23316452539115
 20
-4.197606283392147
 30
0.0
 10
-29.27319894158998
 20
-3.346930584952119
 30
0.0
 10
-29.31421031651549
 20
-2.400124527389693
 30
0.0
 10
-29.35494013924944
 20
-1.396945127483225
 30
0.0
 10
-29.39309721248183
 20
-0.3718136539678021
 30
0.0
 10
-29.43125428644952
 20
0.6533178203666724
 30
0.0
 10
-29.47198410933928
 20
1.656497222379815
 30
0.0
 10
-29.51299548424554
 20
2.603303279421113
 30
0.0
 10
-29.55302990002385
 20
3.453978976769508
 30
0.0
 10
-29.59016315493588
 20
4.190033304203098
 30
0.0
 10
-29.62981027011039
 20
4.794940437878481
 30
0.0
 10
-29.67077704402481
 20
5.256216328360086
 30
0.0
 10
-29.71163377828796
 20
5.531695585119479
 30
0.0
 10
-29.739386567093
 20
5.647966976212481
 30
0.0
 10
-29.7539403714044
 20
5.620911483275651
 30
0.0
 10
-29.75578375550402
 20
5.617484635942815
 30
0.0
  0
SPLINE
  5
AA
330
1F
100
AcDbEntity
  8
0
  6
Continuous
 62
     7
370
    25
100
AcDbSpline
210
0.0
220
0.0
230
1.0
 70
     8
 71
     3
 72
    25
 73
    21
 74
     0
 42
0.000000001
 43
0.00000001
 40
0.0
 40
0.0
 40
0.0
 40
0.0
 40
0.0575762524453024
 40
0.1161842785437842
 40
0.1748826535464807
 40
0.2327212895445857
 40
0.2898311882654452
 40
0.348152026326074
 40
0.406929629089488
 40
0.4652062798710667
 40
0.5222883263629483
 40
0.5801871663559449
 40
0.6389026926665524
 40
0.6974831684362641
 40
0.7549898028761352
 40
0.8123427949869486
 40
0.8708558321069849
 40
0.9296016499156474
 40
0.987625595867469
 40
1.0
 40
1.0
 40
1.0
 40
1.0
 10
-30.76914324174833
 20
5.627293134527997
 30
0.0
 10
-30.75582757178772
 20
5.602935605843155
 30
0.0
 10
-30.7289576133935
 20
5.553784058509532
 30
0.0
 10
-30.68626585038206
 20
5.237826805916262
 30
0.0
 10
-30.64353699914201
 20
4.752787618674969
 30
0.0
 10
-30.60251280112114
 20
4.1040814784929
 30
0.0
 10
-30.56355933134556
 20
3.316686339492422
 30
0.0
 10
-30.52135804289007
 20
2.407130207284394
 30
0.0
 10
-30.4785527295177
 20
1.401109729635622
 30
0.0
 10
-30.43644237614143
 20
0.3450477980417354
 30
0.0
 10
-30.39756449136846
 20
-0.7281505460918327
 30
0.0
 10
-30.3563761495726
 20
-1.792944163722236
 30
0.0
 10
-30.31361193631438
 20
-2.821125323632146
 30
0.0
 10
-30.27098716465682
 20
-3.767379358179362
 30
0.0
 10
-30.23088573907569
 20
-4.59813957304932
 30
0.0
 10
-30.19123112712307
 20
-5.294144267863753
 30
0.0
 10
-30.14868784486816
 20
-5.841884956406353
 30
0.0
 10
-30.10594415425451
 20
-6.197468777120709
 30
0.0
 10
-30.07502611716482
 20
-6.364736748833569
 30
0.0
 10
-30.05895327976059
 20
-6.353639262502058
 30
0.0
 10
-30.05612804613852
 20
-6.351688580695496
 30
0.0
  0
SPLINE
  5
AB
330
1F
100
AcDbEntity
  8
0
  6
Continuous
 62
     7
370
    25
100
AcDbSpline
210
0.0
220
0.0
230
1.0
 70
     8
 71
     3
 72
    20
 73
    16
 74
     0
 42
0.000000001
 43
0.00000001
 40
0.0
 40
0.0
 40
0.0
 40
0.0
 40
0.0163147900003909
 40
0.0980507594285133
 40
0.1808355657592215
 40
0.2634555800361438
 40
0.3447114906010866
 40
0.425316964315401
 40
0.5075991361059802
 40
0.5904657138148429
 40
0.6726959331383344
 40
0.753245616050326
 40
0.8345833879576114
 40
0.9172355486158964
 40
1.0
 40
1.0
 40
1.0
 40
1.0
 10
-30.2877612609826
 20
-6.122976660229498
 30
0.0
 10
-30.29027011958863
 20
-6.124433493247563
 30
0.0
 10
-30.30534818627629
 20
-6.133188958918812
 30
0.0
 10
-30.3344667750651
 20
-5.987455878427894
 30
0.0
 10
-30.37505687673088
 20
-5.67758733287051
 30
0.0
 10
-30.41555647420271
 20
-5.198183482119327
 30
0.0
 10
-30.45402798813471
 20
-4.587814566718857
 30
0.0
 10
-30.49126212105419
 20
-3.857451857189274
 30
0.0
 10
-30.53142021132362
 20
-3.022038532645882
 30
0.0
 10
-30.5720957163838
 20
-2.103050234194902
 30
0.0
 10
-30.6121881704615
 20
-1.140199859203165
 30
0.0
 10
-30.64932198383102
 20
-0.1610893554995477
 30
0.0
 10
-30.6879367030037
 20
0.8121149731504549
 30
0.0
 10
-30.7285225126002
 20
1.76615052677779
 30
0.0
 10
-30.75556502531638
 20
2.347737145575706
 30
0.0
 10
-30.76909546038797
 20
2.638727855896931
 30
0.0
  0
SPLINE
  5
AC
330
1F
100
AcDbEntity
  8
0
  6
Continuous
 62
     7
370
    25
100
AcDbSpline
210
0.0
220
0.0
230
1.0
 70
     8
 71
     3
 72
    27
 73
    23
 74
     0
 42
0.000000001
 43
0.00000001
 40
0.0
 40
0.0
 40
0.0
 40
0.0
 40
0.0078663515751545
 40
0.0621060722912113
 40
0.1172756064518746
 40
0.1725610515867124
 40
0.2271382719506771
 40
0.2808273343235211
 40
0.3355592289422281
 40
0.3908799781972792
 40
0.4459623170356856
 40
0.4999999998134923
 40
0.5540376828432413
 40
0.6091200217969213
 40
0.6644407710204758
 40
0.719172665463708
 40
0.7728617277992502
 40
0.8274389483589233
 40
0.8827243935469987
 40
0.9378939276137175
 40
0.9921336480969192
 40
1.0
 40
1.0
 40
1.0
 40
1.0
 10
-26.13041067030131
 20
-6.361065575297158
 30
0.0
 10
-26.13225405430783
 20
-6.364492422503308
 30
0.0
 10
-26.14680785847944
 20
-6.3915479155464
 30
0.0
 10
-26.17456064784931
 20
-6.275276524668556
 30
0.0
 10
-26.21541738218988
 20
-5.999797267680913
 30
0.0
 10
-26.25638415606475
 20
-5.538521377669046
 30
0.0
 10
-26.29603127073378
 20
-4.933614245154619
 30
0.0
 10
-26.33316452575659
 20
-4.19755991812718
 30
0.0
 10
-26.37319894195508
 20
-3.346884219701491
 30
0.0
 10
-26.4142103168806
 20
-2.400078162149325
 30
0.0
 10
-26.45494013961468
 20
-1.396898762247051
 30
0.0
 10
-26.49309721284766
 20
-0.3717672887326552
 30
0.0
 10
-26.53125428681478
 20
0.6533641856036282
 30
0.0
 10
-26.57198410970446
 20
1.656543587621679
 30
0.0
 10
-26.61299548461075
 20
2.60334964467381
 30
0.0
 10
-26.6530299003897
 20
3.454025342043549
 30
0.0
 10
-26.69016315530283
 20
4.190079669512272
 30
0.0
 10
-26.72981027047889
 20
4.794986803226676
 30
0.0
 10
-26.77077704439562
 20
5.256262693738847
 30
0.0
 10
-26.81163377866109
 20
5.531741950505192
 30
0.0
 10
-26.83938656746579
 20
5.648013341594655
 30
0.0
 10
-26.85394037177649
 20
5.6209578486539
 30
0.0
 10
-26.85578375587466
 20
5.6175310013231
 30
0.0
  0
SPLINE
  5
AD
330
1F
100
AcDbEntity
  8
0
  6
Continuous
 62
     7
370
    25
100
AcDbSpline
210
0.0
220
0.0
230
1.0
 70
     8
 71
     3
 72
    27
 73
    23
 74
     0
 42
0.000000001
 43
0.00000001
 40
0.0
 40
0.0
 40
0.0
 40
0.0
 40
0.0078663518961867
 40
0.0621060723792154
 40
0.1172756064458623
 40
0.1725610516339733
 40
0.2271382721937861
 40
0.2808273345292978
 40
0.3355592289723984
 40
0.3908799781959265
 40
0.4459623171496872
 40
0.500000000179617
 40
0.5540376829572364
 40
0.6091200217955554
 40
0.6644407710506265
 40
0.7191726656694591
 40
0.772861728042327
 40
0.8274389484061441
 40
0.8827243935409389
 40
0.9378939277016678
 40
0.9921336484178918
 40
1.0
 40
1.0
 40
1.0
 40
1.0
 10
-27.87297531945298
 20
5.617514738411938
 30
0.0
 10
-27.87113193535642
 20
5.620941585740242
 30
0.0
 10
-27.85657813104726
 20
5.647997078681926
 30
0.0
 10
-27.82882534224469
 20
5.53172568760978
 30
0.0
 10
-27.78796860797927
 20
5.256246430868321
 30
0.0
 10
-27.74700183406251
 20
4.794970540376175
 30
0.0
 10
-27.70735471888606
 20
4.190063406679839
 30
0.0
 10
-27.67022146397304
 20
3.45400907922692
 30
0.0
 10
-27.63018704819438
 20
2.603333381871171
 30
0.0
 10
-27.58917567328812
 20
1.656527324829215
 30
0.0
 10
-27.54844585039834
 20
0.6533479228155968
 30
0.0
 10
-27.51028877643065
 20
-0.37178355151927
 30
0.0
 10
-27.47213170319824
 20
-1.396915025034975
 30
0.0
 10
-27.43140188046426
 20
-2.400094424941577
 30
0.0
 10
-27.39039050553873
 20
-3.346900482503839
 30
0.0
 10
-27.3503560893399
 20
-4.197576180943469
 30
0.0
 10
-27.31322283431706
 20
-4.933630507986682
 30
0.0
 10
-27.27357571964838
 20
-5.538537640519245
 30
0.0
 10
-27.23260894577358
 20
-5.999813530551008
 30
0.0
 10
-27.19175221143293
 20
-6.275292787564397
 30
0.0
 10
-27.16399942206094
 20
-6.391564178457783
 30
0.0
 10
-27.14944561788776
 20
-6.364508685417349
 30
0.0
 10
-27.14760223387962
 20
-6.361081838208899
 30
0.0
  0
SPLINE
  5
AE
330
1F
100
AcDbEntity
  8
0
  6
Continuous
 62
     7
370
    25
100
AcDbSpline
210
0.0
220
0.0
230
1.0
 70
     8
 71
     3
 72
    25
 73
    21
 74
     0
 42
0.000000001
 43
0.00000001
 40
0.0
 40
0.0
 40
0.0
 40
0.0
 40
0.0331879105485162
 40
0.0919082429939154
 40
0.1510158321336063
 40
0.2095539481081988
 40
0.2669304709435513
 40
0.3252365595413626
 40
0.3843048127795045
 40
0.4431822689648324
 40
0.5009341403683703
 40
0.5586860120394472
 40
0.6175634683391403
 40
0.6766317215276287
 40
0.7349378099165174
 40
0.7923143328070186
 40
0.8508524489589722
 40
0.9099600381145132
 40
0.9686803704127354
 40
1.0
 40
1.0
 40
1.0
 40
1.0
 10
-27.38767649562864
 20
-6.114516023507822
 30
0.0
 10
-27.3951835534566
 20
-6.10972819981371
 30
0.0
 10
-27.41597306637313
 20
-6.096469140830549
 30
0.0
 10
-27.45236783001095
 20
-5.872084049482718
 30
0.0
 10
-27.49500041262758
 20
-5.463533347359372
 30
0.0
 10
-27.53681552417644
 20
-4.886735837119399
 30
0.0
 10
-27.57547601557464
 20
-4.173096836383911
 30
0.0
 10
-27.61672890754579
 20
-3.337052953591261
 30
0.0
 10
-27.65936368193632
 20
-2.398464218620057
 30
0.0
 10
-27.70180440690441
 20
-1.397499066862812
 30
0.0
 10
-27.74154732767303
 20
-0.3717872188798549
 30
0.0
 10
-27.78129024723103
 20
0.6539244509270269
 30
0.0
 10
-27.8237309783803
 20
1.654890152498231
 30
0.0
 10
-27.86636573051112
 20
2.593476871941487
 30
0.0
 10
-27.90761870337203
 20
3.429528134284909
 30
0.0
 10
-27.94627889458824
 20
4.143139912428929
 30
0.0
 10
-27.98809514943569
 20
4.720041016660346
 30
0.0
 10
-28.03072341753697
 20
5.128200647711147
 30
0.0
 10
-28.06668146775648
 20
5.351037217474601
 30
0.0
 10
-28.08705396731
 20
5.364533362953007
 30
0.0
 10
-28.09414036679776
 20
5.369227881568833
 30
0.0
  0
SPLINE
  5
AF
330
1F
100
AcDbEntity
  8
0
  6
Continuous
 62
     7
370
    25
100
AcDbSpline
210
0.0
220
0.0
230
1.0
 70
     8
 71
     3
 72
    27
 73
    23
 74
     0
 42
0.000000001
 43
0.00000001
 40
0.0
 40
0.0
 40
0.0
 40
0.0
 40
0.0078663515788186
 40
0.0621060722943445
 40
0.1172756064544115
 40
0.1725610515886123
 40
0.227138271951928
 40
0.2808273343239036
 40
0.3355592289415315
 40
0.390879978195491
 40
0.4459623170328417
 40
0.499999999809674
 40
0.5540376828391292
 40
0.6091200217925664
 40
0.6644407710159419
 40
0.7191726654590657
 40
0.7728617277944372
 40
0.8274389483538191
 40
0.8827243935416732
 40
0.9378939276082515
 40
0.9921336480913974
 40
1.0
 40
1.0
 40
1.0
 40
1.0
 10
-24.68041067048661
 20
-6.361042392606492
 30
0.0
 10
-24.68225405449399
 20
-6.364469239813805
 30
0.0
 10
-24.69680785866629
 20
-6.391524732854846
 30
0.0
 10
-24.72456064803694
 20
-6.275253341971279
 30
0.0
 10
-24.76541738237709
 20
-5.999774084975955
 30
0.0
 10
-24.80638415625146
 20
-5.538498194963354
 30
0.0
 10
-24.84603127091991
 20
-4.933591062452702
 30
0.0
 10
-24.88316452594213
 20
-4.197536735435274
 30
0.0
 10
-24.92319894213988
 20
-3.346861037025811
 30
0.0
 10
-24.96421031706458
 20
-2.400054979494017
 30
0.0
 10
-25.00494013979793
 20
-1.396875579612874
 30
0.0
 10
-25.04309721303059
 20
-0.3717441061141732
 30
0.0
 10
-25.0812542869971
 20
0.6533873682136928
 30
0.0
 10
-25.12198410988655
 20
1.656566770230854
 30
0.0
 10
-25.16299548479271
 20
2.603372827285996
 30
0.0
 10
-25.20302990057173
 20
3.45404852466181
 30
0.0
 10
-25.24016315548475
 20
4.190102852138573
 30
0.0
 10
-25.27981027066043
 20
4.795009985863625
 30
0.0
 10
-25.32077704457699
 20
5.256285876388628
 30
0.0
 10
-25.36163377884238
 20
5.531765133173643
 30
0.0
 10
-25.38938656764861
 20
5.648036524274681
 30
0.0
 10
-25.40394037196055
 20
5.620981031336239
 30
0.0
 10
-25.40578375606001
 20
5.617554184003629
 30
0.0
  0
SPLINE
  5
B0
330
1F
100
AcDbEntity
  8
0
  6
Continuous
 62
     7
370
    25
100
AcDbSpline
210
0.0
220
0.0
230
1.0
 70
     8
 71
     3
 72
    27
 73
    23
 74
     0
 42
0.000000001
 43
0.00000001
 40
0.0
 40
0.0
 40
0.0
 40
0.0
 40
0.0078663519032058
 40
0.0621060723864286
 40
0.117275606453167
 40
0.1725610516412596
 40
0.2271382722009467
 40
0.2808273345365077
 40
0.3355592289797621
 40
0.3908799782033357
 40
0.4459623171570309
 40
0.5000000001867902
 40
0.5540376829646227
 40
0.6091200218030511
 40
0.6644407710581195
 40
0.7191726656768382
 40
0.7728617280496988
 40
0.827438948413689
 40
0.8827243935485474
 40
0.937893927709225
 40
0.9921336484252892
 40
0.9999999999999999
 40
0.9999999999999999
 40
0.9999999999999999
 40
0.9999999999999999
 10
-26.42297531963833
 20
5.617537921090131
 30
0.0
 10
-26.42113193554013
 20
5.620964768420972
 30
0.0
 10
-26.40657813122935
 20
5.648020261361695
 30
0.0
 10
-26.37882534242469
 20
5.531748870271889
 30
0.0
 10
-26.33796860815917
 20
5.2562696135049
 30
0.0
 10
-26.29700183424244
 20
4.794993722992087
 30
0.0
 10
-26.25735471906636
 20
4.190086589276993
 30
0.0
 10
-26.22022146415323
 20
3.454032261807551
 30
0.0
 10
-26.18018704837426
 20
2.603356564437078
 30
0.0
 10
-26.13917567346797
 20
1.656550507384277
 30
0.0
 10
-26.09844585057828
 20
0.6533711053657344
 30
0.0
 10
-26.06028877661113
 20
-0.3717603689709554
 30
0.0
 10
-26.02213170337815
 20
-1.396891842485643
 30
0.0
 10
-25.98140188064403
 20
-2.400071242388056
 30
0.0
 10
-25.94039050571853
 20
-3.346877299940064
 30
0.0
 10
-25.90035608951997
 20
-4.19755299836533
 30
0.0
 10
-25.8632228344972
 20
-4.933607325392199
 30
0.0
 10
-25.82357571982813
 20
-5.538514457905822
 30
0.0
 10
-25.78260894595327
 20
-5.999790347916707
 30
0.0
 10
-25.74175221161268
 20
-6.275269604902878
 30
0.0
 10
-25.71399942224291
 20
-6.391540995779802
 30
0.0
 10
-25.6994456180714
 20
-6.36448550273652
 30
0.0
 10
-25.69760223406497
 20
-6.361058655530514
 30
0.0
  0
SPLINE
  5
B1
330
1F
100
AcDbEntity
  8
0
  6
Continuous
 62
     7
370
    25
100
AcDbSpline
210
0.0
220
0.0
230
1.0
 70
     8
 71
     3
 72
    25
 73
    21
 74
     0
 42
0.000000001
 43
0.00000001
 40
0.0
 40
0.0
 40
0.0
 40
0.0
 40
0.0331879105481258
 40
0.0919082429936275
 40
0.1510158321334288
 40
0.2095539481081367
 40
0.2669304709435948
 40
0.3252365595415055
 40
0.3843048127797541
 40
0.4431822689651936
 40
0.5009341403688469
 40
0.5586860120400213
 40
0.6175634683398187
 40
0.6766317215284159
 40
0.7349378099174171
 40
0.7923143328060731
 40
0.8508524489548028
 40
0.909960038107146
 40
0.9686803704023507
 40
1.0
 40
1.0
 40
1.0
 40
1.0
 10
-28.83767649544331
 20
-6.114539206194394
 30
0.0
 10
-28.84518355327117
 20
-6.109751382500565
 30
0.0
 10
-28.86597306618761
 20
-6.096492323518079
 30
0.0
 10
-28.90236782982531
 20
-5.872107232171694
 30
0.0
 10
-28.94500041244197
 20
-5.463556530049511
 30
0.0
 10
-28.98681552399085
 20
-4.886759019810318
 30
0.0
 10
-29.02547601538906
 20
-4.173120019075442
 30
0.0
 10
-29.06672890736025
 20
-3.337076136283233
 30
0.0
 10
-29.10936368175073
 20
-2.398487401312233
 30
0.0
 10
-29.15180440671888
 20
-1.397522249554882
 30
0.0
 10
-29.19154732748753
 20
-0.3718104015716607
 30
0.0
 10
-29.23129024704551
 20
0.6539012682356046
 30
0.0
 10
-29.27373097819477
 20
1.654866969807269
 30
0.0
 10
-29.31636573032562
 20
2.59345368925118
 30
0.0
 10
-29.35761870318614
 20
3.429504951585954
 30
0.0
 10
-29.39627889440114
 20
4.143116729711184
 30
0.0
 10
-29.43809514924641
 20
4.720017833923415
 30
0.0
 10
-29.48072341734532
 20
5.128177464975022
 30
0.0
 10
-29.5166814675659
 20
5.351014034762906
 30
0.0
 10
-29.53705396712119
 20
5.364510180260233
 30
0.0
 10
-29.54414036661132
 20
5.369204698883811
 30
0.0
  0
SPLINE
  5
B2
330
1F
100
AcDbEntity
  8
0
  6
Continuous
 62
     7
370
    25
100
AcDbSpline
210
0.0
220
0.0
230
1.0
 70
     8
 71
     3
 72
    27
 73
    23
 74
     0
 42
0.000000001
 43
0.00000001
 40
0.0
 40
0.0
 40
0.0
 40
0.0
 40
0.0078663519094447
 40
0.0621060723897357
 40
0.1172756064533912
 40
0.1725610516383848
 40
0.2271382721950942
 40
0.2808273345293203
 40
0.3355592289724204
 40
0.3908799781959478
 40
0.4459623171497077
 40
0.5000000001796366
 40
0.5540376829572555
 40
0.6091200217955739
 40
0.6644407710506443
 40
0.719172665669476
 40
0.7728617280423432
 40
0.8274389484061597
 40
0.8827243935409539
 40
0.9378939277016813
 40
0.9921336484179041
 40
1.0
 40
1.0
 40
1.0
 40
1.0
 10
-29.32297531926772
 20
5.617491555709847
 30
0.0
 10
-29.32113193516807
 20
5.620918403042726
 30
0.0
 10
-29.30657813085664
 20
5.647973895979527
 30
0.0
 10
-29.27882534205155
 20
5.531702504886172
 30
0.0
 10
-29.23796860778839
 20
5.256223248126146
 30
0.0
 10
-29.19700183387392
 20
4.794947357643893
 30
0.0
 10
-29.15735471869946
 20
4.190040223967816
 30
0.0
 10
-29.12022146378739
 20
3.453985896533502
 30
0.0
 10
-29.08018704800907
 20
2.603310199184373
 30
0.0
 10
-29.03917567310279
 20
1.656504142142404
 30
0.0
 10
-28.998445850213
 20
0.6533247401287682
 30
0.0
 10
-28.96028877624536
 20
-0.3718067342061092
 30
0.0
 10
-28.92213170301291
 20
-1.396938207721826
 30
0.0
 10
-28.88140188027894
 20
-2.400117607628431
 30
0.0
 10
-28.84039050535342
 20
-3.346923665190691
 30
0.0
 10
-28.8003560891546
 20
-4.197599363630311
 30
0.0
 10
-28.76322283413174
 20
-4.933653690673506
 30
0.0
 10
-28.72357571946306
 20
-5.538560823206048
 30
0.0
 10
-28.68260894558824
 20
-5.999836713237782
 30
0.0
 10
-28.64175221124761
 20
-6.275315970251133
 30
0.0
 10
-28.61399942187561
 20
-6.39158736114449
 30
0.0
 10
-28.59944561770245
 20
-6.36453186810405
 30
0.0
 10
-28.59760223369431
 20
-6.361105020895604
 30
0.0
  0
SPLINE
  5
B3
330
1F
100
AcDbEntity
  8
0
  6
Continuous
 62
     7
370
    25
100
AcDbSpline
210
0.0
220
0.0
230
1.0
 70
     8
 71
     3
 72
    27
 73
    23
 74
     0
 42
0.000000001
 43
0.00000001
 40
0.0
 40
0.0
 40
0.0
 40
0.0
 40
0.0078663515825482
 40
0.0621060722987656
 40
0.1172756064594808
 40
0.172561051594256
 40
0.2271382719580481
 40
0.2808273343308997
 40
0.3355592289497203
 40
0.390879978204774
 40
0.4459623170430708
 40
0.4999999998206642
 40
0.5540376828505834
 40
0.6091200218043292
 40
0.6644407710278384
 40
0.7191726654709167
 40
0.77286172780641
 40
0.8274389483662088
 40
0.882724393554303
 40
0.9378939276209305
 40
0.9921336481039384
 40
1.0
 40
1.0
 40
1.0
 40
1.0
 10
-27.58041067011595
 20
-6.361088757975544
 30
0.0
 10
-27.5822540541242
 20
-6.364515605184137
 30
0.0
 10
-27.59680785829749
 20
-6.391571098224382
 30
0.0
 10
-27.62456064766958
 20
-6.275299707330092
 30
0.0
 10
-27.66541738201019
 20
-5.999820450315226
 30
0.0
 10
-27.706384155885
 20
-5.538544560282479
 30
0.0
 10
-27.74603127055362
 20
-4.933637427749114
 30
0.0
 10
-27.78316452557647
 20
-4.197583100705321
 30
0.0
 10
-27.82319894177531
 20
-3.346907402265287
 30
0.0
 10
-27.86421031670081
 20
-2.400101344702865
 30
0.0
 10
-27.90494013943478
 20
-1.396921944796406
 30
0.0
 10
-27.94309721266716
 20
-0.3717904712809963
 30
0.0
 10
-27.98125428663484
 20
0.6533410030534627
 30
0.0
 10
-28.02198410952461
 20
1.656520405066591
 30
0.0
 10
-28.06299548443086
 20
2.603326462107881
 30
0.0
 10
-28.1030299002095
 20
3.454002159462905
 30
0.0
 10
-28.14016315512251
 20
4.190056486915108
 30
0.0
 10
-28.17981027029895
 20
4.79496362061076
 30
0.0
 10
-28.2207770442157
 20
5.256239511102262
 30
0.0
 10
-28.26163377848112
 20
5.531718767843085
 30
0.0
 10
-28.28938656728362
 20
5.647990158914882
 30
0.0
 10
-28.30394037159275
 20
5.620934665973167
 30
0.0
 10
-28.30578375568928
 20
5.617507818644909
 30
0.0
  0
SPLINE
  5
B4
330
1F
100
AcDbEntity
  8
0
  6
Continuous
 62
     7
370
    25
100
AcDbSpline
210
0.0
220
0.0
230
1.0
 70
     8
 71
     3
 72
    25
 73
    21
 74
     0
 42
0.000000001
 43
0.00000001
 40
0.0
 40
0.0
 40
0.0
 40
0.0
 40
0.0331879105399241
 40
0.0919082429853858
 40
0.1510158321252798
 40
0.209553948100207
 40
0.2669304709357904
 40
0.325236559533622
 40
0.3843048127719146
 40
0.4431822689575195
 40
0.5009341403614457
 40
0.5586860120325094
 40
0.6175634683323084
 40
0.6766317215210217
 40
0.7349378099102442
 40
0.7923143328008928
 40
0.8508524489529151
 40
0.9099600381086351
 40
0.9686803704071397
 40
1.0
 40
1.0
 40
1.0
 40
1.0
 10
-25.93767649581395
 20
-6.114492840819026
 30
0.0
 10
-25.94518355363993
 20
-6.109705017130444
 30
0.0
 10
-25.96597306655445
 20
-6.096445958160396
 30
0.0
 10
-26.00236783019008
 20
-5.872060866842264
 30
0.0
 10
-26.04500041280683
 20
-5.463510164744426
 30
0.0
 10
-26.08681552435614
 20
-4.886712654523588
 30
0.0
 10
-26.12547601575453
 20
-4.173073653804548
 30
0.0
 10
-26.16672890772539
 20
-3.337029771025309
 30
0.0
 10
-26.20936368211596
 20
-2.398441036063334
 30
0.0
 10
-26.25180440708428
 20
-1.397475884308658
 30
0.0
 10
-26.29154732785357
 20
-0.3717640363246942
 30
0.0
 10
-26.3312902474111
 20
0.6539476334862518
 30
0.0
 10
-26.37373097856038
 20
1.654913335064605
 30
0.0
 10
-26.41636573069134
 20
2.593500054520596
 30
0.0
 10
-26.45761870355271
 20
3.429551316879638
 30
0.0
 10
-26.49627889476889
 20
4.143163095040745
 30
0.0
 10
-26.53809514961617
 20
4.720064199290349
 30
0.0
 10
-26.58072341771755
 20
5.128223830362429
 30
0.0
 10
-26.61668146793862
 20
5.351060400148472
 30
0.0
 10
-26.63705396749349
 20
5.364556545635584
 30
0.0
 10
-26.64414036698254
 20
5.369251064254971
 30
0.0
  0
SPLINE
  5
B8
330
1F
100
AcDbEntity
  8
0
  6
Continuous
 62
     7
370
    25
100
AcDbSpline
210
0.0
220
0.0
230
1.0
 70
     8
 71
     3
 72
    16
 73
    12
 74
     0
 42
0.000000001
 43
0.00000001
 40
0.0
 40
0.0
 40
0.0
 40
0.0
 40
0.0276241882221695
 40
0.1480818426034002
 40
0.2704568561893923
 40
0.3933487824693166
 40
0.5153214549346169
 40
0.6350101766528649
 40
0.754970730542808
 40
0.8770951001916077
 40
1.0
 40
1.0
 40
1.0
 40
1.0
 10
-30.48042298970856
 20
-6.360004476844108
 30
0.0
 10
-30.48297985934572
 20
-6.363606574291278
 30
0.0
 10
-30.49668617947797
 20
-6.382915928214145
 30
0.0
 10
-30.52221965625278
 20
-6.284292757930677
 30
0.0
 10
-30.55810459091446
 20
-6.056796696171121
 30
0.0
 10
-30.59434125954886
 20
-5.684298537187125
 30
0.0
 10
-30.62996190521182
 20
-5.194639206296069
 30
0.0
 10
-30.66333387764626
 20
-4.599177353601447
 30
0.0
 10
-30.69701170700131
 20
-3.907854618620721
 30
0.0
 10
-30.73274929962048
 20
-3.132447540495471
 30
0.0
 10
-30.75690206086733
 20
-2.560969537976123
 30
0.0
 10
-30.76901691027987
 20
-2.274320327463697
 30
0.0
  0
CIRCLE
  5
11E
330
1F
100
AcDbEntity
  8
0
  6
Continuous
 62
     7
370
    25
100
AcDbCircle
 10
-48.6367951672
 20
15.7645630299
 30
0.0
 40
0.3499999999999958
  0
CIRCLE
  5
12C
330
1F
100
AcDbEntity
  8
0
  6
Continuous
 62
     7
370
    25
100
AcDbCircle
 10
-48.6367951672
 20
15.7645630299
 30
0.0
 40
0.2922649730810386
  0
CIRCLE
  5
193
330
1F
100
AcDbEntity
  8
0
  6
Continuous
 62
     7
370
    25
100
AcDbCircle
 10
-63.5196531529
 20
-2.4071063079
 30
0.0
 40
0.3500000000000014
  0
CIRCLE
  5
19D
330
1F
100
AcDbEntity
  8
0
  6
Continuous
 62
     7
370
    25
100
AcDbCircle
 10
-63.5196531529
 20
-2.4071063079
 30
0.0
 40
0.2922649730810534
  0
CIRCLE
  5
20B
330
1F
100
AcDbEntity
  8
0
  6
Continuous
 62
     7
370
    25
100
AcDbCircle
 10
-69.9689833748
 20
14.7481323735
 30
0.0
 40
1.500000000000009
  0
CIRCLE
  5
20C
330
1F
100
AcDbEntity
  8
0
  6
Continuous
 62
     7
370
    25
100
AcDbCircle
 10
-33.9689833748
 20
14.7481323735
 30
0.0
 40
1.5
  0
CIRCLE
  5
20D
330
1F
100
AcDbEntity
  8
0
  6
Continuous
 62
     7
370
    25
100
AcDbCircle
 10
-33.9689833748
 20
-11.2518676265
 30
0.0
 40
1.500000000000002
  0
CIRCLE
  5
20F
330
1F
100
AcDbEntity
  8
0
  6
Continuous
 62
     7
370
    25
100
AcDbCircle
 10
-69.9689833748
 20
-11.2518676265
 30
0.0
 40
1.500000000000005
  0
SPLINE
  5
21E
330
1F
100
AcDbEntity
  8
0
  6
Continuous
 62
     7
370
    25
100
AcDbSpline
210
0.0
220
0.0
230
1.0
 70
    24
 71
     3
 72
    23
 73
    19
 74
     0
 42
0.000000001
 43
0.00000001
 40
0.0005036443407857
 40
0.0005036443407857
 40
0.0005036443407857
 40
0.0005036443407857
 40
0.0005062518115196
 40
0.0005062518115196
 40
0.0005062518115196
 40
0.0005411453970193
 40
0.0005411453970193
 40
0.0005411453970193
 40
0.0005759111472029
 40
0.0005759111472029
 40
0.0005759111472029
 40
0.0006102006965056
 40
0.0006102006965056
 40
0.0006102006965056
 40
0.0006314153991002
 40
0.0006314153991002
 40
0.0006314153991002
 40
0.0006613177081391
 40
0.0006613177081391
 40
0.0006613177081391
 40
0.0006613177081391
 10
-62.86622045655587
 20
-11.88518745903
 30
0.0
 10
-62.86622045655587
 20
-11.88606691704351
 30
0.0
 10
-62.86622045655587
 20
-11.88694644599487
 30
0.0
 10
-62.86622045655587
 20
-11.88782562030736
 30
0.0
 10
-62.86622045655587
 20
-11.89944692616977
 30
0.0
 10
-62.86622045655587
 20
-11.91118053308045
 30
0.0
 10
-62.86622045655587
 20
-11.92204304649388
 30
0.0
 10
-62.86622045655587
 20
-11.93286397790346
 30
0.0
 10
-62.86622045655587
 20
-11.94312383838531
 30
0.0
 10
-62.86622045655587
 20
-11.95193269990123
 30
0.0
 10
-62.86622045655587
 20
-11.96062147339854
 30
0.0
 10
-62.86622045655587
 20
-11.96814242329162
 30
0.0
 10
-62.86622045655587
 20
-11.97382741042892
 30
0.0
 10
-62.86622045655587
 20
-11.97737665098123
 30
0.0
 10
-62.86622045655587
 20
-11.98027362056591
 30
0.0
 10
-62.86622045655587
 20
-11.98241298682226
 30
0.0
 10
-62.86622045655587
 20
-11.98540354575092
 30
0.0
 10
-62.86622045655587
 20
-11.98695438786485
 30
0.0
 10
-62.86622045655587
 20
-11.98695438786485
 30
0.0
  0
SPLINE
  5
21F
330
1F
100
AcDbEntity
  8
0
  6
Continuous
 62
     7
370
    25
100
AcDbSpline
210
0.0
220
0.0
230
1.0
 70
    24
 71
     3
 72
    23
 73
    19
 74
     0
 42
0.000000001
 43
0.00000001
 40
0.0003493291571759
 40
0.0003493291571759
 40
0.0003493291571759
 40
0.0003493291571759
 40
0.0003712752464335
 40
0.0003712752464335
 40
0.0003712752464335
 40
0.0004043264756095
 40
0.0004043264756095
 40
0.0004043264756095
 40
0.000437574035803
 40
0.000437574035803
 40
0.000437574035803
 40
0.0004712782617709
 40
0.0004712782617709
 40
0.0004712782617709
 40
0.0005055537118138
 40
0.0005055537118138
 40
0.0005055537118138
 40
0.0005070853758268
 40
0.0005070853758268
 40
0.0005070853758268
 40
0.0005070853758268
 10
-62.86622045655588
 20
-9.5268574715987
 30
0.0
 10
-62.86622045655588
 20
-9.526857471598682
 30
0.0
 10
-62.86622045655589
 20
-9.527686199384865
 30
0.0
 10
-62.86622045655589
 20
-9.52931124410627
 30
0.0
 10
-62.86622045655589
 20
-9.53175511237061
 30
0.0
 10
-62.86622045655589
 20
-9.536083779890406
 30
0.0
 10
-62.86622045655589
 20
-9.541925850251927
 30
0.0
 10
-62.86622045655589
 20
-9.547803166452479
 30
0.0
 10
-62.86622045655589
 20
-9.555369198408217
 30
0.0
 10
-62.86622045655589
 20
-9.563993041439963
 30
0.0
 10
-62.86622045655589
 20
-9.572734752560281
 30
0.0
 10
-62.86622045655588
 20
-9.582797550755684
 30
0.0
 10
-62.86622045655588
 20
-9.593361312568696
 30
0.0
 10
-62.86622045655588
 20
-9.604101813256868
 30
0.0
 10
-62.86622045655588
 20
-9.615650627679518
 30
0.0
 10
-62.86622045655588
 20
-9.6270734621132
 30
0.0
 10
-62.86622045655588
 20
-9.627590398333279
 30
0.0
 10
-62.86622045655588
 20
-9.628107406587553
 30
0.0
 10
-62.86622045655588
 20
-9.628624400433546
 30
0.0
  0
SPLINE
  5
222
330
1F
100
AcDbEntity
  8
0
  6
Continuous
 62
     7
370
    25
100
AcDbSpline
210
0.0
220
0.0
230
1.0
 70
    24
 71
     3
 72
    23
 73
    19
 74
     0
 42
0.000000001
 43
0.00000001
 40
0.0001244206877302
 40
0.0001244206877302
 40
0.0001244206877302
 40
0.0001244206877302
 40
0.0001359208449835
 40
0.0001359208449835
 40
0.0001359208449835
 40
0.000170816523968
 40
0.000170816523968
 40
0.000170816523968
 40
0.0002054780032852
 40
0.0002054780032852
 40
0.0002054780032852
 40
0.0002396100401591
 40
0.0002396100401591
 40
0.0002396100401591
 40
0.0002731647108899
 40
0.0002731647108899
 40
0.0002731647108899
 40
0.0002821318567308
 40
0.0002821318567308
 40
0.0002821318567308
 40
0.0002821318567308
 10
-62.42133489534064
 20
-9.628624400433544
 30
0.0
 10
-62.42133489534064
 20
-9.62476710066168
 30
0.0
 10
-62.42133489534064
 20
-9.620903811782574
 30
0.0
 10
-62.42133489534064
 20
-9.61707048043891
 30
0.0
 10
-62.42133489534064
 20
-9.605515167758037
 30
0.0
 10
-62.42133489534064
 20
-9.59401998157507
 30
0.0
 10
-62.42133489534064
 20
-9.583557040853941
 30
0.0
 10
-62.42133489534064
 20
-9.573165428673223
 30
0.0
 10
-62.42133489534064
 20
-9.563500372509598
 30
0.0
 10
-62.42133489534064
 20
-9.555406573836073
 30
0.0
 10
-62.42133489534064
 20
-9.547435454342526
 30
0.0
 10
-62.42133489534064
 20
-9.540764789280711
 30
0.0
 10
-62.42133489534064
 20
-9.535989146987722
 30
0.0
 10
-62.42133489534064
 20
-9.531293030378384
 30
0.0
 10
-62.42133489534064
 20
-9.528298397410698
 30
0.0
 10
-62.42133489534064
 20
-9.527272460367529
 30
0.0
 10
-62.42133489534064
 20
-9.526996109921361
 30
0.0
 10
-62.42133489534064
 20
-9.5268574715987
 30
0.0
 10
-62.42133489534064
 20
-9.5268574715987
 30
0.0
  0
SPLINE
  5
223
330
1F
100
AcDbEntity
  8
0
  6
Continuous
 62
     7
370
    25
100
AcDbSpline
210
0.0
220
0.0
230
1.0
 70
    24
 71
     3
 72
    23
 73
    19
 74
     0
 42
0.000000001
 43
0.00000001
 40
0.0006015850892702
 40
0.0006015850892702
 40
0.0006015850892702
 40
0.0006015850892702
 40
0.0006114099678666
 40
0.0006114099678666
 40
0.0006114099678666
 40
0.000631310179641
 40
0.000631310179641
 40
0.000631310179641
 40
0.0006648028938846
 40
0.0006648028938846
 40
0.0006648028938846
 40
0.0006982710974719
 40
0.0006982710974719
 40
0.0006982710974719
 40
0.0007321101612889
 40
0.0007321101612889
 40
0.0007321101612889
 40
0.0007591866391606
 40
0.0007591866391606
 40
0.0007591866391606
 40
0.0007591866391606
 10
-62.42133489534061
 20
-11.98695438786485
 30
0.0
 10
-62.42133489534061
 20
-11.98695438786485
 30
0.0
 10
-62.42133489534061
 20
-11.98678808469724
 30
0.0
 10
-62.42133489534061
 20
-11.98645680994879
 30
0.0
 10
-62.42133489534061
 20
-11.98578439593433
 30
0.0
 10
-62.42133489534061
 20
-11.9844216445916
 30
0.0
 10
-62.42133489534061
 20
-11.98241298682226
 30
0.0
 10
-62.42133489534061
 20
-11.97906379348315
 30
0.0
 10
-62.42133489534061
 20
-11.97381107528973
 30
0.0
 10
-62.42133489534061
 20
-11.96711344184064
 30
0.0
 10
-62.42133489534061
 20
-11.96041866570849
 30
0.0
 10
-62.42133489534061
 20
-11.95209997534458
 30
0.0
 10
-62.42133489534061
 20
-11.9428515552598
 30
0.0
 10
-62.42133489534061
 20
-11.93350064037448
 30
0.0
 10
-62.42133489534061
 20
-11.92294810977408
 30
0.0
 10
-62.42133489534061
 20
-11.91205069651741
 30
0.0
 10
-62.42133489534061
 20
-11.90332768946949
 30
0.0
 10
-62.42133489534061
 20
-11.89421923447595
 30
0.0
 10
-62.42133489534061
 20
-11.88518745903
 30
0.0
  0
SPLINE
  5
22A
330
1F
100
AcDbEntity
  8
0
  6
Continuous
 62
     7
370
    25
100
AcDbSpline
210
0.0
220
0.0
230
1.0
 70
    24
 71
     3
 72
    23
 73
    19
 74
     0
 42
0.000000001
 43
0.00000001
 40
0.0005036443407857
 40
0.0005036443407857
 40
0.0005036443407857
 40
0.0005036443407857
 40
0.0005062518115196
 40
0.0005062518115196
 40
0.0005062518115196
 40
0.0005411453970193
 40
0.0005411453970193
 40
0.0005411453970193
 40
0.0005759111472029
 40
0.0005759111472029
 40
0.0005759111472029
 40
0.0006102006965056
 40
0.0006102006965056
 40
0.0006102006965056
 40
0.0006314153991001
 40
0.0006314153991001
 40
0.0006314153991001
 40
0.0006613177081391
 40
0.0006613177081391
 40
0.0006613177081391
 40
0.0006613177081391
 10
-40.70107390197462
 20
-11.53457361989869
 30
0.0
 10
-40.70107390197462
 20
-11.53369416188519
 30
0.0
 10
-40.70107390197462
 20
-11.53281463293383
 30
0.0
 10
-40.70107390197462
 20
-11.53193545862133
 30
0.0
 10
-40.70107390197462
 20
-11.52031415275892
 30
0.0
 10
-40.70107390197462
 20
-11.50858054584824
 30
0.0
 10
-40.70107390197462
 20
-11.49771803243481
 30
0.0
 10
-40.70107390197462
 20
-11.48689710102523
 30
0.0
 10
-40.70107390197462
 20
-11.47663724054338
 30
0.0
 10
-40.70107390197462
 20
-11.46782837902746
 30
0.0
 10
-40.70107390197462
 20
-11.45913960553015
 30
0.0
 10
-40.70107390197462
 20
-11.45161865563708
 30
0.0
 10
-40.70107390197462
 20
-11.44593366849977
 30
0.0
 10
-40.70107390197462
 20
-11.44238442794746
 30
0.0
 10
-40.70107390197462
 20
-11.43948745836278
 30
0.0
 10
-40.70107390197462
 20
-11.43734809210643
 30
0.0
 10
-40.70107390197462
 20
-11.43435753317778
 30
0.0
 10
-40.70107390197462
 20
-11.43280669106385
 30
0.0
 10
-40.70107390197462
 20
-11.43280669106385
 30
0.0
  0
SPLINE
  5
22B
330
1F
100
AcDbEntity
  8
0
  6
Continuous
 62
     7
370
    25
100
AcDbSpline
210
0.0
220
0.0
230
1.0
 70
    24
 71
     3
 72
    23
 73
    19
 74
     0
 42
0.000000001
 43
0.00000001
 40
0.0003493291571759
 40
0.0003493291571759
 40
0.0003493291571759
 40
0.0003493291571759
 40
0.0003712752464335
 40
0.0003712752464335
 40
0.0003712752464335
 40
0.0004043264756095
 40
0.0004043264756095
 40
0.0004043264756095
 40
0.000437574035803
 40
0.000437574035803
 40
0.000437574035803
 40
0.0004712782617709
 40
0.0004712782617709
 40
0.0004712782617709
 40
0.0005055537118138
 40
0.0005055537118138
 40
0.0005055537118138
 40
0.0005070853758268
 40
0.0005070853758268
 40
0.0005070853758268
 40
0.0005070853758268
 10
-40.70107390197462
 20
-13.89290360733
 30
0.0
 10
-40.70107390197462
 20
-13.89290360733001
 30
0.0
 10
-40.70107390197462
 20
-13.89207487954383
 30
0.0
 10
-40.70107390197462
 20
-13.89044983482242
 30
0.0
 10
-40.70107390197462
 20
-13.88800596655808
 30
0.0
 10
-40.70107390197462
 20
-13.88367729903829
 30
0.0
 10
-40.70107390197462
 20
-13.87783522867677
 30
0.0
 10
-40.70107390197462
 20
-13.87195791247622
 30
0.0
 10
-40.70107390197462
 20
-13.86439188052048
 30
0.0
 10
-40.70107390197462
 20
-13.85576803748873
 30
0.0
 10
-40.70107390197462
 20
-13.84702632636841
 30
0.0
 10
-40.70107390197462
 20
-13.83696352817301
 30
0.0
 10
-40.70107390197462
 20
-13.82639976636
 30
0.0
 10
-40.70107390197462
 20
-13.81565926567183
 30
0.0
 10
-40.70107390197462
 20
-13.80411045124918
 30
0.0
 10
-40.70107390197462
 20
-13.79268761681549
 30
0.0
 10
-40.70107390197462
 20
-13.79217068059542
 30
0.0
 10
-40.70107390197462
 20
-13.79165367234114
 30
0.0
 10
-40.70107390197462
 20
-13.79113667849515
 30
0.0
  0
SPLINE
  5
22D
330
1F
100
AcDbEntity
  8
0
  6
Continuous
 62
     7
370
    25
100
AcDbSpline
210
0.0
220
0.0
230
1.0
 70
    24
 71
     3
 72
    23
 73
    19
 74
     0
 42
0.000000001
 43
0.00000001
 40
0.0001244206877302
 40
0.0001244206877302
 40
0.0001244206877302
 40
0.0001244206877302
 40
0.0001359208449835
 40
0.0001359208449835
 40
0.0001359208449835
 40
0.000170816523968
 40
0.000170816523968
 40
0.000170816523968
 40
0.0002054780032852
 40
0.0002054780032852
 40
0.0002054780032852
 40
0.0002396100401591
 40
0.0002396100401591
 40
0.0002396100401591
 40
0.0002731647108899
 40
0.0002731647108899
 40
0.0002731647108899
 40
0.0002821318567308
 40
0.0002821318567308
 40
0.0002821318567308
 40
0.0002821318567308
 10
-41.14595946318986
 20
-13.79113667849514
 30
0.0
 10
-41.14595946318986
 20
-13.79499397826701
 30
0.0
 10
-41.14595946318986
 20
-13.79885726714612
 30
0.0
 10
-41.14595946318986
 20
-13.80269059848978
 30
0.0
 10
-41.14595946318986
 20
-13.81424591117065
 30
0.0
 10
-41.14595946318986
 20
-13.82574109735362
 30
0.0
 10
-41.14595946318986
 20
-13.83620403807475
 30
0.0
 10
-41.14595946318986
 20
-13.84659565025547
 30
0.0
 10
-41.14595946318986
 20
-13.85626070641909
 30
0.0
 10
-41.14595946318986
 20
-13.86435450509262
 30
0.0
 10
-41.14595946318986
 20
-13.87232562458616
 30
0.0
 10
-41.14595946318986
 20
-13.87899628964798
 30
0.0
 10
-41.14595946318986
 20
-13.88377193194097
 30
0.0
 10
-41.14595946318986
 20
-13.88846804855031
 30
0.0
 10
-41.14595946318986
 20
-13.89146268151799
 30
0.0
 10
-41.14595946318986
 20
-13.89248861856116
 30
0.0
 10
-41.14595946318986
 20
-13.89276496900733
 30
0.0
 10
-41.14595946318986
 20
-13.89290360732999
 30
0.0
 10
-41.14595946318986
 20
-13.89290360732999
 30
0.0
  0
SPLINE
  5
22F
330
1F
100
AcDbEntity
  8
0
  6
Continuous
 62
     7
370
    25
100
AcDbSpline
210
0.0
220
0.0
230
1.0
 70
    24
 71
     3
 72
    23
 73
    19
 74
     0
 42
0.000000001
 43
0.00000001
 40
0.0006015850892702
 40
0.0006015850892702
 40
0.0006015850892702
 40
0.0006015850892702
 40
0.0006114099678666
 40
0.0006114099678666
 40
0.0006114099678666
 40
0.000631310179641
 40
0.000631310179641
 40
0.000631310179641
 40
0.0006648028938846
 40
0.0006648028938846
 40
0.0006648028938846
 40
0.0006982710974718
 40
0.0006982710974718
 40
0.0006982710974718
 40
0.0007321101612889
 40
0.0007321101612889
 40
0.0007321101612889
 40
0.0007591866391606
 40
0.0007591866391606
 40
0.0007591866391606
 40
0.0007591866391606
 10
-41.14595946318986
 20
-11.43280669106384
 30
0.0
 10
-41.14595946318986
 20
-11.43280669106385
 30
0.0
 10
-41.14595946318986
 20
-11.43297299423145
 30
0.0
 10
-41.14595946318986
 20
-11.4333042689799
 30
0.0
 10
-41.14595946318986
 20
-11.43397668299436
 30
0.0
 10
-41.14595946318986
 20
-11.43533943433709
 30
0.0
 10
-41.14595946318986
 20
-11.43734809210643
 30
0.0
 10
-41.14595946318986
 20
-11.44069728544554
 30
0.0
 10
-41.14595946318986
 20
-11.44595000363896
 30
0.0
 10
-41.14595946318986
 20
-11.45264763708805
 30
0.0
 10
-41.14595946318986
 20
-11.45934241322021
 30
0.0
 10
-41.14595946318986
 20
-11.46766110358412
 30
0.0
 10
-41.14595946318986
 20
-11.47690952366889
 30
0.0
 10
-41.14595946318986
 20
-11.48626043855421
 30
0.0
 10
-41.14595946318986
 20
-11.49681296915461
 30
0.0
 10
-41.14595946318986
 20
-11.50771038241128
 30
0.0
 10
-41.14595946318986
 20
-11.5164333894592
 30
0.0
 10
-41.14595946318986
 20
-11.52554184445274
 30
0.0
 10
-41.14595946318986
 20
-11.53457361989869
 30
0.0
  0
CIRCLE
  5
234
330
1F
100
AcDbEntity
  8
0
  6
Continuous
 62
     7
370
    25
100
AcDbCircle
 10
-45.6584922975
 20
2.444595012
 30
0.0
 40
0.3499999999999933
  0
CIRCLE
  5
242
330
1F
100
AcDbEntity
  8
0
  6
Continuous
 62
     7
370
    25
100
AcDbCircle
 10
-45.6584922975
 20
2.444595012
 30
0.0
 40
0.2922649730810261
  0
SPLINE
  5
2A5
330
1F
100
AcDbEntity
  8
0
  6
Continuous
 62
     7
370
    25
100
AcDbSpline
210
0.0
220
0.0
230
1.0
 70
     8
 71
     3
 72
    17
 73
    13
 74
     0
 42
0.000000001
 43
0.00000001
 40
0.0
 40
0.0
 40
0.0
 40
0.0
 40
0.0848998681904041
 40
0.1695585170938335
 40
0.2600793689341719
 40
0.3662875223276753
 40
0.4906073951603673
 40
0.628295847238017
 40
0.7650945126544214
 40
0.8630100123052803
 40
0.9613745182798484
 40
1.0
 40
1.0
 40
1.0
 40
1.0
 10
-61.89096598887433
 20
14.93226962650816
 30
0.0
 10
-61.89275335354759
 20
14.92971809686381
 30
0.0
 10
-61.89632300459613
 20
14.92462228703468
 30
0.0
 10
-61.92326926388822
 20
14.88595088419894
 30
0.0
 10
-61.96375878902948
 20
14.82725287146119
 30
0.0
 10
-62.02018472652932
 20
14.74431952500352
 30
0.0
 10
-62.09057116321944
 20
14.63892580597516
 30
0.0
 10
-62.16632563353291
 20
14.52302705039845
 30
0.0
 10
-62.2293448522524
 20
14.42453077162019
 30
0.0
 10
-62.26934776838269
 20
14.36116825434305
 30
0.0
 10
-62.28748460898787
 20
14.33221151891011
 30
0.0
 10
-62.28581200518394
 20
14.33488177746791
 30
0.0
 10
-62.28534040044303
 20
14.33563467937591
 30
0.0
  0
SPLINE
  5
2A6
330
1F
100
AcDbEntity
  8
0
  6
Continuous
 62
     7
370
    25
100
AcDbSpline
210
0.0
220
0.0
230
1.0
 70
     8
 71
     3
 72
    17
 73
    13
 74
     0
 42
0.000000001
 43
0.00000001
 40
0.0
 40
0.0
 40
0.0
 40
0.0
 40
0.0865567209679908
 40
0.1729190089237903
 40
0.264187548410679
 40
0.3686980008837414
 40
0.4895683536392137
 40
0.6248847087585399
 40
0.7636512801100926
 40
0.8625011937321065
 40
0.9619180509126786
 40
1.0
 40
1.0
 40
1.0
 40
1.0
 10
-62.28744787980784
 20
12.39226962650816
 30
0.0
 10
-62.28579313397118
 20
12.38962374233834
 30
0.0
 10
-62.28248735936585
 20
12.38433791746817
 30
0.0
 10
-62.25717637190911
 20
12.34404488160261
 30
0.0
 10
-62.21876451750784
 20
12.28342589398624
 30
0.0
 10
-62.1650800489541
 20
12.19972873238168
 30
0.0
 10
-62.09712528357928
 20
12.09556584255987
 30
0.0
 10
-62.02126190493902
 20
11.98168015659261
 30
0.0
 10
-61.95512916476729
 20
11.88465290350211
 30
0.0
 10
-61.91124076970489
 20
11.82126489067661
 30
0.0
 10
-61.89091049017158
 20
11.79218955849613
 30
0.0
 10
-61.89273799919251
 20
11.79480333789436
 30
0.0
 10
-61.89324414980849
 20
11.79552725555351
 30
0.0
  0
LINE
  5
2D9
330
1F
100
AcDbEntity
  8
0
  6
Continuous
 62
     7
370
    25
100
AcDbLine
 10
-31.7689434048
 20
-6.8718516382
 30
0.0
 11
-30.7689434049
 21
-6.8718356501
 31
0.0
  0
LINE
  5
2DA
330
1F
100
AcDbEntity
  8
0
  6
Continuous
 62
     7
370
    25
100
AcDbLine
 10
-30.7691512497
 20
6.1281643482
 30
0.0
 11
-31.7691512496
 21
6.1281483602
 31
0.0
  0
LINE
  5
2DB
330
1F
100
AcDbEntity
  8
0
  6
Continuous
 62
     7
370
    25
100
AcDbLine
 10
-24.1141432565
 20
5.6282707488
 30
0.0
 11
-24.9729911828
 21
5.6282570175
 31
0.0
  0
LINE
  5
2DC
330
1F
100
AcDbEntity
  8
0
  6
Continuous
 62
     7
370
    25
100
AcDbLine
 10
-24.2475931226
 20
-6.3717313863
 30
0.0
 11
-24.1139513998
 21
-6.3717292496
 31
0.0
  0
LINE
  5
2DD
330
1F
100
AcDbEntity
  8
0
  6
Continuous
 62
     7
370
    25
100
AcDbLine
 10
-29.7557839265
 20
5.62818055
 30
0.0
 11
-30.7691432557
 21
5.6281643483
 31
0.0
  0
LINE
  5
2DE
330
1F
100
AcDbEntity
  8
0
  6
Continuous
 62
     7
370
    25
100
AcDbLine
 10
-30.0476567049
 20
-6.3718241181
 30
0.0
 11
-29.0304104989
 21
-6.3718078543
 31
0.0
  0
LINE
  5
2DF
330
1F
100
AcDbEntity
  8
0
  6
Continuous
 62
     7
370
    25
100
AcDbLine
 10
-26.8557839269
 20
5.6282269153
 30
0.0
 11
-27.8729754905
 21
5.6282106524
 31
0.0
  0
LINE
  5
2E0
330
1F
100
AcDbEntity
  8
0
  6
Continuous
 62
     7
370
    25
100
AcDbLine
 10
-27.1476020629
 20
-6.3717777518
 30
0.0
 11
-26.1304104993
 21
-6.3717614889
 31
0.0
  0
LINE
  5
2E1
330
1F
100
AcDbEntity
  8
0
  6
Continuous
 62
     7
370
    25
100
AcDbLine
 10
-25.4057839271
 20
5.628250098
 30
0.0
 11
-26.4229754906
 21
5.6282338351
 31
0.0
  0
LINE
  5
2E2
330
1F
100
AcDbEntity
  8
0
  6
Continuous
 62
     7
370
    25
100
AcDbLine
 10
-25.6976020631
 20
-6.3717545691
 30
0.0
 11
-24.6804104995
 21
-6.3717383062
 31
0.0
  0
LINE
  5
2E3
330
1F
100
AcDbEntity
  8
0
  6
Continuous
 62
     7
370
    25
100
AcDbLine
 10
-28.3057839267
 20
5.6282037326
 30
0.0
 11
-29.3229754903
 21
5.6281874697
 31
0.0
  0
LINE
  5
2E4
330
1F
100
AcDbEntity
  8
0
  6
Continuous
 62
     7
370
    25
100
AcDbLine
 10
-28.5976020627
 20
-6.3718009345
 30
0.0
 11
-27.5804104991
 21
-6.3717846716
 31
0.0
  0
LINE
  5
2E5
330
1F
100
AcDbEntity
  8
0
  6
Continuous
 62
     7
370
    25
100
AcDbLine
 10
-30.768951399
 20
-6.3718356502
 30
0.0
 11
-30.4804228006
 21
-6.3718310371
 31
0.0
  0
LINE
  5
2E6
330
1F
100
AcDbEntity
  8
0
  6
Continuous
 62
     7
370
    25
100
AcDbLine
 10
-63.9707211186
 20
14.3322696265
 30
0.0
 11
-62.2874478798
 21
14.3322696265
 31
0.0
  0
LINE
  5
2E7
330
1F
100
AcDbEntity
  8
0
  6
Continuous
 62
     7
370
    25
100
AcDbLine
 10
-61.8909659889
 20
14.9322696265
 30
0.0
 11
-63.9707211186
 21
14.9322696265
 31
0.0
  0
LINE
  5
2E8
330
1F
100
AcDbEntity
  8
0
  6
Continuous
 62
     7
370
    25
100
AcDbLine
 10
-63.9707211186
 20
11.7922696265
 30
0.0
 11
-61.893242796
 21
11.7922696265
 31
0.0
  0
LINE
  5
2E9
330
1F
100
AcDbEntity
  8
0
  6
Continuous
 62
     7
370
    25
100
AcDbLine
 10
-62.2874478798
 20
12.3922696265
 30
0.0
 11
-63.9707211186
 21
12.3922696265
 31
0.0
  0
LINE
  5
2EA
330
1F
100
AcDbEntity
  8
0
  6
Continuous
 62
     7
370
    25
100
AcDbLine
 10
-30.7689434049
 20
-6.8718356501
 30
0.0
 11
-30.7691512497
 21
6.1281643482
 31
0.0
  0
LINE
  5
2EB
330
1F
100
AcDbEntity
  8
0
  6
Continuous
 62
     7
370
    25
100
AcDbLine
 10
-31.7690473272
 20
-0.371851639
 30
0.0
 11
-30.7690473273
 21
-0.3718356509
 31
0.0
  0
LINE
  5
2EC
330
1F
100
AcDbEntity
  8
0
  6
Continuous
 62
     7
370
    25
100
AcDbLine
 10
-31.7689434048
 20
-6.8718516382
 30
0.0
 11
-31.7691512496
 21
6.1281483602
 31
0.0
  0
LINE
  5
2ED
330
1F
100
AcDbEntity
  8
0
  6
Continuous
 62
     7
370
    25
100
AcDbLine
 10
-24.9814723653
 20
5.6217607113
 30
0.0
 11
-24.9763595132
 21
5.6275730221
 31
0.0
  0
LINE
  5
2EE
330
1F
100
AcDbEntity
  8
0
  6
Continuous
 62
     7
370
    25
100
AcDbLine
 10
-24.1141432565
 20
5.6282707488
 30
0.0
 11
-24.1139513998
 21
-6.3717292496
 31
0.0
  0
LINE
  5
2EF
330
1F
100
AcDbEntity
  8
0
  6
Continuous
 62
     7
370
    25
100
AcDbLine
 10
-23.8291387
 20
5.3432753055
 30
0.0
 11
-23.8289559564
 21
-6.0867246931
 31
0.0
  0
LINE
  5
2F0
330
1F
100
AcDbEntity
  8
0
  6
Continuous
 62
     7
370
    25
100
AcDbLine
 10
-23.8289559564
 20
-6.0867246931
 30
0.0
 11
-24.1139513998
 21
-6.3717292496
 31
0.0
  0
LINE
  5
2F1
330
1F
100
AcDbEntity
  8
0
  6
Continuous
 62
     7
370
    25
100
AcDbLine
 10
-23.8291387
 20
5.3432753055
 30
0.0
 11
-24.1141432565
 21
5.6282707488
 31
0.0
  0
LINE
  5
2F2
330
1F
100
AcDbEntity
  8
0
  6
Continuous
 62
     7
370
    25
100
AcDbLine
 10
-41.7689673856
 20
-5.3720115189
 30
0.0
 11
-31.7689673869
 21
-5.3718516383
 31
0.0
  0
LINE
  5
2F3
330
1F
100
AcDbEntity
  8
0
  6
Continuous
 62
     7
370
    25
100
AcDbLine
 10
-41.7689673856
 20
-5.3720115189
 30
0.0
 11
-41.7691272662
 21
4.6279884798
 31
0.0
  0
LINE
  5
2F4
330
1F
100
AcDbEntity
  8
0
  6
Continuous
 62
     7
370
    25
100
AcDbLine
 10
-41.7691272662
 20
4.6279884798
 30
0.0
 11
-31.7691272675
 21
4.6281483604
 31
0.0
  0
LINE
  5
2F5
330
1F
100
AcDbEntity
  8
0
  6
Continuous
 62
     7
370
    25
100
AcDbLine
 10
-72.2289833748
 20
-4.9218676265
 30
0.0
 11
-72.2289833748
 21
-4.2818676265
 31
0.0
  0
LINE
  5
2F6
330
1F
100
AcDbEntity
  8
0
  6
Continuous
 62
     7
370
    25
100
AcDbLine
 10
-80.7089833748
 20
-4.9218676265
 30
0.0
 11
-71.4789833748
 21
-4.9218676265
 31
0.0
  0
LINE
  5
2F7
330
1F
100
AcDbEntity
  8
0
  6
Continuous
 62
     7
370
    25
100
AcDbLine
 10
-80.7089833748
 20
-4.2818676265
 30
0.0
 11
-80.7089833748
 21
-4.9218676265
 31
0.0
  0
LINE
  5
2F8
330
1F
100
AcDbEntity
  8
0
  6
Continuous
 62
     7
370
    25
100
AcDbLine
 10
-71.4789833748
 20
-4.2818676265
 30
0.0
 11
-80.7089833748
 21
-4.2818676265
 31
0.0
  0
LINE
  5
2F9
330
1F
100
AcDbEntity
  8
0
  6
Continuous
 62
     7
370
    25
100
AcDbLine
 10
-80.9789833748
 20
-4.8218676265
 30
0.0
 11
-80.9789833748
 21
-4.3818676265
 31
0.0
  0
LINE
  5
2FA
330
1F
100
AcDbEntity
  8
0
  6
Continuous
 62
     7
370
    25
100
AcDbLine
 10
-80.9789833748
 20
-4.8218676265
 30
0.0
 11
-80.7089833748
 21
-4.9218676265
 31
0.0
  0
LINE
  5
2FB
330
1F
100
AcDbEntity
  8
0
  6
Continuous
 62
     7
370
    25
100
AcDbLine
 10
-80.9789833748
 20
-4.3818676265
 30
0.0
 11
-80.7089833748
 21
-4.2818676265
 31
0.0
  0
LINE
  5
2FC
330
1F
100
AcDbEntity
  8
0
  6
Continuous
 62
     7
370
    25
100
AcDbLine
 10
-71.4789833748
 20
-4.2818676265
 30
0.0
 11
-71.4789833748
 21
-4.9218676265
 31
0.0
  0
LINE
  5
2FD
330
1F
100
AcDbEntity
  8
0
  6
Continuous
 62
     7
370
    25
100
AcDbLine
 10
-70.5289833748
 20
-5.8718676265
 30
0.0
 11
-73.0689833748
 21
-5.8718676265
 31
0.0
  0
LINE
  5
2FE
330
1F
100
AcDbEntity
  8
0
  6
Continuous
 62
     7
370
    25
100
AcDbLine
 10
-73.0689833748
 20
-4.9218676265
 30
0.0
 11
-73.0689833748
 21
-5.8718676265
 31
0.0
  0
LINE
  5
2FF
330
1F
100
AcDbEntity
  8
0
  6
Continuous
 62
     7
370
    25
100
AcDbLine
 10
-73.0689833748
 20
-5.4218676265
 30
0.0
 11
-70.5289833748
 21
-5.4218676265
 31
0.0
  0
LINE
  5
300
330
1F
100
AcDbEntity
  8
0
  6
Continuous
 62
     7
370
    25
100
AcDbLine
 10
-70.5289833748
 20
-3.3318676265
 30
0.0
 11
-73.0689833748
 21
-3.3318676265
 31
0.0
  0
LINE
  5
301
330
1F
100
AcDbEntity
  8
0
  6
Continuous
 62
     7
370
    25
100
AcDbLine
 10
-73.0689833748
 20
-2.3818676265
 30
0.0
 11
-73.0689833748
 21
-4.2818676265
 31
0.0
  0
LINE
  5
302
330
1F
100
AcDbEntity
  8
0
  6
Continuous
 62
     7
370
    25
100
AcDbLine
 10
-70.5289833748
 20
-3.7818676265
 30
0.0
 11
-73.0689833748
 21
-3.7818676265
 31
0.0
  0
LINE
  5
303
330
1F
100
AcDbEntity
  8
0
  6
Continuous
 62
     7
370
    25
100
AcDbLine
 10
-73.0689833748
 20
-2.8818676265
 30
0.0
 11
-70.5289833748
 21
-2.8818676265
 31
0.0
  0
LINE
  5
304
330
1F
100
AcDbEntity
  8
0
  6
Continuous
 62
     7
370
    25
100
AcDbLine
 10
-73.0689833748
 20
0.1581323735
 30
0.0
 11
-73.0689833748
 21
-1.7418676265
 31
0.0
  0
LINE
  5
305
330
1F
100
AcDbEntity
  8
0
  6
Continuous
 62
     7
370
    25
100
AcDbLine
 10
-70.5289833748
 20
-0.7918676265
 30
0.0
 11
-73.0689833748
 21
-0.7918676265
 31
0.0
  0
LINE
  5
306
330
1F
100
AcDbEntity
  8
0
  6
Continuous
 62
     7
370
    25
100
AcDbLine
 10
-70.5289833748
 20
-1.2418676265
 30
0.0
 11
-73.0689833748
 21
-1.2418676265
 31
0.0
  0
LINE
  5
307
330
1F
100
AcDbEntity
  8
0
  6
Continuous
 62
     7
370
    25
100
AcDbLine
 10
-73.0689833748
 20
2.6981323735
 30
0.0
 11
-73.0689833748
 21
0.7981323735
 31
0.0
  0
LINE
  5
308
330
1F
100
AcDbEntity
  8
0
  6
Continuous
 62
     7
370
    25
100
AcDbLine
 10
-70.5289833748
 20
1.7481323735
 30
0.0
 11
-73.0689833748
 21
1.7481323735
 31
0.0
  0
LINE
  5
309
330
1F
100
AcDbEntity
  8
0
  6
Continuous
 62
     7
370
    25
100
AcDbLine
 10
-70.5289833748
 20
1.2981323735
 30
0.0
 11
-73.0689833748
 21
1.2981323735
 31
0.0
  0
LINE
  5
30A
330
1F
100
AcDbEntity
  8
0
  6
Continuous
 62
     7
370
    25
100
AcDbLine
 10
-73.0689833748
 20
-0.3418676265
 30
0.0
 11
-70.5289833748
 21
-0.3418676265
 31
0.0
  0
LINE
  5
30B
330
1F
100
AcDbEntity
  8
0
  6
Continuous
 62
     7
370
    25
100
AcDbLine
 10
-73.0689833748
 20
5.2381323735
 30
0.0
 11
-73.0689833748
 21
3.3381323735
 31
0.0
  0
LINE
  5
30C
330
1F
100
AcDbEntity
  8
0
  6
Continuous
 62
     7
370
    25
100
AcDbLine
 10
-70.5289833748
 20
4.2881323735
 30
0.0
 11
-73.0689833748
 21
4.2881323735
 31
0.0
  0
LINE
  5
30D
330
1F
100
AcDbEntity
  8
0
  6
Continuous
 62
     7
370
    25
100
AcDbLine
 10
-70.5289833748
 20
3.8381323735
 30
0.0
 11
-73.0689833748
 21
3.8381323735
 31
0.0
  0
LINE
  5
30E
330
1F
100
AcDbEntity
  8
0
  6
Continuous
 62
     7
370
    25
100
AcDbLine
 10
-73.0689833748
 20
2.1981323735
 30
0.0
 11
-70.5289833748
 21
2.1981323735
 31
0.0
  0
LINE
  5
30F
330
1F
100
AcDbEntity
  8
0
  6
Continuous
 62
     7
370
    25
100
AcDbLine
 10
-73.0689833748
 20
7.7781323735
 30
0.0
 11
-73.0689833748
 21
5.8781323735
 31
0.0
  0
LINE
  5
310
330
1F
100
AcDbEntity
  8
0
  6
Continuous
 62
     7
370
    25
100
AcDbLine
 10
-70.5289833748
 20
6.3781323735
 30
0.0
 11
-73.0689833748
 21
6.3781323735
 31
0.0
  0
LINE
  5
311
330
1F
100
AcDbEntity
  8
0
  6
Continuous
 62
     7
370
    25
100
AcDbLine
 10
-70.5289833748
 20
6.8281323735
 30
0.0
 11
-73.0689833748
 21
6.8281323735
 31
0.0
  0
LINE
  5
312
330
1F
100
AcDbEntity
  8
0
  6
Continuous
 62
     7
370
    25
100
AcDbLine
 10
-73.0689833748
 20
4.7381323735
 30
0.0
 11
-70.5289833748
 21
4.7381323735
 31
0.0
  0
LINE
  5
313
330
1F
100
AcDbEntity
  8
0
  6
Continuous
 62
     7
370
    25
100
AcDbLine
 10
-73.0689833748
 20
7.2781323735
 30
0.0
 11
-70.5289833748
 21
7.2781323735
 31
0.0
  0
LINE
  5
314
330
1F
100
AcDbEntity
  8
0
  6
Continuous
 62
     7
370
    25
100
AcDbLine
 10
-73.0689833748
 20
9.3681323735
 30
0.0
 11
-73.0689833748
 21
8.4181323735
 31
0.0
  0
LINE
  5
315
330
1F
100
AcDbEntity
  8
0
  6
Continuous
 62
     7
370
    25
100
AcDbLine
 10
-73.0689833748
 20
9.3681323735
 30
0.0
 11
-70.5289833748
 21
9.3681323735
 31
0.0
  0
LINE
  5
316
330
1F
100
AcDbEntity
  8
0
  6
Continuous
 62
     7
370
    25
100
AcDbLine
 10
-70.5289833748
 20
8.9181323735
 30
0.0
 11
-73.0689833748
 21
8.9181323735
 31
0.0
  0
LINE
  5
317
330
1F
100
AcDbEntity
  8
0
  6
Continuous
 62
     7
370
    25
100
AcDbLine
 10
-70.5289833748
 20
-5.8718676265
 30
0.0
 11
-70.5289833748
 21
9.3681323735
 31
0.0
  0
LINE
  5
318
330
1F
100
AcDbEntity
  8
0
  6
Continuous
 62
     7
370
    25
100
AcDbLine
 10
-72.2289833748
 20
-2.3818676265
 30
0.0
 11
-72.2289833748
 21
-1.7418676265
 31
0.0
  0
LINE
  5
319
330
1F
100
AcDbEntity
  8
0
  6
Continuous
 62
     7
370
    25
100
AcDbLine
 10
-80.7089833748
 20
-2.3818676265
 30
0.0
 11
-71.4789833748
 21
-2.3818676265
 31
0.0
  0
LINE
  5
31A
330
1F
100
AcDbEntity
  8
0
  6
Continuous
 62
     7
370
    25
100
AcDbLine
 10
-80.7089833748
 20
-1.7418676265
 30
0.0
 11
-80.7089833748
 21
-2.3818676265
 31
0.0
  0
LINE
  5
31B
330
1F
100
AcDbEntity
  8
0
  6
Continuous
 62
     7
370
    25
100
AcDbLine
 10
-71.4789833748
 20
-1.7418676265
 30
0.0
 11
-80.7089833748
 21
-1.7418676265
 31
0.0
  0
LINE
  5
31C
330
1F
100
AcDbEntity
  8
0
  6
Continuous
 62
     7
370
    25
100
AcDbLine
 10
-80.9789833748
 20
-2.2818676265
 30
0.0
 11
-80.9789833748
 21
-1.8418676265
 31
0.0
  0
LINE
  5
31D
330
1F
100
AcDbEntity
  8
0
  6
Continuous
 62
     7
370
    25
100
AcDbLine
 10
-80.9789833748
 20
-2.2818676265
 30
0.0
 11
-80.7089833748
 21
-2.3818676265
 31
0.0
  0
LINE
  5
31E
330
1F
100
AcDbEntity
  8
0
  6
Continuous
 62
     7
370
    25
100
AcDbLine
 10
-80.9789833748
 20
-1.8418676265
 30
0.0
 11
-80.7089833748
 21
-1.7418676265
 31
0.0
  0
LINE
  5
31F
330
1F
100
AcDbEntity
  8
0
  6
Continuous
 62
     7
370
    25
100
AcDbLine
 10
-71.4789833748
 20
-1.7418676265
 30
0.0
 11
-71.4789833748
 21
-2.3818676265
 31
0.0
  0
LINE
  5
320
330
1F
100
AcDbEntity
  8
0
  6
Continuous
 62
     7
370
    25
100
AcDbLine
 10
-80.9789833748
 20
0.2581323735
 30
0.0
 11
-80.9789833748
 21
0.6981323735
 31
0.0
  0
LINE
  5
321
330
1F
100
AcDbEntity
  8
0
  6
Continuous
 62
     7
370
    25
100
AcDbLine
 10
-80.9789833748
 20
0.6981323735
 30
0.0
 11
-80.7089833748
 21
0.7981323735
 31
0.0
  0
LINE
  5
322
330
1F
100
AcDbEntity
  8
0
  6
Continuous
 62
     7
370
    25
100
AcDbLine
 10
-80.7089833748
 20
0.7981323735
 30
0.0
 11
-80.7089833748
 21
0.1581323735
 31
0.0
  0
LINE
  5
323
330
1F
100
AcDbEntity
  8
0
  6
Continuous
 62
     7
370
    25
100
AcDbLine
 10
-80.9789833748
 20
0.2581323735
 30
0.0
 11
-80.7089833748
 21
0.1581323735
 31
0.0
  0
LINE
  5
324
330
1F
100
AcDbEntity
  8
0
  6
Continuous
 62
     7
370
    25
100
AcDbLine
 10
-72.2289833748
 20
0.1581323735
 30
0.0
 11
-72.2289833748
 21
0.7981323735
 31
0.0
  0
LINE
  5
325
330
1F
100
AcDbEntity
  8
0
  6
Continuous
 62
     7
370
    25
100
AcDbLine
 10
-71.4789833748
 20
0.7981323735
 30
0.0
 11
-71.4789833748
 21
0.1581323735
 31
0.0
  0
LINE
  5
326
330
1F
100
AcDbEntity
  8
0
  6
Continuous
 62
     7
370
    25
100
AcDbLine
 10
-80.7089833748
 20
0.1581323735
 30
0.0
 11
-71.4789833748
 21
0.1581323735
 31
0.0
  0
LINE
  5
327
330
1F
100
AcDbEntity
  8
0
  6
Continuous
 62
     7
370
    25
100
AcDbLine
 10
-71.4789833748
 20
0.7981323735
 30
0.0
 11
-80.7089833748
 21
0.7981323735
 31
0.0
  0
LINE
  5
328
330
1F
100
AcDbEntity
  8
0
  6
Continuous
 62
     7
370
    25
100
AcDbLine
 10
-49.1190297752
 20
16.3700443222
 30
0.0
 11
-45.7504080469
 21
16.3406468057
 31
0.0
  0
LINE
  5
329
330
1F
100
AcDbEntity
  8
0
  6
Continuous
 62
     7
370
    25
100
AcDbLine
 10
-45.7906591919
 20
11.7283224356
 30
0.0
 11
-45.7504080469
 21
16.3406468057
 31
0.0
  0
LINE
  5
32A
330
1F
100
AcDbEntity
  8
0
  6
Continuous
 62
     7
370
    25
100
AcDbLine
 10
-49.1592809202
 20
11.7577199521
 30
0.0
 11
-45.7906591919
 21
11.7283224356
 31
0.0
  0
LINE
  5
32B
330
1F
100
AcDbEntity
  8
0
  6
Continuous
 62
     7
370
    25
100
AcDbLine
 10
-49.1190297752
 20
16.3700443222
 30
0.0
 11
-49.1592809202
 21
11.7577199521
 31
0.0
  0
LINE
  5
32C
330
1F
100
AcDbEntity
  8
0
  6
Continuous
 62
     7
370
    25
100
AcDbLine
 10
-45.7906591919
 20
11.7283224356
 30
0.0
 11
-45.6481691049
 21
11.5833234697
 31
0.0
  0
LINE
  5
32D
330
1F
100
AcDbEntity
  8
0
  6
Continuous
 62
     7
370
    25
100
AcDbLine
 10
-49.5480206049
 20
11.6173569581
 30
0.0
 11
-45.6481691049
 21
11.5833234697
 31
0.0
  0
LINE
  5
32E
330
1F
100
AcDbEntity
  8
0
  6
Continuous
 62
     7
370
    25
100
AcDbLine
 10
-49.4930155041
 20
11.6714103202
 30
0.0
 11
-49.5480206049
 21
11.6173569581
 31
0.0
  0
LINE
  5
32F
330
1F
100
AcDbEntity
  8
0
  6
Continuous
 62
     7
370
    25
100
AcDbLine
 10
-49.1592809202
 20
11.7577199521
 30
0.0
 11
-49.4930155041
 21
11.6714103202
 31
0.0
  0
LINE
  5
330
330
1F
100
AcDbEntity
  8
0
  6
Continuous
 62
     7
370
    25
100
AcDbLine
 10
-49.4930155041
 20
11.6714103202
 30
0.0
 11
-49.4512072189
 21
16.4621652803
 31
0.0
  0
LINE
  5
331
330
1F
100
AcDbEntity
  8
0
  6
Continuous
 62
     7
370
    25
100
AcDbLine
 10
-49.4512072189
 20
16.4621652803
 30
0.0
 11
-49.1190297752
 21
16.3700443222
 31
0.0
  0
LINE
  5
332
330
1F
100
AcDbEntity
  8
0
  6
Continuous
 62
     7
370
    25
100
AcDbLine
 10
-49.4512072189
 20
16.4621652803
 30
0.0
 11
-49.505260581
 21
16.5171703812
 31
0.0
  0
LINE
  5
333
330
1F
100
AcDbEntity
  8
0
  6
Continuous
 62
     7
370
    25
100
AcDbLine
 10
-49.505260581
 20
16.5171703812
 30
0.0
 11
-45.605409081
 21
16.4831368927
 31
0.0
  0
LINE
  5
334
330
1F
100
AcDbEntity
  8
0
  6
Continuous
 62
     7
370
    25
100
AcDbLine
 10
-45.7504080469
 20
16.3406468057
 30
0.0
 11
-45.605409081
 21
16.4831368927
 31
0.0
  0
LINE
  5
335
330
1F
100
AcDbEntity
  8
0
  6
Continuous
 62
     7
370
    25
100
AcDbLine
 10
-45.6481691049
 20
11.5833234697
 30
0.0
 11
-45.605409081
 21
16.4831368927
 31
0.0
  0
LINE
  5
336
330
1F
100
AcDbEntity
  8
0
  6
Continuous
 62
     7
370
    25
100
AcDbLine
 10
-49.5480206049
 20
11.6173569581
 30
0.0
 11
-49.505260581
 21
16.5171703812
 31
0.0
  0
LINE
  5
337
330
1F
100
AcDbEntity
  8
0
  6
Continuous
 62
     7
370
    25
100
AcDbLine
 10
-49.5229318153
 20
14.4922474869
 30
0.0
 11
-50.5728918346
 21
14.5014103492
 31
0.0
  0
LINE
  5
338
330
1F
100
AcDbEntity
  8
0
  6
Continuous
 62
     7
370
    25
100
AcDbLine
 10
-50.0829104923
 20
14.4971343468
 30
0.0
 11
-50.0792453473
 21
14.9171183545
 31
0.0
  0
LINE
  5
339
330
1F
100
AcDbEntity
  8
0
  6
Continuous
 62
     7
370
    25
100
AcDbLine
 10
-49.5192666704
 20
14.9122314946
 30
0.0
 11
-50.5692266896
 21
14.9213943569
 31
0.0
  0
LINE
  5
33A
330
1F
100
AcDbEntity
  8
0
  6
Continuous
 62
     7
370
    25
100
AcDbLine
 10
-49.8229203923
 20
14.4948654476
 30
0.0
 11
-49.8192552473
 21
14.9148494553
 31
0.0
  0
LINE
  5
33B
330
1F
100
AcDbEntity
  8
0
  6
Continuous
 62
     7
370
    25
100
AcDbLine
 10
-49.5340145154
 20
13.2222958447
 30
0.0
 11
-50.5839745346
 21
13.2314587069
 31
0.0
  0
LINE
  5
33C
330
1F
100
AcDbEntity
  8
0
  6
Continuous
 62
     7
370
    25
100
AcDbLine
 10
-49.8340030923
 20
13.2249138053
 30
0.0
 11
-49.8303379474
 21
13.644897813
 31
0.0
  0
LINE
  5
33D
330
1F
100
AcDbEntity
  8
0
  6
Continuous
 62
     7
370
    25
100
AcDbLine
 10
-49.5303493705
 20
13.6422798523
 30
0.0
 11
-50.5803093897
 21
13.6514427146
 31
0.0
  0
LINE
  5
33E
330
1F
100
AcDbEntity
  8
0
  6
Continuous
 62
     7
370
    25
100
AcDbLine
 10
-49.5450972155
 20
11.9523442024
 30
0.0
 11
-50.5950572347
 21
11.9615070646
 31
0.0
  0
LINE
  5
33F
330
1F
100
AcDbEntity
  8
0
  6
Continuous
 62
     7
370
    25
100
AcDbLine
 10
-49.8450857924
 20
11.954962163
 30
0.0
 11
-49.8414206475
 21
12.3749461707
 31
0.0
  0
LINE
  5
340
330
1F
100
AcDbEntity
  8
0
  6
Continuous
 62
     7
370
    25
100
AcDbLine
 10
-49.5414320706
 20
12.37232821
 30
0.0
 11
-50.5913920898
 21
12.3814910723
 31
0.0
  0
LINE
  5
341
330
1F
100
AcDbEntity
  8
0
  6
Continuous
 62
     7
370
    25
100
AcDbLine
 10
-50.0718277922
 20
15.7670859891
 30
0.0
 11
-50.0681626473
 21
16.1870699968
 31
0.0
  0
LINE
  5
342
330
1F
100
AcDbEntity
  8
0
  6
Continuous
 62
     7
370
    25
100
AcDbLine
 10
-49.8118376922
 20
15.7648170899
 30
0.0
 11
-49.8081725473
 21
16.1848010976
 31
0.0
  0
LINE
  5
343
330
1F
100
AcDbEntity
  8
0
  6
Continuous
 62
     7
370
    25
100
AcDbLine
 10
-49.5118491153
 20
15.7621991292
 30
0.0
 11
-50.5618091345
 21
15.7713619915
 31
0.0
  0
LINE
  5
344
330
1F
100
AcDbEntity
  8
0
  6
Continuous
 62
     7
370
    25
100
AcDbLine
 10
-49.5081839703
 20
16.1821831369
 30
0.0
 11
-50.5581439896
 21
16.1913459992
 31
0.0
  0
LINE
  5
345
330
1F
100
AcDbEntity
  8
0
  6
Continuous
 62
     7
370
    25
100
AcDbLine
 10
-50.0939931923
 20
13.2271827045
 30
0.0
 11
-50.0903280474
 21
13.6471667122
 31
0.0
  0
LINE
  5
346
330
1F
100
AcDbEntity
  8
0
  6
Continuous
 62
     7
370
    25
100
AcDbLine
 10
-50.1050758924
 20
11.9572310622
 30
0.0
 11
-50.1014107475
 21
12.3772150699
 31
0.0
  0
LINE
  5
347
330
1F
100
AcDbEntity
  8
0
  6
Continuous
 62
     7
370
    25
100
AcDbLine
 10
-45.6083324704
 20
16.1481496485
 30
0.0
 11
-44.5583724512
 21
16.1389867862
 31
0.0
  0
LINE
  5
348
330
1F
100
AcDbEntity
  8
0
  6
Continuous
 62
     7
370
    25
100
AcDbLine
 10
-45.3120090384
 20
15.7255476801
 30
0.0
 11
-45.3083438935
 21
16.1455316878
 31
0.0
  0
LINE
  5
349
330
1F
100
AcDbEntity
  8
0
  6
Continuous
 62
     7
370
    25
100
AcDbLine
 10
-45.6119976153
 20
15.7281656408
 30
0.0
 11
-44.5620375961
 21
15.7190027785
 31
0.0
  0
LINE
  5
34A
330
1F
100
AcDbEntity
  8
0
  6
Continuous
 62
     7
370
    25
100
AcDbLine
 10
-45.3341744385
 20
13.1856443956
 30
0.0
 11
-45.3305092936
 21
13.6056284032
 31
0.0
  0
LINE
  5
34B
330
1F
100
AcDbEntity
  8
0
  6
Continuous
 62
     7
370
    25
100
AcDbLine
 10
-45.6341630155
 20
13.1882623562
 30
0.0
 11
-44.5842029962
 21
13.1790994939
 31
0.0
  0
LINE
  5
34C
330
1F
100
AcDbEntity
  8
0
  6
Continuous
 62
     7
370
    25
100
AcDbLine
 10
-45.6304978706
 20
13.6082463639
 30
0.0
 11
-44.5805378513
 21
13.5990835016
 31
0.0
  0
LINE
  5
34D
330
1F
100
AcDbEntity
  8
0
  6
Continuous
 62
     7
370
    25
100
AcDbLine
 10
-45.3452571386
 20
11.9156927533
 30
0.0
 11
-45.3415919937
 21
12.335676761
 31
0.0
  0
LINE
  5
34E
330
1F
100
AcDbEntity
  8
0
  6
Continuous
 62
     7
370
    25
100
AcDbLine
 10
-45.6452457155
 20
11.9183107139
 30
0.0
 11
-44.5952856963
 21
11.9091478516
 31
0.0
  0
LINE
  5
34F
330
1F
100
AcDbEntity
  8
0
  6
Continuous
 62
     7
370
    25
100
AcDbLine
 10
-45.6415805706
 20
12.3382947216
 30
0.0
 11
-44.5916205514
 21
12.3291318593
 31
0.0
  0
LINE
  5
350
330
1F
100
AcDbEntity
  8
0
  6
Continuous
 62
     7
370
    25
100
AcDbLine
 10
-45.3230917385
 20
14.4555960379
 30
0.0
 11
-45.3194265936
 21
14.8755800455
 31
0.0
  0
LINE
  5
351
330
1F
100
AcDbEntity
  8
0
  6
Continuous
 62
     7
370
    25
100
AcDbLine
 10
-45.6230803154
 20
14.4582139985
 30
0.0
 11
-44.5731202962
 21
14.4490511362
 31
0.0
  0
LINE
  5
352
330
1F
100
AcDbEntity
  8
0
  6
Continuous
 62
     7
370
    25
100
AcDbLine
 10
-45.6194151705
 20
14.8781980062
 30
0.0
 11
-44.5694551513
 21
14.8690351439
 31
0.0
  0
LINE
  5
353
330
1F
100
AcDbEntity
  8
0
  6
Continuous
 62
     7
370
    25
100
AcDbLine
 10
-45.0852670386
 20
11.913423854
 30
0.0
 11
-45.0816018937
 21
12.3334078617
 31
0.0
  0
LINE
  5
354
330
1F
100
AcDbEntity
  8
0
  6
Continuous
 62
     7
370
    25
100
AcDbLine
 10
-45.0520189384
 20
15.7232787809
 30
0.0
 11
-45.0483537935
 21
16.1432627886
 31
0.0
  0
LINE
  5
355
330
1F
100
AcDbEntity
  8
0
  6
Continuous
 62
     7
370
    25
100
AcDbLine
 10
-45.0741843386
 20
13.1833754963
 30
0.0
 11
-45.0705191936
 21
13.603359504
 31
0.0
  0
LINE
  5
356
330
1F
100
AcDbEntity
  8
0
  6
Continuous
 62
     7
370
    25
100
AcDbLine
 10
-45.0631016385
 20
14.4533271386
 30
0.0
 11
-45.0594364936
 21
14.8733111463
 31
0.0
  0
LINE
  5
357
330
1F
100
AcDbEntity
  8
0
  6
Continuous
 62
     7
370
    25
100
AcDbLine
 10
-50.1229089692
 20
14.4974834082
 30
0.0
 11
-50.1192438243
 21
14.9174674159
 31
0.0
  0
LINE
  5
358
330
1F
100
AcDbEntity
  8
0
  6
Continuous
 62
     7
370
    25
100
AcDbLine
 10
-50.1339916693
 20
13.227531766
 30
0.0
 11
-50.1303265243
 21
13.6475157736
 31
0.0
  0
LINE
  5
359
330
1F
100
AcDbEntity
  8
0
  6
Continuous
 62
     7
370
    25
100
AcDbLine
 10
-50.1118262691
 20
15.7674350505
 30
0.0
 11
-50.1081611242
 21
16.1874190582
 31
0.0
  0
LINE
  5
35A
330
1F
100
AcDbEntity
  8
0
  6
Continuous
 62
     7
370
    25
100
AcDbLine
 10
-50.1450743693
 20
11.9575801237
 30
0.0
 11
-50.1414092244
 21
12.3775641313
 31
0.0
  0
LINE
  5
35B
330
1F
100
AcDbEntity
  8
0
  6
Continuous
 62
     7
370
    25
100
AcDbLine
 10
-45.0120204615
 20
15.7229297195
 30
0.0
 11
-45.0083553166
 21
16.1429137272
 31
0.0
  0
LINE
  5
35C
330
1F
100
AcDbEntity
  8
0
  6
Continuous
 62
     7
370
    25
100
AcDbLine
 10
-45.0231031615
 20
14.4529780772
 30
0.0
 11
-45.0194380166
 21
14.8729620849
 31
0.0
  0
LINE
  5
35D
330
1F
100
AcDbEntity
  8
0
  6
Continuous
 62
     7
370
    25
100
AcDbLine
 10
-45.0341858616
 20
13.1830264349
 30
0.0
 11
-45.0305207167
 21
13.6030104426
 31
0.0
  0
LINE
  5
35E
330
1F
100
AcDbEntity
  8
0
  6
Continuous
 62
     7
370
    25
100
AcDbLine
 10
-45.0452685617
 20
11.9130747926
 30
0.0
 11
-45.0416034168
 21
12.3330588003
 31
0.0
  0
LINE
  5
35F
330
1F
100
AcDbEntity
  8
0
  6
Continuous
 62
     7
370
    25
100
AcDbLine
 10
-50.5618091345
 20
15.7713619915
 30
0.0
 11
-50.5581439896
 21
16.1913459992
 31
0.0
  0
LINE
  5
360
330
1F
100
AcDbEntity
  8
0
  6
Continuous
 62
     7
370
    25
100
AcDbLine
 10
-50.5950572347
 20
11.9615070646
 30
0.0
 11
-50.5913920898
 21
12.3814910723
 31
0.0
  0
LINE
  5
361
330
1F
100
AcDbEntity
  8
0
  6
Continuous
 62
     7
370
    25
100
AcDbLine
 10
-50.5728918346
 20
14.5014103492
 30
0.0
 11
-50.5692266896
 21
14.9213943569
 31
0.0
  0
LINE
  5
362
330
1F
100
AcDbEntity
  8
0
  6
Continuous
 62
     7
370
    25
100
AcDbLine
 10
-50.5839745346
 20
13.2314587069
 30
0.0
 11
-50.5803093897
 21
13.6514427146
 31
0.0
  0
LINE
  5
363
330
1F
100
AcDbEntity
  8
0
  6
Continuous
 62
     7
370
    25
100
AcDbLine
 10
-44.5952856963
 20
11.9091478516
 30
0.0
 11
-44.5916205514
 21
12.3291318593
 31
0.0
  0
LINE
  5
364
330
1F
100
AcDbEntity
  8
0
  6
Continuous
 62
     7
370
    25
100
AcDbLine
 10
-44.5620375961
 20
15.7190027785
 30
0.0
 11
-44.5583724512
 21
16.1389867862
 31
0.0
  0
LINE
  5
365
330
1F
100
AcDbEntity
  8
0
  6
Continuous
 62
     7
370
    25
100
AcDbLine
 10
-44.5731202962
 20
14.4490511362
 30
0.0
 11
-44.5694551513
 21
14.8690351439
 31
0.0
  0
LINE
  5
366
330
1F
100
AcDbEntity
  8
0
  6
Continuous
 62
     7
370
    25
100
AcDbLine
 10
-44.5842029962
 20
13.1790994939
 30
0.0
 11
-44.5805378513
 21
13.5990835016
 31
0.0
  0
LINE
  5
367
330
1F
100
AcDbEntity
  8
0
  6
Continuous
 62
     7
370
    25
100
AcDbLine
 10
-59.5084031529
 20
-2.8946063079
 30
0.0
 11
-59.4191844607
 21
-3.2275750001
 31
0.0
  0
LINE
  5
368
330
1F
100
AcDbEntity
  8
0
  6
Continuous
 62
     7
370
    25
100
AcDbLine
 10
-59.4191844607
 20
-3.2275750001
 30
0.0
 11
-64.2101218451
 21
-3.2275750001
 31
0.0
  0
LINE
  5
369
330
1F
100
AcDbEntity
  8
0
  6
Continuous
 62
     7
370
    25
100
AcDbLine
 10
-64.2101218451
 20
-3.2275750001
 30
0.0
 11
-64.1209031529
 21
-2.8946063079
 31
0.0
  0
LINE
  5
36A
330
1F
100
AcDbEntity
  8
0
  6
Continuous
 62
     7
370
    25
100
AcDbLine
 10
-64.1209031529
 20
-2.8946063079
 30
0.0
 11
-59.5084031529
 21
-2.8946063079
 31
0.0
  0
LINE
  5
36B
330
1F
100
AcDbEntity
  8
0
  6
Continuous
 62
     7
370
    25
100
AcDbLine
 10
-64.1209031529
 20
-2.8946063079
 30
0.0
 11
-64.1209031529
 21
0.4741436921
 31
0.0
  0
LINE
  5
36C
330
1F
100
AcDbEntity
  8
0
  6
Continuous
 62
     7
370
    25
100
AcDbLine
 10
-59.5084031529
 20
0.4741436921
 30
0.0
 11
-64.1209031529
 21
0.4741436921
 31
0.0
  0
LINE
  5
36D
330
1F
100
AcDbEntity
  8
0
  6
Continuous
 62
     7
370
    25
100
AcDbLine
 10
-59.5084031529
 20
-2.8946063079
 30
0.0
 11
-59.5084031529
 21
0.4741436921
 31
0.0
  0
LINE
  5
36E
330
1F
100
AcDbEntity
  8
0
  6
Continuous
 62
     7
370
    25
100
AcDbLine
 10
-59.5084031529
 20
0.4741436921
 30
0.0
 11
-59.3646531529
 21
0.6178936921
 31
0.0
  0
LINE
  5
36F
330
1F
100
AcDbEntity
  8
0
  6
Continuous
 62
     7
370
    25
100
AcDbLine
 10
-59.3646531529
 20
-3.2821063079
 30
0.0
 11
-59.3646531529
 21
0.6178936921
 31
0.0
  0
LINE
  5
370
330
1F
100
AcDbEntity
  8
0
  6
Continuous
 62
     7
370
    25
100
AcDbLine
 10
-59.4191844607
 20
-3.2275750001
 30
0.0
 11
-59.3646531529
 21
-3.2821063079
 31
0.0
  0
LINE
  5
371
330
1F
100
AcDbEntity
  8
0
  6
Continuous
 62
     7
370
    25
100
AcDbLine
 10
-64.2101218451
 20
-3.2275750001
 30
0.0
 11
-64.2646531529
 21
-3.2821063079
 31
0.0
  0
LINE
  5
372
330
1F
100
AcDbEntity
  8
0
  6
Continuous
 62
     7
370
    25
100
AcDbLine
 10
-64.2646531529
 20
-3.2821063079
 30
0.0
 11
-64.2646531529
 21
0.6178936921
 31
0.0
  0
LINE
  5
373
330
1F
100
AcDbEntity
  8
0
  6
Continuous
 62
     7
370
    25
100
AcDbLine
 10
-64.1209031529
 20
0.4741436921
 30
0.0
 11
-64.2646531529
 21
0.6178936921
 31
0.0
  0
LINE
  5
374
330
1F
100
AcDbEntity
  8
0
  6
Continuous
 62
     7
370
    25
100
AcDbLine
 10
-59.3646531529
 20
0.6178936921
 30
0.0
 11
-64.2646531529
 21
0.6178936921
 31
0.0
  0
LINE
  5
375
330
1F
100
AcDbEntity
  8
0
  6
Continuous
 62
     7
370
    25
100
AcDbLine
 10
-59.3646531529
 20
-3.2821063079
 30
0.0
 11
-64.2646531529
 21
-3.2821063079
 31
0.0
  0
LINE
  5
376
330
1F
100
AcDbEntity
  8
0
  6
Continuous
 62
     7
370
    25
100
AcDbLine
 10
-60.9696531529
 20
-3.2821063079
 30
0.0
 11
-60.9696531529
 21
-4.3321063079
 31
0.0
  0
LINE
  5
377
330
1F
100
AcDbEntity
  8
0
  6
Continuous
 62
     7
370
    25
100
AcDbLine
 10
-60.9696531529
 20
-3.5821063079
 30
0.0
 11
-61.3896531529
 21
-3.5821063079
 31
0.0
  0
LINE
  5
378
330
1F
100
AcDbEntity
  8
0
  6
Continuous
 62
     7
370
    25
100
AcDbLine
 10
-61.3896531529
 20
-3.2821063079
 30
0.0
 11
-61.3896531529
 21
-4.3321063079
 31
0.0
  0
LINE
  5
379
330
1F
100
AcDbEntity
  8
0
  6
Continuous
 62
     7
370
    25
100
AcDbLine
 10
-59.6996531529
 20
-3.2821063079
 30
0.0
 11
-59.6996531529
 21
-4.3321063079
 31
0.0
  0
LINE
  5
37A
330
1F
100
AcDbEntity
  8
0
  6
Continuous
 62
     7
370
    25
100
AcDbLine
 10
-59.6996531529
 20
-3.5821063079
 30
0.0
 11
-60.1196531529
 21
-3.5821063079
 31
0.0
  0
LINE
  5
37B
330
1F
100
AcDbEntity
  8
0
  6
Continuous
 62
     7
370
    25
100
AcDbLine
 10
-60.1196531529
 20
-3.2821063079
 30
0.0
 11
-60.1196531529
 21
-4.3321063079
 31
0.0
  0
LINE
  5
37C
330
1F
100
AcDbEntity
  8
0
  6
Continuous
 62
     7
370
    25
100
AcDbLine
 10
-62.2396531529
 20
-3.2821063079
 30
0.0
 11
-62.2396531529
 21
-4.3321063079
 31
0.0
  0
LINE
  5
37D
330
1F
100
AcDbEntity
  8
0
  6
Continuous
 62
     7
370
    25
100
AcDbLine
 10
-62.2396531529
 20
-3.5821063079
 30
0.0
 11
-62.6596531529
 21
-3.5821063079
 31
0.0
  0
LINE
  5
37E
330
1F
100
AcDbEntity
  8
0
  6
Continuous
 62
     7
370
    25
100
AcDbLine
 10
-62.6596531529
 20
-3.2821063079
 30
0.0
 11
-62.6596531529
 21
-4.3321063079
 31
0.0
  0
LINE
  5
37F
330
1F
100
AcDbEntity
  8
0
  6
Continuous
 62
     7
370
    25
100
AcDbLine
 10
-60.9696531529
 20
-3.8421063079
 30
0.0
 11
-61.3896531529
 21
-3.8421063079
 31
0.0
  0
LINE
  5
380
330
1F
100
AcDbEntity
  8
0
  6
Continuous
 62
     7
370
    25
100
AcDbLine
 10
-62.2396531529
 20
-3.8421063079
 30
0.0
 11
-62.6596531529
 21
-3.8421063079
 31
0.0
  0
LINE
  5
381
330
1F
100
AcDbEntity
  8
0
  6
Continuous
 62
     7
370
    25
100
AcDbLine
 10
-63.5096531529
 20
-3.8421063079
 30
0.0
 11
-63.9296531529
 21
-3.8421063079
 31
0.0
  0
LINE
  5
382
330
1F
100
AcDbEntity
  8
0
  6
Continuous
 62
     7
370
    25
100
AcDbLine
 10
-63.9296531529
 20
-3.2821063079
 30
0.0
 11
-63.9296531529
 21
-4.3321063079
 31
0.0
  0
LINE
  5
383
330
1F
100
AcDbEntity
  8
0
  6
Continuous
 62
     7
370
    25
100
AcDbLine
 10
-63.5096531529
 20
-3.5821063079
 30
0.0
 11
-63.9296531529
 21
-3.5821063079
 31
0.0
  0
LINE
  5
384
330
1F
100
AcDbEntity
  8
0
  6
Continuous
 62
     7
370
    25
100
AcDbLine
 10
-63.5096531529
 20
-3.2821063079
 30
0.0
 11
-63.5096531529
 21
-4.3321063079
 31
0.0
  0
LINE
  5
385
330
1F
100
AcDbEntity
  8
0
  6
Continuous
 62
     7
370
    25
100
AcDbLine
 10
-59.6996531529
 20
-3.8421063079
 30
0.0
 11
-60.1196531529
 21
-3.8421063079
 31
0.0
  0
LINE
  5
386
330
1F
100
AcDbEntity
  8
0
  6
Continuous
 62
     7
370
    25
100
AcDbLine
 10
-62.6596531529
 20
0.6178936921
 30
0.0
 11
-62.6596531529
 21
1.6678936921
 31
0.0
  0
LINE
  5
387
330
1F
100
AcDbEntity
  8
0
  6
Continuous
 62
     7
370
    25
100
AcDbLine
 10
-62.2396531529
 20
0.9178936921
 30
0.0
 11
-62.6596531529
 21
0.9178936921
 31
0.0
  0
LINE
  5
388
330
1F
100
AcDbEntity
  8
0
  6
Continuous
 62
     7
370
    25
100
AcDbLine
 10
-62.2396531529
 20
0.6178936921
 30
0.0
 11
-62.2396531529
 21
1.6678936921
 31
0.0
  0
LINE
  5
389
330
1F
100
AcDbEntity
  8
0
  6
Continuous
 62
     7
370
    25
100
AcDbLine
 10
-60.9696531529
 20
0.9178936921
 30
0.0
 11
-61.3896531529
 21
0.9178936921
 31
0.0
  0
LINE
  5
38A
330
1F
100
AcDbEntity
  8
0
  6
Continuous
 62
     7
370
    25
100
AcDbLine
 10
-60.9696531529
 20
0.6178936921
 30
0.0
 11
-60.9696531529
 21
1.6678936921
 31
0.0
  0
LINE
  5
38B
330
1F
100
AcDbEntity
  8
0
  6
Continuous
 62
     7
370
    25
100
AcDbLine
 10
-61.3896531529
 20
0.6178936921
 30
0.0
 11
-61.3896531529
 21
1.6678936921
 31
0.0
  0
LINE
  5
38C
330
1F
100
AcDbEntity
  8
0
  6
Continuous
 62
     7
370
    25
100
AcDbLine
 10
-59.6996531529
 20
0.9178936921
 30
0.0
 11
-60.1196531529
 21
0.9178936921
 31
0.0
  0
LINE
  5
38D
330
1F
100
AcDbEntity
  8
0
  6
Continuous
 62
     7
370
    25
100
AcDbLine
 10
-60.1196531529
 20
0.6178936921
 30
0.0
 11
-60.1196531529
 21
1.6678936921
 31
0.0
  0
LINE
  5
38E
330
1F
100
AcDbEntity
  8
0
  6
Continuous
 62
     7
370
    25
100
AcDbLine
 10
-59.6996531529
 20
0.6178936921
 30
0.0
 11
-59.6996531529
 21
1.6678936921
 31
0.0
  0
LINE
  5
38F
330
1F
100
AcDbEntity
  8
0
  6
Continuous
 62
     7
370
    25
100
AcDbLine
 10
-63.5096531529
 20
0.9178936921
 30
0.0
 11
-63.9296531529
 21
0.9178936921
 31
0.0
  0
LINE
  5
390
330
1F
100
AcDbEntity
  8
0
  6
Continuous
 62
     7
370
    25
100
AcDbLine
 10
-63.5096531529
 20
0.6178936921
 30
0.0
 11
-63.5096531529
 21
1.6678936921
 31
0.0
  0
LINE
  5
391
330
1F
100
AcDbEntity
  8
0
  6
Continuous
 62
     7
370
    25
100
AcDbLine
 10
-63.9296531529
 20
0.6178936921
 30
0.0
 11
-63.9296531529
 21
1.6678936921
 31
0.0
  0
LINE
  5
392
330
1F
100
AcDbEntity
  8
0
  6
Continuous
 62
     7
370
    25
100
AcDbLine
 10
-63.5096531529
 20
1.1778936921
 30
0.0
 11
-63.9296531529
 21
1.1778936921
 31
0.0
  0
LINE
  5
393
330
1F
100
AcDbEntity
  8
0
  6
Continuous
 62
     7
370
    25
100
AcDbLine
 10
-62.2396531529
 20
1.1778936921
 30
0.0
 11
-62.6596531529
 21
1.1778936921
 31
0.0
  0
LINE
  5
394
330
1F
100
AcDbEntity
  8
0
  6
Continuous
 62
     7
370
    25
100
AcDbLine
 10
-60.9696531529
 20
1.1778936921
 30
0.0
 11
-61.3896531529
 21
1.1778936921
 31
0.0
  0
LINE
  5
395
330
1F
100
AcDbEntity
  8
0
  6
Continuous
 62
     7
370
    25
100
AcDbLine
 10
-59.6996531529
 20
1.1778936921
 30
0.0
 11
-60.1196531529
 21
1.1778936921
 31
0.0
  0
LINE
  5
396
330
1F
100
AcDbEntity
  8
0
  6
Continuous
 62
     7
370
    25
100
AcDbLine
 10
-59.6996531529
 20
-3.8821063079
 30
0.0
 11
-60.1196531529
 21
-3.8821063079
 31
0.0
  0
LINE
  5
397
330
1F
100
AcDbEntity
  8
0
  6
Continuous
 62
     7
370
    25
100
AcDbLine
 10
-60.9696531529
 20
-3.8821063079
 30
0.0
 11
-61.3896531529
 21
-3.8821063079
 31
0.0
  0
LINE
  5
398
330
1F
100
AcDbEntity
  8
0
  6
Continuous
 62
     7
370
    25
100
AcDbLine
 10
-62.2396531529
 20
-3.8821063079
 30
0.0
 11
-62.6596531529
 21
-3.8821063079
 31
0.0
  0
LINE
  5
399
330
1F
100
AcDbEntity
  8
0
  6
Continuous
 62
     7
370
    25
100
AcDbLine
 10
-63.5096531529
 20
-3.8821063079
 30
0.0
 11
-63.9296531529
 21
-3.8821063079
 31
0.0
  0
LINE
  5
39A
330
1F
100
AcDbEntity
  8
0
  6
Continuous
 62
     7
370
    25
100
AcDbLine
 10
-59.6996531529
 20
1.2178936921
 30
0.0
 11
-60.1196531529
 21
1.2178936921
 31
0.0
  0
LINE
  5
39B
330
1F
100
AcDbEntity
  8
0
  6
Continuous
 62
     7
370
    25
100
AcDbLine
 10
-62.2396531529
 20
1.2178936921
 30
0.0
 11
-62.6596531529
 21
1.2178936921
 31
0.0
  0
LINE
  5
39C
330
1F
100
AcDbEntity
  8
0
  6
Continuous
 62
     7
370
    25
100
AcDbLine
 10
-63.5096531529
 20
1.2178936921
 30
0.0
 11
-63.9296531529
 21
1.2178936921
 31
0.0
  0
LINE
  5
39D
330
1F
100
AcDbEntity
  8
0
  6
Continuous
 62
     7
370
    25
100
AcDbLine
 10
-60.9696531529
 20
1.2178936921
 30
0.0
 11
-61.3896531529
 21
1.2178936921
 31
0.0
  0
LINE
  5
39E
330
1F
100
AcDbEntity
  8
0
  6
Continuous
 62
     7
370
    25
100
AcDbLine
 10
-63.5096531529
 20
-4.3321063079
 30
0.0
 11
-63.9296531529
 21
-4.3321063079
 31
0.0
  0
LINE
  5
39F
330
1F
100
AcDbEntity
  8
0
  6
Continuous
 62
     7
370
    25
100
AcDbLine
 10
-59.6996531529
 20
-4.3321063079
 30
0.0
 11
-60.1196531529
 21
-4.3321063079
 31
0.0
  0
LINE
  5
3A0
330
1F
100
AcDbEntity
  8
0
  6
Continuous
 62
     7
370
    25
100
AcDbLine
 10
-62.2396531529
 20
-4.3321063079
 30
0.0
 11
-62.6596531529
 21
-4.3321063079
 31
0.0
  0
LINE
  5
3A1
330
1F
100
AcDbEntity
  8
0
  6
Continuous
 62
     7
370
    25
100
AcDbLine
 10
-60.9696531529
 20
-4.3321063079
 30
0.0
 11
-61.3896531529
 21
-4.3321063079
 31
0.0
  0
LINE
  5
3A2
330
1F
100
AcDbEntity
  8
0
  6
Continuous
 62
     7
370
    25
100
AcDbLine
 10
-63.5096531529
 20
1.6678936921
 30
0.0
 11
-63.9296531529
 21
1.6678936921
 31
0.0
  0
LINE
  5
3A3
330
1F
100
AcDbEntity
  8
0
  6
Continuous
 62
     7
370
    25
100
AcDbLine
 10
-62.2396531529
 20
1.6678936921
 30
0.0
 11
-62.6596531529
 21
1.6678936921
 31
0.0
  0
LINE
  5
3A4
330
1F
100
AcDbEntity
  8
0
  6
Continuous
 62
     7
370
    25
100
AcDbLine
 10
-59.6996531529
 20
1.6678936921
 30
0.0
 11
-60.1196531529
 21
1.6678936921
 31
0.0
  0
LINE
  5
3A5
330
1F
100
AcDbEntity
  8
0
  6
Continuous
 62
     7
370
    25
100
AcDbLine
 10
-60.9696531529
 20
1.6678936921
 30
0.0
 11
-61.3896531529
 21
1.6678936921
 31
0.0
  0
LINE
  5
3A6
330
1F
100
AcDbEntity
  8
0
  6
Continuous
 62
     7
370
    25
100
AcDbLine
 10
-71.9689833748
 20
-14.2518676265
 30
0.0
 11
-63.8937776759
 21
-14.2518676265
 31
0.0
  0
LINE
  5
3A7
330
1F
100
AcDbEntity
  8
0
  6
Continuous
 62
     7
370
    25
100
AcDbLine
 10
-62.8937776759
 20
-14.2518676265
 30
0.0
 11
-55.0937776759
 21
-14.2518676265
 31
0.0
  0
LINE
  5
3A8
330
1F
100
AcDbEntity
  8
0
  6
Continuous
 62
     7
370
    25
100
AcDbLine
 10
-54.0937776759
 20
-14.2518676265
 30
0.0
 11
-31.9689833748
 21
-14.2518676265
 31
0.0
  0
LINE
  5
3A9
330
1F
100
AcDbEntity
  8
0
  6
Continuous
 62
     7
370
    25
100
AcDbLine
 10
-31.9689833748
 20
17.7481323735
 30
0.0
 11
-71.9689833748
 21
17.7481323735
 31
0.0
  0
LINE
  5
3AA
330
1F
100
AcDbEntity
  8
0
  6
Continuous
 62
     7
370
    25
100
AcDbLine
 10
-30.9689833748
 20
-13.2518676265
 30
0.0
 11
-30.9689833748
 21
-6.8718388483
 31
0.0
  0
LINE
  5
3AB
330
1F
100
AcDbEntity
  8
0
  6
Continuous
 62
     7
370
    25
100
AcDbLine
 10
-30.9689833748
 20
6.1281611533
 30
0.0
 11
-30.9689833748
 21
16.7481323735
 31
0.0
  0
LINE
  5
3AC
330
1F
100
AcDbEntity
  8
0
  6
Continuous
 62
     7
370
    25
100
AcDbLine
 10
-72.9689833748
 20
16.7481323735
 30
0.0
 11
-72.9689833748
 21
9.3681323735
 31
0.0
  0
LINE
  5
3AD
330
1F
100
AcDbEntity
  8
0
  6
Continuous
 62
     7
370
    25
100
AcDbLine
 10
-72.9689833748
 20
-5.8718676265
 30
0.0
 11
-72.9689833748
 21
-13.2518676265
 31
0.0
  0
LINE
  5
3AE
330
1F
100
AcDbEntity
  8
0
  6
Continuous
 62
     7
370
    25
100
AcDbLine
 10
-15.7290625179
 20
0.5784048094
 30
0.0
 11
-15.7290633173
 21
0.6284048094
 31
0.0
  0
LINE
  5
3AF
330
1F
100
AcDbEntity
  8
0
  6
Continuous
 62
     7
370
    25
100
AcDbLine
 10
-15.7290321406
 20
-1.3215951904
 30
0.0
 11
-15.7290313412
 21
-1.3715951904
 31
0.0
  0
LINE
  5
3B0
330
1F
100
AcDbEntity
  8
0
  6
Continuous
 62
     7
370
    25
100
AcDbLine
 10
-11.9291244721
 20
4.4534655635
 30
0.0
 11
-23.8291244706
 21
4.4532753056
 31
0.0
  0
LINE
  5
3B1
330
1F
100
AcDbEntity
  8
0
  6
Continuous
 62
     7
370
    25
100
AcDbLine
 10
-11.9289701873
 20
-5.1965344353
 30
0.0
 11
-11.9291244721
 21
4.4534655635
 31
0.0
  0
LINE
  5
3B2
330
1F
100
AcDbEntity
  8
0
  6
Continuous
 62
     7
370
    25
100
AcDbLine
 10
-11.9289701873
 20
-5.1965344353
 30
0.0
 11
-23.8289701858
 21
-5.1967246932
 31
0.0
  0
LINE
  5
3B3
330
1F
100
AcDbEntity
  8
0
  6
Continuous
 62
     7
370
    25
100
AcDbLine
 10
-11.769121914
 20
4.2934681216
 30
0.0
 11
-11.9291244721
 21
4.4534655635
 31
0.0
  0
LINE
  5
3B4
330
1F
100
AcDbEntity
  8
0
  6
Continuous
 62
     7
370
    25
100
AcDbLine
 10
-11.7689727454
 20
-5.0365318772
 30
0.0
 11
-11.769121914
 21
4.2934681216
 31
0.0
  0
LINE
  5
3B5
330
1F
100
AcDbEntity
  8
0
  6
Continuous
 62
     7
370
    25
100
AcDbLine
 10
-11.7689727454
 20
-5.0365318772
 30
0.0
 11
-11.9289701873
 21
-5.1965344353
 31
0.0
  0
LINE
  5
3B6
330
1F
100
AcDbEntity
  8
0
  6
Continuous
 62
     7
370
    25
100
AcDbLine
 10
-62.8662204566
 20
-9.6286244004
 30
0.0
 11
-62.8662204566
 21
-11.885187459
 31
0.0
  0
LINE
  5
3B7
330
1F
100
AcDbEntity
  8
0
  6
Continuous
 62
     7
370
    25
100
AcDbLine
 10
-62.4213348953
 20
-11.885187459
 30
0.0
 11
-62.4213348953
 21
-9.6286244004
 31
0.0
  0
LINE
  5
3B8
330
1F
100
AcDbEntity
  8
0
  6
Continuous
 62
     7
370
    25
100
AcDbLine
 10
-41.1459594632
 20
-11.5345736199
 30
0.0
 11
-41.1459594632
 21
-13.7911366785
 31
0.0
  0
LINE
  5
3B9
330
1F
100
AcDbEntity
  8
0
  6
Continuous
 62
     7
370
    25
100
AcDbLine
 10
-40.701073902
 20
-13.7911366785
 30
0.0
 11
-40.701073902
 21
-11.5345736199
 31
0.0
  0
LINE
  5
3BA
330
1F
100
AcDbEntity
  8
0
  6
Continuous
 62
     7
370
    25
100
AcDbLine
 10
-45.0488258226
 20
2.921527504
 30
0.0
 11
-45.1076186168
 21
-0.4467094191
 31
0.0
  0
LINE
  5
3BB
330
1F
100
AcDbEntity
  8
0
  6
Continuous
 62
     7
370
    25
100
AcDbLine
 10
-49.7194161107
 20
-0.3662101944
 30
0.0
 11
-45.1076186168
 21
-0.4467094191
 31
0.0
  0
LINE
  5
3BC
330
1F
100
AcDbEntity
  8
0
  6
Continuous
 62
     7
370
    25
100
AcDbLine
 10
-49.6606233165
 20
3.0020267287
 30
0.0
 11
-49.7194161107
 21
-0.3662101944
 31
0.0
  0
LINE
  5
3BD
330
1F
100
AcDbEntity
  8
0
  6
Continuous
 62
     7
370
    25
100
AcDbLine
 10
-45.0488258226
 20
2.921527504
 30
0.0
 11
-49.6606233165
 21
3.0020267287
 31
0.0
  0
LINE
  5
3BE
330
1F
100
AcDbEntity
  8
0
  6
Continuous
 62
     7
370
    25
100
AcDbLine
 10
-44.9538096139
 20
3.2528884026
 30
0.0
 11
-44.8983349089
 21
3.3064597025
 31
0.0
  0
LINE
  5
3BF
330
1F
100
AcDbEntity
  8
0
  6
Continuous
 62
     7
370
    25
100
AcDbLine
 10
-44.8983349089
 20
3.3064597025
 30
0.0
 11
-44.9663992941
 21
-0.5929463087
 31
0.0
  0
LINE
  5
3C0
330
1F
100
AcDbEntity
  8
0
  6
Continuous
 62
     7
370
    25
100
AcDbLine
 10
-45.1076186168
 20
-0.4467094191
 30
0.0
 11
-44.9663992941
 21
-0.5929463087
 31
0.0
  0
LINE
  5
3C1
330
1F
100
AcDbEntity
  8
0
  6
Continuous
 62
     7
370
    25
100
AcDbLine
 10
-44.9538096139
 20
3.2528884026
 30
0.0
 11
-45.0488258226
 21
2.921527504
 31
0.0
  0
LINE
  5
3C2
330
1F
100
AcDbEntity
  8
0
  6
Continuous
 62
     7
370
    25
100
AcDbLine
 10
-49.7194161107
 20
-0.3662101944
 30
0.0
 11
-49.8656530003
 21
-0.5074295171
 31
0.0
  0
LINE
  5
3C3
330
1F
100
AcDbEntity
  8
0
  6
Continuous
 62
     7
370
    25
100
AcDbLine
 10
-49.7975886152
 20
3.391976494
 30
0.0
 11
-49.8656530003
 21
-0.5074295171
 31
0.0
  0
LINE
  5
3C4
330
1F
100
AcDbEntity
  8
0
  6
Continuous
 62
     7
370
    25
100
AcDbLine
 10
-49.7440173153
 20
3.336501789
 30
0.0
 11
-49.7975886152
 21
3.391976494
 31
0.0
  0
LINE
  5
3C5
330
1F
100
AcDbEntity
  8
0
  6
Continuous
 62
     7
370
    25
100
AcDbLine
 10
-49.6606233165
 20
3.0020267287
 30
0.0
 11
-49.7440173153
 21
3.336501789
 31
0.0
  0
LINE
  5
3C6
330
1F
100
AcDbEntity
  8
0
  6
Continuous
 62
     7
370
    25
100
AcDbLine
 10
-49.7440173153
 20
3.336501789
 30
0.0
 11
-44.9538096139
 21
3.2528884026
 31
0.0
  0
LINE
  5
3C7
330
1F
100
AcDbEntity
  8
0
  6
Continuous
 62
     7
370
    25
100
AcDbLine
 10
-49.8656530003
 20
-0.5074295171
 30
0.0
 11
-44.9663992941
 21
-0.5929463087
 31
0.0
  0
LINE
  5
3C8
330
1F
100
AcDbEntity
  8
0
  6
Continuous
 62
     7
370
    25
100
AcDbLine
 10
-49.7975886152
 20
3.391976494
 30
0.0
 11
-44.8983349089
 21
3.3064597025
 31
0.0
  0
LINE
  5
3C9
330
1F
100
AcDbEntity
  8
0
  6
Continuous
 62
     7
370
    25
100
AcDbLine
 10
-49.4626396373
 20
3.3861299378
 30
0.0
 11
-49.4443146106
 21
4.4359700178
 31
0.0
  0
LINE
  5
3CA
330
1F
100
AcDbEntity
  8
0
  6
Continuous
 62
     7
370
    25
100
AcDbLine
 10
-49.4528662897
 20
3.9460446471
 30
0.0
 11
-49.0329302578
 21
3.9387146364
 31
0.0
  0
LINE
  5
3CB
330
1F
100
AcDbEntity
  8
0
  6
Continuous
 62
     7
370
    25
100
AcDbLine
 10
-49.4574039154
 20
3.6860842464
 30
0.0
 11
-49.0374678834
 21
3.6787542357
 31
0.0
  0
LINE
  5
3CC
330
1F
100
AcDbEntity
  8
0
  6
Continuous
 62
     7
370
    25
100
AcDbLine
 10
-49.0427036054
 20
3.3787999271
 30
0.0
 11
-49.0243785786
 21
4.428640007
 31
0.0
  0
LINE
  5
3CD
330
1F
100
AcDbEntity
  8
0
  6
Continuous
 62
     7
370
    25
100
AcDbLine
 10
-45.6532199188
 20
3.3196362693
 30
0.0
 11
-45.634894892
 21
4.3694763492
 31
0.0
  0
LINE
  5
3CE
330
1F
100
AcDbEntity
  8
0
  6
Continuous
 62
     7
370
    25
100
AcDbLine
 10
-45.6434465712
 20
3.8795509786
 30
0.0
 11
-45.2235105392
 21
3.8722209679
 31
0.0
  0
LINE
  5
3CF
330
1F
100
AcDbEntity
  8
0
  6
Continuous
 62
     7
370
    25
100
AcDbLine
 10
-45.6479841969
 20
3.6195905779
 30
0.0
 11
-45.2280481649
 21
3.6122605672
 31
0.0
  0
LINE
  5
3D0
330
1F
100
AcDbEntity
  8
0
  6
Continuous
 62
     7
370
    25
100
AcDbLine
 10
-45.2332838868
 20
3.3123062586
 30
0.0
 11
-45.2149588601
 21
4.3621463385
 31
0.0
  0
LINE
  5
3D1
330
1F
100
AcDbEntity
  8
0
  6
Continuous
 62
     7
370
    25
100
AcDbLine
 10
-46.9177907697
 20
3.641755134
 30
0.0
 11
-46.4978547377
 21
3.6344251233
 31
0.0
  0
LINE
  5
3D2
330
1F
100
AcDbEntity
  8
0
  6
Continuous
 62
     7
370
    25
100
AcDbLine
 10
-46.5030904597
 20
3.3344708148
 30
0.0
 11
-46.4847654329
 21
4.3843108947
 31
0.0
  0
LINE
  5
3D3
330
1F
100
AcDbEntity
  8
0
  6
Continuous
 62
     7
370
    25
100
AcDbLine
 10
-46.9230264916
 20
3.3418008255
 30
0.0
 11
-46.9047014649
 21
4.3916409054
 31
0.0
  0
LINE
  5
3D4
330
1F
100
AcDbEntity
  8
0
  6
Continuous
 62
     7
370
    25
100
AcDbLine
 10
-48.1928330645
 20
3.3639653817
 30
0.0
 11
-48.1745080377
 21
4.4138054616
 31
0.0
  0
LINE
  5
3D5
330
1F
100
AcDbEntity
  8
0
  6
Continuous
 62
     7
370
    25
100
AcDbLine
 10
-48.1875973426
 20
3.6639196902
 30
0.0
 11
-47.7676613106
 21
3.6565896795
 31
0.0
  0
LINE
  5
3D6
330
1F
100
AcDbEntity
  8
0
  6
Continuous
 62
     7
370
    25
100
AcDbLine
 10
-47.7728970325
 20
3.356635371
 30
0.0
 11
-47.7545720058
 21
4.4064754509
 31
0.0
  0
LINE
  5
3D7
330
1F
100
AcDbEntity
  8
0
  6
Continuous
 62
     7
370
    25
100
AcDbLine
 10
-48.1830597169
 20
3.923880091
 30
0.0
 11
-47.7631236849
 21
3.9165500802
 31
0.0
  0
LINE
  5
3D8
330
1F
100
AcDbEntity
  8
0
  6
Continuous
 62
     7
370
    25
100
AcDbLine
 10
-46.913253144
 20
3.9017155348
 30
0.0
 11
-46.4933171121
 21
3.8943855241
 31
0.0
  0
LINE
  5
3D9
330
1F
100
AcDbEntity
  8
0
  6
Continuous
 62
     7
370
    25
100
AcDbLine
 10
-45.3013482719
 20
-0.5870997525
 30
0.0
 11
-45.3196732987
 21
-1.6369398324
 31
0.0
  0
LINE
  5
3DA
330
1F
100
AcDbEntity
  8
0
  6
Continuous
 62
     7
370
    25
100
AcDbLine
 10
-45.7265200258
 20
-0.8797240503
 30
0.0
 11
-45.3065839939
 21
-0.887054061
 31
0.0
  0
LINE
  5
3DB
330
1F
100
AcDbEntity
  8
0
  6
Continuous
 62
     7
370
    25
100
AcDbLine
 10
-45.7212843039
 20
-0.5797697418
 30
0.0
 11
-45.7396093307
 21
-1.6296098217
 31
0.0
  0
LINE
  5
3DC
330
1F
100
AcDbEntity
  8
0
  6
Continuous
 62
     7
370
    25
100
AcDbLine
 10
-46.9963265987
 20
-0.8575594942
 30
0.0
 11
-46.5763905667
 21
-0.8648895049
 31
0.0
  0
LINE
  5
3DD
330
1F
100
AcDbEntity
  8
0
  6
Continuous
 62
     7
370
    25
100
AcDbLine
 10
-46.9910908767
 20
-0.5576051856
 30
0.0
 11
-47.0094159035
 21
-1.6074452655
 31
0.0
  0
LINE
  5
3DE
330
1F
100
AcDbEntity
  8
0
  6
Continuous
 62
     7
370
    25
100
AcDbLine
 10
-46.5711548448
 20
-0.5649351963
 30
0.0
 11
-46.5894798715
 21
-1.6147752762
 31
0.0
  0
LINE
  5
3DF
330
1F
100
AcDbEntity
  8
0
  6
Continuous
 62
     7
370
    25
100
AcDbLine
 10
-48.2661331715
 20
-0.835394938
 30
0.0
 11
-47.8461971396
 21
-0.8427249487
 31
0.0
  0
LINE
  5
3E0
330
1F
100
AcDbEntity
  8
0
  6
Continuous
 62
     7
370
    25
100
AcDbLine
 10
-48.2608974496
 20
-0.5354406294
 30
0.0
 11
-48.2792224764
 21
-1.5852807094
 31
0.0
  0
LINE
  5
3E1
330
1F
100
AcDbEntity
  8
0
  6
Continuous
 62
     7
370
    25
100
AcDbLine
 10
-47.8409614176
 20
-0.5427706402
 30
0.0
 11
-47.8592864444
 21
-1.5926107201
 31
0.0
  0
LINE
  5
3E2
330
1F
100
AcDbEntity
  8
0
  6
Continuous
 62
     7
370
    25
100
AcDbLine
 10
-49.1107679905
 20
-0.520606084
 30
0.0
 11
-49.1290930172
 21
-1.5704461639
 31
0.0
  0
LINE
  5
3E3
330
1F
100
AcDbEntity
  8
0
  6
Continuous
 62
     7
370
    25
100
AcDbLine
 10
-49.5359397444
 20
-0.8132303818
 30
0.0
 11
-49.1160037124
 21
-0.8205603925
 31
0.0
  0
LINE
  5
3E4
330
1F
100
AcDbEntity
  8
0
  6
Continuous
 62
     7
370
    25
100
AcDbLine
 10
-49.5307040224
 20
-0.5132760733
 30
0.0
 11
-49.5490290492
 21
-1.5631161532
 31
0.0
  0
LINE
  5
3E5
330
1F
100
AcDbEntity
  8
0
  6
Continuous
 62
     7
370
    25
100
AcDbLine
 10
-45.7310576515
 20
-1.1396844511
 30
0.0
 11
-45.3111216195
 21
-1.1470144618
 31
0.0
  0
LINE
  5
3E6
330
1F
100
AcDbEntity
  8
0
  6
Continuous
 62
     7
370
    25
100
AcDbLine
 10
-47.0008642244
 20
-1.1175198949
 30
0.0
 11
-46.5809281924
 21
-1.1248499056
 31
0.0
  0
LINE
  5
3E7
330
1F
100
AcDbEntity
  8
0
  6
Continuous
 62
     7
370
    25
100
AcDbLine
 10
-49.54047737
 20
-1.0731907826
 30
0.0
 11
-49.1205413381
 21
-1.0805207933
 31
0.0
  0
LINE
  5
3E8
330
1F
100
AcDbEntity
  8
0
  6
Continuous
 62
     7
370
    25
100
AcDbLine
 10
-48.2706707972
 20
-1.0953553387
 30
0.0
 11
-47.8507347652
 21
-1.1026853494
 31
0.0
  0
LINE
  5
3E9
330
1F
100
AcDbEntity
  8
0
  6
Continuous
 62
     7
370
    25
100
AcDbLine
 10
-46.9125550478
 20
3.9417094426
 30
0.0
 11
-46.4926190158
 21
3.9343794319
 31
0.0
  0
LINE
  5
3EA
330
1F
100
AcDbEntity
  8
0
  6
Continuous
 62
     7
370
    25
100
AcDbLine
 10
-49.4521681935
 20
3.9860385549
 30
0.0
 11
-49.0322321615
 21
3.9787085442
 31
0.0
  0
LINE
  5
3EB
330
1F
100
AcDbEntity
  8
0
  6
Continuous
 62
     7
370
    25
100
AcDbLine
 10
-48.1823616206
 20
3.9638739988
 30
0.0
 11
-47.7624255887
 21
3.9565439881
 31
0.0
  0
LINE
  5
3EC
330
1F
100
AcDbEntity
  8
0
  6
Continuous
 62
     7
370
    25
100
AcDbLine
 10
-45.6427484749
 20
3.9195448864
 30
0.0
 11
-45.222812443
 21
3.9122148757
 31
0.0
  0
LINE
  5
3ED
330
1F
100
AcDbEntity
  8
0
  6
Continuous
 62
     7
370
    25
100
AcDbLine
 10
-47.0015623206
 20
-1.1575138027
 30
0.0
 11
-46.5816262886
 21
-1.1648438134
 31
0.0
  0
LINE
  5
3EE
330
1F
100
AcDbEntity
  8
0
  6
Continuous
 62
     7
370
    25
100
AcDbLine
 10
-45.7317557478
 20
-1.1796783589
 30
0.0
 11
-45.3118197158
 21
-1.1870083696
 31
0.0
  0
LINE
  5
3EF
330
1F
100
AcDbEntity
  8
0
  6
Continuous
 62
     7
370
    25
100
AcDbLine
 10
-48.2713688935
 20
-1.1353492465
 30
0.0
 11
-47.8514328615
 21
-1.1426792572
 31
0.0
  0
LINE
  5
3F0
330
1F
100
AcDbEntity
  8
0
  6
Continuous
 62
     7
370
    25
100
AcDbLine
 10
-49.5411754663
 20
-1.1131846904
 30
0.0
 11
-49.1212394343
 21
-1.1205147011
 31
0.0
  0
LINE
  5
3F1
330
1F
100
AcDbEntity
  8
0
  6
Continuous
 62
     7
370
    25
100
AcDbLine
 10
-48.1745080377
 20
4.4138054616
 30
0.0
 11
-47.7545720058
 21
4.4064754509
 31
0.0
  0
LINE
  5
3F2
330
1F
100
AcDbEntity
  8
0
  6
Continuous
 62
     7
370
    25
100
AcDbLine
 10
-46.9047014649
 20
4.3916409054
 30
0.0
 11
-46.4847654329
 21
4.3843108947
 31
0.0
  0
LINE
  5
3F3
330
1F
100
AcDbEntity
  8
0
  6
Continuous
 62
     7
370
    25
100
AcDbLine
 10
-45.634894892
 20
4.3694763492
 30
0.0
 11
-45.2149588601
 21
4.3621463385
 31
0.0
  0
LINE
  5
3F4
330
1F
100
AcDbEntity
  8
0
  6
Continuous
 62
     7
370
    25
100
AcDbLine
 10
-49.4443146106
 20
4.4359700178
 30
0.0
 11
-49.0243785786
 21
4.428640007
 31
0.0
  0
LINE
  5
3F5
330
1F
100
AcDbEntity
  8
0
  6
Continuous
 62
     7
370
    25
100
AcDbLine
 10
-47.0094159035
 20
-1.6074452655
 30
0.0
 11
-46.5894798715
 21
-1.6147752762
 31
0.0
  0
LINE
  5
3F6
330
1F
100
AcDbEntity
  8
0
  6
Continuous
 62
     7
370
    25
100
AcDbLine
 10
-45.7396093307
 20
-1.6296098217
 30
0.0
 11
-45.3196732987
 21
-1.6369398324
 31
0.0
  0
LINE
  5
3F7
330
1F
100
AcDbEntity
  8
0
  6
Continuous
 62
     7
370
    25
100
AcDbLine
 10
-48.2792224764
 20
-1.5852807094
 30
0.0
 11
-47.8592864444
 21
-1.5926107201
 31
0.0
  0
LINE
  5
3F8
330
1F
100
AcDbEntity
  8
0
  6
Continuous
 62
     7
370
    25
100
AcDbLine
 10
-49.5490290492
 20
-1.5631161532
 30
0.0
 11
-49.1290930172
 21
-1.5704461639
 31
0.0
  0
LINE
  5
3F9
330
1F
100
AcDbEntity
  8
0
  6
Continuous
 62
     7
370
    25
100
AcDbLine
 10
-72.2289833748
 20
7.7781323735
 30
0.0
 11
-72.2289833748
 21
8.4181323735
 31
0.0
  0
LINE
  5
3FA
330
1F
100
AcDbEntity
  8
0
  6
Continuous
 62
     7
370
    25
100
AcDbLine
 10
-80.7089833748
 20
7.7781323735
 30
0.0
 11
-71.4789833748
 21
7.7781323735
 31
0.0
  0
LINE
  5
3FB
330
1F
100
AcDbEntity
  8
0
  6
Continuous
 62
     7
370
    25
100
AcDbLine
 10
-80.7089833748
 20
8.4181323735
 30
0.0
 11
-80.7089833748
 21
7.7781323735
 31
0.0
  0
LINE
  5
3FC
330
1F
100
AcDbEntity
  8
0
  6
Continuous
 62
     7
370
    25
100
AcDbLine
 10
-71.4789833748
 20
8.4181323735
 30
0.0
 11
-80.7089833748
 21
8.4181323735
 31
0.0
  0
LINE
  5
3FD
330
1F
100
AcDbEntity
  8
0
  6
Continuous
 62
     7
370
    25
100
AcDbLine
 10
-71.4789833748
 20
8.4181323735
 30
0.0
 11
-71.4789833748
 21
7.7781323735
 31
0.0
  0
LINE
  5
3FE
330
1F
100
AcDbEntity
  8
0
  6
Continuous
 62
     7
370
    25
100
AcDbLine
 10
-80.9789833748
 20
7.8781323735
 30
0.0
 11
-80.9789833748
 21
8.3181323735
 31
0.0
  0
LINE
  5
3FF
330
1F
100
AcDbEntity
  8
0
  6
Continuous
 62
     7
370
    25
100
AcDbLine
 10
-80.9789833748
 20
7.8781323735
 30
0.0
 11
-80.7089833748
 21
7.7781323735
 31
0.0
  0
LINE
  5
400
330
1F
100
AcDbEntity
  8
0
  6
Continuous
 62
     7
370
    25
100
AcDbLine
 10
-80.9789833748
 20
8.3181323735
 30
0.0
 11
-80.7089833748
 21
8.4181323735
 31
0.0
  0
LINE
  5
401
330
1F
100
AcDbEntity
  8
0
  6
Continuous
 62
     7
370
    25
100
AcDbLine
 10
-63.8937776759
 20
-14.5069059297
 30
0.0
 11
-62.8937776759
 21
-14.5069059297
 31
0.0
  0
LINE
  5
402
330
1F
100
AcDbEntity
  8
0
  6
Continuous
 62
     7
370
    25
100
AcDbLine
 10
-63.8937776759
 20
-14.5069059297
 30
0.0
 11
-63.8937776759
 21
-9.5069059297
 31
0.0
  0
LINE
  5
403
330
1F
100
AcDbEntity
  8
0
  6
Continuous
 62
     7
370
    25
100
AcDbLine
 10
-63.8937776759
 20
-9.5069059297
 30
0.0
 11
-54.0937776759
 21
-9.5069059297
 31
0.0
  0
LINE
  5
404
330
1F
100
AcDbEntity
  8
0
  6
Continuous
 62
     7
370
    25
100
AcDbLine
 10
-54.0937776759
 20
-14.5069059297
 30
0.0
 11
-54.0937776759
 21
-9.5069059297
 31
0.0
  0
LINE
  5
405
330
1F
100
AcDbEntity
  8
0
  6
Continuous
 62
     7
370
    25
100
AcDbLine
 10
-55.0937776759
 20
-14.5069059297
 30
0.0
 11
-54.0937776759
 21
-14.5069059297
 31
0.0
  0
LINE
  5
406
330
1F
100
AcDbEntity
  8
0
  6
Continuous
 62
     7
370
    25
100
AcDbLine
 10
-55.0937776759
 20
-14.0069059297
 30
0.0
 11
-55.0937776759
 21
-14.5069059297
 31
0.0
  0
LINE
  5
407
330
1F
100
AcDbEntity
  8
0
  6
Continuous
 62
     7
370
    25
100
AcDbLine
 10
-55.0937776759
 20
-14.0069059297
 30
0.0
 11
-62.8937776759
 21
-14.0069059297
 31
0.0
  0
LINE
  5
408
330
1F
100
AcDbEntity
  8
0
  6
Continuous
 62
     7
370
    25
100
AcDbLine
 10
-62.8937776759
 20
-14.0069059297
 30
0.0
 11
-62.8937776759
 21
-14.5069059297
 31
0.0
  0
LINE
  5
409
330
1F
100
AcDbEntity
  8
0
  6
Continuous
 62
     7
370
    25
100
AcDbLine
 10
-39.6735166826
 20
-8.9128551492
 30
0.0
 11
-40.6735166826
 21
-8.9128551492
 31
0.0
  0
LINE
  5
40A
330
1F
100
AcDbEntity
  8
0
  6
Continuous
 62
     7
370
    25
100
AcDbLine
 10
-39.6735166826
 20
-8.9128551492
 30
0.0
 11
-39.6735166826
 21
-13.9128551492
 31
0.0
  0
LINE
  5
40B
330
1F
100
AcDbEntity
  8
0
  6
Continuous
 62
     7
370
    25
100
AcDbLine
 10
-39.6735166826
 20
-13.9128551492
 30
0.0
 11
-49.4735166826
 21
-13.9128551492
 31
0.0
  0
LINE
  5
40C
330
1F
100
AcDbEntity
  8
0
  6
Continuous
 62
     7
370
    25
100
AcDbLine
 10
-49.4735166826
 20
-8.9128551492
 30
0.0
 11
-49.4735166826
 21
-13.9128551492
 31
0.0
  0
LINE
  5
40D
330
1F
100
AcDbEntity
  8
0
  6
Continuous
 62
     7
370
    25
100
AcDbLine
 10
-48.4735166826
 20
-8.9128551492
 30
0.0
 11
-49.4735166826
 21
-8.9128551492
 31
0.0
  0
LINE
  5
40E
330
1F
100
AcDbEntity
  8
0
  6
Continuous
 62
     7
370
    25
100
AcDbLine
 10
-48.4735166826
 20
-9.4128551492
 30
0.0
 11
-48.4735166826
 21
-8.9128551492
 31
0.0
  0
LINE
  5
40F
330
1F
100
AcDbEntity
  8
0
  6
Continuous
 62
     7
370
    25
100
AcDbLine
 10
-48.4735166826
 20
-9.4128551492
 30
0.0
 11
-40.6735166826
 21
-9.4128551492
 31
0.0
  0
LINE
  5
410
330
1F
100
AcDbEntity
  8
0
  6
Continuous
 62
     7
370
    25
100
AcDbLine
 10
-40.6735166826
 20
-9.4128551492
 30
0.0
 11
-40.6735166826
 21
-8.9128551492
 31
0.0
  0
LINE
  5
411
330
1F
100
AcDbEntity
  8
0
  6
Continuous
 62
     7
370
    25
100
AcDbLine
 10
-72.2289833748
 20
5.2381323735
 30
0.0
 11
-72.2289833748
 21
5.8781323735
 31
0.0
  0
LINE
  5
412
330
1F
100
AcDbEntity
  8
0
  6
Continuous
 62
     7
370
    25
100
AcDbLine
 10
-71.4789833748
 20
5.8781323735
 30
0.0
 11
-80.7089833748
 21
5.8781323735
 31
0.0
  0
LINE
  5
413
330
1F
100
AcDbEntity
  8
0
  6
Continuous
 62
     7
370
    25
100
AcDbLine
 10
-71.4789833748
 20
5.8781323735
 30
0.0
 11
-71.4789833748
 21
5.2381323735
 31
0.0
  0
LINE
  5
414
330
1F
100
AcDbEntity
  8
0
  6
Continuous
 62
     7
370
    25
100
AcDbLine
 10
-80.7089833748
 20
5.2381323735
 30
0.0
 11
-71.4789833748
 21
5.2381323735
 31
0.0
  0
LINE
  5
415
330
1F
100
AcDbEntity
  8
0
  6
Continuous
 62
     7
370
    25
100
AcDbLine
 10
-80.7089833748
 20
5.8781323735
 30
0.0
 11
-80.7089833748
 21
5.2381323735
 31
0.0
  0
LINE
  5
416
330
1F
100
AcDbEntity
  8
0
  6
Continuous
 62
     7
370
    25
100
AcDbLine
 10
-80.9789833748
 20
5.3381323735
 30
0.0
 11
-80.9789833748
 21
5.7781323735
 31
0.0
  0
LINE
  5
417
330
1F
100
AcDbEntity
  8
0
  6
Continuous
 62
     7
370
    25
100
AcDbLine
 10
-80.9789833748
 20
5.7781323735
 30
0.0
 11
-80.7089833748
 21
5.8781323735
 31
0.0
  0
LINE
  5
418
330
1F
100
AcDbEntity
  8
0
  6
Continuous
 62
     7
370
    25
100
AcDbLine
 10
-80.9789833748
 20
5.3381323735
 30
0.0
 11
-80.7089833748
 21
5.2381323735
 31
0.0
  0
LINE
  5
419
330
1F
100
AcDbEntity
  8
0
  6
Continuous
 62
     7
370
    25
100
AcDbLine
 10
-80.9789833748
 20
2.7981323735
 30
0.0
 11
-80.9789833748
 21
3.2381323735
 31
0.0
  0
LINE
  5
41A
330
1F
100
AcDbEntity
  8
0
  6
Continuous
 62
     7
370
    25
100
AcDbLine
 10
-80.7089833748
 20
3.3381323735
 30
0.0
 11
-80.7089833748
 21
2.6981323735
 31
0.0
  0
LINE
  5
41B
330
1F
100
AcDbEntity
  8
0
  6
Continuous
 62
     7
370
    25
100
AcDbLine
 10
-80.9789833748
 20
2.7981323735
 30
0.0
 11
-80.7089833748
 21
2.6981323735
 31
0.0
  0
LINE
  5
41C
330
1F
100
AcDbEntity
  8
0
  6
Continuous
 62
     7
370
    25
100
AcDbLine
 10
-80.9789833748
 20
3.2381323735
 30
0.0
 11
-80.7089833748
 21
3.3381323735
 31
0.0
  0
LINE
  5
41D
330
1F
100
AcDbEntity
  8
0
  6
Continuous
 62
     7
370
    25
100
AcDbLine
 10
-72.2289833748
 20
2.6981323735
 30
0.0
 11
-72.2289833748
 21
3.3381323735
 31
0.0
  0
LINE
  5
41E
330
1F
100
AcDbEntity
  8
0
  6
Continuous
 62
     7
370
    25
100
AcDbLine
 10
-80.7089833748
 20
2.6981323735
 30
0.0
 11
-71.4789833748
 21
2.6981323735
 31
0.0
  0
LINE
  5
41F
330
1F
100
AcDbEntity
  8
0
  6
Continuous
 62
     7
370
    25
100
AcDbLine
 10
-71.4789833748
 20
3.3381323735
 30
0.0
 11
-80.7089833748
 21
3.3381323735
 31
0.0
  0
LINE
  5
420
330
1F
100
AcDbEntity
  8
0
  6
Continuous
 62
     7
370
    25
100
AcDbLine
 10
-71.4789833748
 20
3.3381323735
 30
0.0
 11
-71.4789833748
 21
2.6981323735
 31
0.0
  0
LINE
  5
421
330
1F
100
AcDbEntity
  8
0
  6
Continuous
 62
     8
370
    25
100
AcDbLine
 10
-62.9707211186
 20
14.3322696265
 30
0.0
 11
-62.9707211186
 21
14.9322696265
 31
0.0
  0
LINE
  5
422
330
1F
100
AcDbEntity
  8
0
  6
Continuous
 62
     8
370
    25
100
AcDbLine
 10
-62.9707211186
 20
11.7922696265
 30
0.0
 11
-62.9707211186
 21
12.3922696265
 31
0.0
  0
ARC
  5
423
330
1F
100
AcDbEntity
  8
0
  6
Continuous
 62
     7
370
    25
100
AcDbCircle
 10
-60.2722212878
 20
13.3713714704
 30
0.0
 40
2.240454930354988
100
AcDbArc
 50
180.2327646345
 51
205.7817126744
  0
ARC
  5
424
330
1F
100
AcDbEntity
  8
0
  6
Continuous
 62
     7
370
    25
100
AcDbCircle
 10
-60.2708237931
 20
13.3529561407
 30
0.0
 40
2.2418532827636
100
AcDbArc
 50
154.0241949624
 51
179.7619715052
  0
ARC
  5
425
330
1F
100
AcDbEntity
  8
0
  6
Continuous
 62
     7
370
    25
100
AcDbCircle
 10
-71.9689833748
 20
16.7481323735
 30
0.0
 40
0.9999999999999751
100
AcDbArc
 50
90.0
 51
180.0
  0
ARC
  5
426
330
1F
100
AcDbEntity
  8
0
  6
Continuous
 62
     7
370
    25
100
AcDbCircle
 10
-31.9689833748
 20
-13.2518676265
 30
0.0
 40
1.000000000000004
100
AcDbArc
 50
270.0
 51
0.0
  0
ARC
  5
427
330
1F
100
AcDbEntity
  8
0
  6
Continuous
 62
     7
370
    25
100
AcDbCircle
 10
-71.9689833748
 20
-13.2518676265
 30
0.0
 40
1.0
100
AcDbArc
 50
180.0
 51
270.0
  0
ARC
  5
428
330
1F
100
AcDbEntity
  8
0
  6
Continuous
 62
     7
370
    25
100
AcDbCircle
 10
-31.9689833748
 20
16.7481323735
 30
0.0
 40
1.000000000000004
100
AcDbArc
 50
0.0
 51
90.0
  0
ARC
  5
429
330
1F
100
AcDbEntity
  8
0
  6
Continuous
 62
     7
370
    25
100
AcDbCircle
 10
-15.7290473292
 20
-0.3715951905
 30
0.0
 40
1.0
100
AcDbArc
 50
90.0009160483
 51
270.0009160484
  0
ARC
  5
42A
330
1F
100
AcDbEntity
  8
0
  6
Continuous
 62
     7
370
    25
100
AcDbCircle
 10
-15.7290473292
 20
-0.3715951905
 30
0.0
 40
0.9500000000000002
100
AcDbArc
 50
90.0009160483
 51
270.0009160484
  0
ARC
  5
42B
330
1F
100
AcDbEntity
  8
0
  6
Continuous
 62
     7
370
    25
100
AcDbCircle
 10
-62.6437776759
 20
-10.7569059297
 30
0.0
 40
1.150000000000002
100
AcDbArc
 50
101.152935825
 51
258.847064175
  0
ARC
  5
42C
330
1F
100
AcDbEntity
  8
0
  6
Continuous
 62
     7
370
    25
100
AcDbCircle
 10
-62.6437776759
 20
-10.7569059297
 30
0.0
 40
1.150000000000003
100
AcDbArc
 50
281.152935825
 51
78.847064175
  0
ARC
  5
42D
330
1F
100
AcDbEntity
  8
0
  6
Continuous
 62
     7
370
    25
100
AcDbCircle
 10
-62.6437776759
 20
-10.7569059297
 30
0.0
 40
1.250000000000212
100
AcDbArc
 50
280.2506217862
 51
259.7493782138
  0
ARC
  5
42E
330
1F
100
AcDbEntity
  8
0
  6
Continuous
 62
     7
370
    25
100
AcDbCircle
 10
-40.9235166826
 20
-12.6628551492
 30
0.0
 40
1.150000000000003
100
AcDbArc
 50
281.152935825
 51
78.847064175
  0
ARC
  5
42F
330
1F
100
AcDbEntity
  8
0
  6
Continuous
 62
     7
370
    25
100
AcDbCircle
 10
-40.9235166826
 20
-12.6628551492
 30
0.0
 40
1.150000000000001
100
AcDbArc
 50
101.152935825
 51
258.847064175
  0
ARC
  5
430
330
1F
100
AcDbEntity
  8
0
  6
Continuous
 62
     7
370
    25
100
AcDbCircle
 10
-40.9235166826
 20
-12.6628551492
 30
0.0
 40
1.250000000000006
100
AcDbArc
 50
100.2506217862
 51
79.7493782138
  0
ARC
  5
431
330
1F
100
AcDbEntity
  8
0
  6
Continuous
 62
     7
370
    25
100
AcDbCircle
 10
-63.9707211186
 20
14.6322696265
 30
0.0
 40
0.3000000000000007
100
AcDbArc
 50
90.0
 51
270.0
  0
ARC
  5
432
330
1F
100
AcDbEntity
  8
0
  6
Continuous
 62
     7
370
    25
100
AcDbCircle
 10
-63.9707211186
 20
12.0922696265
 30
0.0
 40
0.3000000000000007
100
AcDbArc
 50
90.0
 51
270.0
  0
ENDSEC
  0
SECTION
  2
OBJECTS
  0
DICTIONARY
  5
C
330
0
100
AcDbDictionary
281
     1
  3
ACAD_GROUP
350
D
  3
ACAD_LAYOUT
350
1A
  3
ACAD_MLINESTYLE
350
17
  3
ACAD_PLOTSETTINGS
350
19
  3
ACAD_PLOTSTYLENAME
350
E
  3
ACAD_SCALELIST
350
47
  0
DICTIONARY
  5
D
102
{ACAD_REACTORS
330
C
102
}
330
C
100
AcDbDictionary
281
     1
  0
DICTIONARY
  5
1A
102
{ACAD_REACTORS
330
C
102
}
330
C
100
AcDbDictionary
281
     1
  3
Layout1
350
1E
  3
Layout2
350
26
  3
Model
350
22
  0
DICTIONARY
  5
17
102
{ACAD_REACTORS
330
C
102
}
330
C
100
AcDbDictionary
281
     1
  3
Standard
350
18
  0
DICTIONARY
  5
19
102
{ACAD_REACTORS
330
C
102
}
330
C
100
AcDbDictionary
281
     1
  0
ACDBDICTIONARYWDFLT
  5
E
102
{ACAD_REACTORS
330
C
102
}
330
C
100
AcDbDictionary
281
     1
  3
Normal
350
F
100
AcDbDictionaryWithDefault
340
F
  0
DICTIONARY
  5
47
102
{ACAD_REACTORS
330
C
102
}
330
C
100
AcDbDictionary
281
     1
  3
A0
350
48
  3
A1
350
49
  3
A2
350
4A
  3
A3
350
4B
  3
A4
350
4C
  3
A5
350
4D
  3
A6
350
4E
  3
A7
350
4F
  3
A8
350
50
  3
A9
350
51
  3
B0
350
52
  3
B1
350
53
  3
B2
350
54
  3
B3
350
55
  3
B4
350
56
  3
B5
350
57
  3
B6
350
58
  3
B7
350
59
  3
B8
350
5A
  3
B9
350
5B
  3
C0
350
5C
  3
C1
350
5D
  3
C2
350
5E
  3
C3
350
5F
  3
C4
350
60
  3
C5
350
61
  3
C6
350
62
  3
C7
350
63
  3
C8
350
64
  3
C9
350
65
  3
D0
350
66
  3
D1
350
67
  3
D2
350
68
  0
LAYOUT
  5
1E
102
{ACAD_REACTORS
330
1A
102
}
330
1A
100
AcDbPlotSettings
  1

  2
none_device
  4

  6

 40
0.0
 41
0.0
 42
0.0
 43
0.0
 44
0.0
 45
0.0
 46
0.0
 47
0.0
 48
0.0
 49
0.0
140
0.0
141
0.0
142
1.0
143
1.0
 70
   688
 72
     1
 73
     0
 74
     5
  7

 75
    16
147
1.0
148
0.0
149
0.0
100
AcDbLayout
  1
Layout1
 70
     1
 71
     1
 10
0.0
 20
0.0
 11
420.0
 21
297.0
 12
0.0
 22
0.0
 32
0.0
 14
1.0000000000E+20
 24
1.0000000000E+20
 34
1.0000000000E+20
 15
-1.0000000000E+20
 25
-1.0000000000E+20
 35
-1.0000000000E+20
146
0.0
 13
0.0
 23
0.0
 33
0.0
 16
1.0
 26
0.0
 36
0.0
 17
0.0
 27
1.0
 37
0.0
 76
     0
330
1B
  0
LAYOUT
  5
26
102
{ACAD_REACTORS
330
1A
102
}
330
1A
100
AcDbPlotSettings
  1

  2
none_device
  4

  6

 40
0.0
 41
0.0
 42
0.0
 43
0.0
 44
0.0
 45
0.0
 46
0.0
 47
0.0
 48
0.0
 49
0.0
140
0.0
141
0.0
142
1.0
143
1.0
 70
   688
 72
     1
 73
     0
 74
     5
  7

 75
    16
147
1.0
148
0.0
149
0.0
100
AcDbLayout
  1
Layout2
 70
     1
 71
     2
 10
0.0
 20
0.0
 11
0.0
 21
0.0
 12
0.0
 22
0.0
 32
0.0
 14
0.0
 24
0.0
 34
0.0
 15
0.0
 25
0.0
 35
0.0
146
0.0
 13
0.0
 23
0.0
 33
0.0
 16
1.0
 26
0.0
 36
0.0
 17
0.0
 27
1.0
 37
0.0
 76
     0
330
23
  0
LAYOUT
  5
22
102
{ACAD_REACTORS
330
1A
102
}
330
1A
100
AcDbPlotSettings
  1

  2
none_device
  4
ANSI_A_(11.00_x_8.50_Inches)
  6

 40
6.35
 41
19.05
 42
6.35000508
 43
19.05000254
 44
279.4
 45
215.9
 46
318.6890901527
 47
82.4230261538
 48
0.0
 49
0.0
140
0.0
141
0.0
142
0.15734718
143
1.0
 70
  1696
 72
     0
 73
     0
 74
     0
  7

 75
     0
147
0.0179189148
148
-1300.4909072572
149
0.0
100
AcDbLayout
  1
Model
 70
     1
 71
     0
 10
0.0
 20
0.0
 11
420.0
 21
297.0
 12
0.0
 22
0.0
 32
0.0
 14
-80.9789833748
 24
-14.5069059297
 34
0.0
 15
-11.7689727454
 25
17.7481323735
 35
0.0
146
0.0
 13
0.0
 23
0.0
 33
0.0
 16
1.0
 26
0.0
 36
0.0
 17
0.0
 27
1.0
 37
0.0
 76
     0
330
1F
331
29
  0
MLINESTYLE
  5
18
102
{ACAD_REACTORS
330
17
102
}
330
17
100
AcDbMlineStyle
  2
Standard
 70
     0
  3

 62
   256
 51
90.0
 52
90.0
 71
     2
 49
0.5
 62
   256
  6
BYLAYER
 49
-0.5
 62
   256
  6
BYLAYER
  0
ACDBPLACEHOLDER
  5
F
102
{ACAD_REACTORS
330
E
102
}
330
E
  0
SCALE
  5
48
102
{ACAD_REACTORS
330
47
102
}
330
47
100
AcDbScale
 70
     0
300
1:1
140
1.0
141
1.0
290
     1
  0
SCALE
  5
49
102
{ACAD_REACTORS
330
47
102
}
330
47
100
AcDbScale
 70
     0
300
1:2
140
1.0
141
2.0
290
     0
  0
SCALE
  5
4A
102
{ACAD_REACTORS
330
47
102
}
330
47
100
AcDbScale
 70
     0
300
1:4
140
1.0
141
4.0
290
     0
  0
SCALE
  5
4B
102
{ACAD_REACTORS
330
47
102
}
330
47
100
AcDbScale
 70
     0
300
1:5
140
1.0
141
5.0
290
     0
  0
SCALE
  5
4C
102
{ACAD_REACTORS
330
47
102
}
330
47
100
AcDbScale
 70
     0
300
1:8
140
1.0
141
8.0
290
     0
  0
SCALE
  5
4D
102
{ACAD_REACTORS
330
47
102
}
330
47
100
AcDbScale
 70
     0
300
1:10
140
1.0
141
10.0
290
     0
  0
SCALE
  5
4E
102
{ACAD_REACTORS
330
47
102
}
330
47
100
AcDbScale
 70
     0
300
1:16
140
1.0
141
16.0
290
     0
  0
SCALE
  5
4F
102
{ACAD_REACTORS
330
47
102
}
330
47
100
AcDbScale
 70
     0
300
1:20
140
1.0
141
20.0
290
     0
  0
SCALE
  5
50
102
{ACAD_REACTORS
330
47
102
}
330
47
100
AcDbScale
 70
     0
300
1:30
140
1.0
141
30.0
290
     0
  0
SCALE
  5
51
102
{ACAD_REACTORS
330
47
102
}
330
47
100
AcDbScale
 70
     0
300
1:40
140
1.0
141
40.0
290
     0
  0
SCALE
  5
52
102
{ACAD_REACTORS
330
47
102
}
330
47
100
AcDbScale
 70
     0
300
1:50
140
1.0
141
50.0
290
     0
  0
SCALE
  5
53
102
{ACAD_REACTORS
330
47
102
}
330
47
100
AcDbScale
 70
     0
300
1:100
140
1.0
141
100.0
290
     0
  0
SCALE
  5
54
102
{ACAD_REACTORS
330
47
102
}
330
47
100
AcDbScale
 70
     0
300
2:1
140
2.0
141
1.0
290
     0
  0
SCALE
  5
55
102
{ACAD_REACTORS
330
47
102
}
330
47
100
AcDbScale
 70
     0
300
4:1
140
4.0
141
1.0
290
     0
  0
SCALE
  5
56
102
{ACAD_REACTORS
330
47
102
}
330
47
100
AcDbScale
 70
     0
300
8:1
140
8.0
141
1.0
290
     0
  0
SCALE
  5
57
102
{ACAD_REACTORS
330
47
102
}
330
47
100
AcDbScale
 70
     0
300
10:1
140
10.0
141
1.0
290
     0
  0
SCALE
  5
58
102
{ACAD_REACTORS
330
47
102
}
330
47
100
AcDbScale
 70
     0
300
100:1
140
100.0
141
1.0
290
     0
  0
SCALE
  5
59
102
{ACAD_REACTORS
330
47
102
}
330
47
100
AcDbScale
 70
     0
300
1/128" = 1'-0"
140
0.0078125
141
12.0
290
     0
  0
SCALE
  5
5A
102
{ACAD_REACTORS
330
47
102
}
330
47
100
AcDbScale
 70
     0
300
1/64" = 1'-0"
140
0.015625
141
12.0
290
     0
  0
SCALE
  5
5B
102
{ACAD_REACTORS
330
47
102
}
330
47
100
AcDbScale
 70
     0
300
1/32" = 1'-0"
140
0.03125
141
12.0
290
     0
  0
SCALE
  5
5C
102
{ACAD_REACTORS
330
47
102
}
330
47
100
AcDbScale
 70
     0
300
1/16" = 1'-0"
140
0.0625
141
12.0
290
     0
  0
SCALE
  5
5D
102
{ACAD_REACTORS
330
47
102
}
330
47
100
AcDbScale
 70
     0
300
3/32" = 1'-0"
140
0.09375
141
12.0
290
     0
  0
SCALE
  5
5E
102
{ACAD_REACTORS
330
47
102
}
330
47
100
AcDbScale
 70
     0
300
1/8" = 1'-0"
140
0.125
141
12.0
290
     0
  0
SCALE
  5
5F
102
{ACAD_REACTORS
330
47
102
}
330
47
100
AcDbScale
 70
     0
300
3/16" = 1'-0"
140
0.1875
141
12.0
290
     0
  0
SCALE
  5
60
102
{ACAD_REACTORS
330
47
102
}
330
47
100
AcDbScale
 70
     0
300
1/4" = 1'-0"
140
0.25
141
12.0
290
     0
  0
SCALE
  5
61
102
{ACAD_REACTORS
330
47
102
}
330
47
100
AcDbScale
 70
     0
300
3/8" = 1'-0"
140
0.375
141
12.0
290
     0
  0
SCALE
  5
62
102
{ACAD_REACTORS
330
47
102
}
330
47
100
AcDbScale
 70
     0
300
1/2" = 1'-0"
140
0.5
141
12.0
290
     0
  0
SCALE
  5
63
102
{ACAD_REACTORS
330
47
102
}
330
47
100
AcDbScale
 70
     0
300
3/4" = 1'-0"
140
0.75
141
12.0
290
     0
  0
SCALE
  5
64
102
{ACAD_REACTORS
330
47
102
}
330
47
100
AcDbScale
 70
     0
300
1" = 1'-0"
140
1.0
141
12.0
290
     0
  0
SCALE
  5
65
102
{ACAD_REACTORS
330
47
102
}
330
47
100
AcDbScale
 70
     0
300
1-1/2" = 1'-0"
140
1.5
141
12.0
290
     0
  0
SCALE
  5
66
102
{ACAD_REACTORS
330
47
102
}
330
47
100
AcDbScale
 70
     0
300
3" = 1'-0"
140
3.0
141
12.0
290
     0
  0
SCALE
  5
67
102
{ACAD_REACTORS
330
47
102
}
330
47
100
AcDbScale
 70
     0
300
6" = 1'-0"
140
6.0
141
12.0
290
     0
  0
SCALE
  5
68
102
{ACAD_REACTORS
330
47
102
}
330
47
100
AcDbScale
 70
     0
300
1'-0" = 1'-0"
140
12.0
141
12.0
290
     0
  0
ENDSEC
  0
EOF
