M48
; DRILL file {KiCad 9.0.6} date 2025-11-26T19:34:38-0500
; FORMAT={-:-/ absolute / metric / decimal}
; #@! TF.CreationDate,2025-11-26T19:34:38-05:00
; #@! TF.GenerationSoftware,Kicad,Pcbnew,9.0.6
; #@! TF.FileFunction,Plated,1,2,PTH
FMAT,2
METRIC
; #@! TA.AperFunction,Plated,PTH,ComponentDrill
T1C0.762
; #@! TA.AperFunction,Plated,PTH,ComponentDrill
T2C0.800
; #@! TA.AperFunction,Plated,PTH,ComponentDrill
T3C1.000
; #@! TA.AperFunction,Plated,PTH,ComponentDrill
T4C1.300
%
G90
G05
T1
X179.93Y-118.15
X179.93Y-120.69
X179.93Y-123.23
X179.93Y-125.77
X179.93Y-128.31
X179.93Y-130.85
T2
X155.484Y-42.922
X155.484Y-45.462
X155.484Y-48.002
X155.484Y-50.542
X155.484Y-53.082
X155.484Y-55.622
X155.484Y-58.162
X155.484Y-60.702
X155.484Y-63.242
X155.484Y-65.782
X155.484Y-68.322
X155.484Y-70.862
X155.484Y-73.402
X155.484Y-75.942
X155.484Y-78.482
X180.884Y-42.922
X180.884Y-45.462
X180.884Y-48.002
X180.884Y-50.542
X180.884Y-53.082
X180.884Y-55.622
X180.884Y-58.162
X180.884Y-60.702
X180.884Y-63.242
X180.884Y-65.782
X180.884Y-68.322
X180.884Y-70.862
X180.884Y-73.402
X180.884Y-75.942
X180.884Y-78.482
T3
X119.915Y-104.999
X119.92Y-79.4
X122.455Y-104.999
X122.46Y-79.4
X122.5Y-39.3
X122.5Y-41.84
X122.5Y-44.38
X122.5Y-46.92
X122.5Y-49.46
X122.5Y-52.0
X124.995Y-104.999
X125.0Y-79.4
T4
X136.996Y-48.423
X141.996Y-48.423
X146.996Y-48.423
T3
G00X138.5Y-119.0
M15
G01X140.5Y-119.0
M16
G05
G00X138.5Y-125.0
M15
G01X140.5Y-125.0
M16
G05
G00X144.2Y-123.0
M15
G01X144.2Y-121.0
M16
G05
M30
