%TF.GenerationSoftware,KiCad,Pcbnew,9.0.6*%
%TF.CreationDate,2025-11-27T10:25:12-05:00*%
%TF.ProjectId,Proyecto 2,50726f79-6563-4746-9f20-322e6b696361,rev?*%
%TF.SameCoordinates,Original*%
%TF.FileFunction,Legend,Top*%
%TF.FilePolarity,Positive*%
%FSLAX46Y46*%
G04 Gerber Fmt 4.6, Leading zero omitted, Abs format (unit mm)*
G04 Created by KiCad (PCBNEW 9.0.6) date 2025-11-27 10:25:12*
%MOMM*%
%LPD*%
G01*
G04 APERTURE LIST*
%ADD10C,0.150000*%
%ADD11C,0.100000*%
%ADD12C,0.120000*%
%ADD13C,0.200000*%
G04 APERTURE END LIST*
D10*
X201238095Y-36954819D02*
X201238095Y-35954819D01*
X201238095Y-36431009D02*
X201809523Y-36431009D01*
X201809523Y-36954819D02*
X201809523Y-35954819D01*
X202809523Y-36954819D02*
X202238095Y-36954819D01*
X202523809Y-36954819D02*
X202523809Y-35954819D01*
X202523809Y-35954819D02*
X202428571Y-36097676D01*
X202428571Y-36097676D02*
X202333333Y-36192914D01*
X202333333Y-36192914D02*
X202238095Y-36240533D01*
X114338095Y-126004819D02*
X114338095Y-125004819D01*
X114338095Y-125481009D02*
X114909523Y-125481009D01*
X114909523Y-126004819D02*
X114909523Y-125004819D01*
X115814285Y-125338152D02*
X115814285Y-126004819D01*
X115576190Y-124957200D02*
X115338095Y-125671485D01*
X115338095Y-125671485D02*
X115957142Y-125671485D01*
X205438095Y-126504819D02*
X205438095Y-125504819D01*
X205438095Y-125981009D02*
X206009523Y-125981009D01*
X206009523Y-126504819D02*
X206009523Y-125504819D01*
X206438095Y-125600057D02*
X206485714Y-125552438D01*
X206485714Y-125552438D02*
X206580952Y-125504819D01*
X206580952Y-125504819D02*
X206819047Y-125504819D01*
X206819047Y-125504819D02*
X206914285Y-125552438D01*
X206914285Y-125552438D02*
X206961904Y-125600057D01*
X206961904Y-125600057D02*
X207009523Y-125695295D01*
X207009523Y-125695295D02*
X207009523Y-125790533D01*
X207009523Y-125790533D02*
X206961904Y-125933390D01*
X206961904Y-125933390D02*
X206390476Y-126504819D01*
X206390476Y-126504819D02*
X207009523Y-126504819D01*
X113738095Y-43954819D02*
X113738095Y-42954819D01*
X113738095Y-43431009D02*
X114309523Y-43431009D01*
X114309523Y-43954819D02*
X114309523Y-42954819D01*
X114690476Y-42954819D02*
X115309523Y-42954819D01*
X115309523Y-42954819D02*
X114976190Y-43335771D01*
X114976190Y-43335771D02*
X115119047Y-43335771D01*
X115119047Y-43335771D02*
X115214285Y-43383390D01*
X115214285Y-43383390D02*
X115261904Y-43431009D01*
X115261904Y-43431009D02*
X115309523Y-43526247D01*
X115309523Y-43526247D02*
X115309523Y-43764342D01*
X115309523Y-43764342D02*
X115261904Y-43859580D01*
X115261904Y-43859580D02*
X115214285Y-43907200D01*
X115214285Y-43907200D02*
X115119047Y-43954819D01*
X115119047Y-43954819D02*
X114833333Y-43954819D01*
X114833333Y-43954819D02*
X114738095Y-43907200D01*
X114738095Y-43907200D02*
X114690476Y-43859580D01*
X168724819Y-125261904D02*
X169534342Y-125261904D01*
X169534342Y-125261904D02*
X169629580Y-125214285D01*
X169629580Y-125214285D02*
X169677200Y-125166666D01*
X169677200Y-125166666D02*
X169724819Y-125071428D01*
X169724819Y-125071428D02*
X169724819Y-124880952D01*
X169724819Y-124880952D02*
X169677200Y-124785714D01*
X169677200Y-124785714D02*
X169629580Y-124738095D01*
X169629580Y-124738095D02*
X169534342Y-124690476D01*
X169534342Y-124690476D02*
X168724819Y-124690476D01*
X168820057Y-124261904D02*
X168772438Y-124214285D01*
X168772438Y-124214285D02*
X168724819Y-124119047D01*
X168724819Y-124119047D02*
X168724819Y-123880952D01*
X168724819Y-123880952D02*
X168772438Y-123785714D01*
X168772438Y-123785714D02*
X168820057Y-123738095D01*
X168820057Y-123738095D02*
X168915295Y-123690476D01*
X168915295Y-123690476D02*
X169010533Y-123690476D01*
X169010533Y-123690476D02*
X169153390Y-123738095D01*
X169153390Y-123738095D02*
X169724819Y-124309523D01*
X169724819Y-124309523D02*
X169724819Y-123690476D01*
X133200409Y-49018716D02*
X132724218Y-49352049D01*
X133200409Y-49590144D02*
X132200409Y-49590144D01*
X132200409Y-49590144D02*
X132200409Y-49209192D01*
X132200409Y-49209192D02*
X132248028Y-49113954D01*
X132248028Y-49113954D02*
X132295647Y-49066335D01*
X132295647Y-49066335D02*
X132390885Y-49018716D01*
X132390885Y-49018716D02*
X132533742Y-49018716D01*
X132533742Y-49018716D02*
X132628980Y-49066335D01*
X132628980Y-49066335D02*
X132676599Y-49113954D01*
X132676599Y-49113954D02*
X132724218Y-49209192D01*
X132724218Y-49209192D02*
X132724218Y-49590144D01*
X132200409Y-48733001D02*
X133200409Y-48399668D01*
X133200409Y-48399668D02*
X132200409Y-48066335D01*
X133200409Y-47209192D02*
X133200409Y-47780620D01*
X133200409Y-47494906D02*
X132200409Y-47494906D01*
X132200409Y-47494906D02*
X132343266Y-47590144D01*
X132343266Y-47590144D02*
X132438504Y-47685382D01*
X132438504Y-47685382D02*
X132486123Y-47780620D01*
X127954819Y-81333333D02*
X128669104Y-81333333D01*
X128669104Y-81333333D02*
X128811961Y-81380952D01*
X128811961Y-81380952D02*
X128907200Y-81476190D01*
X128907200Y-81476190D02*
X128954819Y-81619047D01*
X128954819Y-81619047D02*
X128954819Y-81714285D01*
X128050057Y-80904761D02*
X128002438Y-80857142D01*
X128002438Y-80857142D02*
X127954819Y-80761904D01*
X127954819Y-80761904D02*
X127954819Y-80523809D01*
X127954819Y-80523809D02*
X128002438Y-80428571D01*
X128002438Y-80428571D02*
X128050057Y-80380952D01*
X128050057Y-80380952D02*
X128145295Y-80333333D01*
X128145295Y-80333333D02*
X128240533Y-80333333D01*
X128240533Y-80333333D02*
X128383390Y-80380952D01*
X128383390Y-80380952D02*
X128954819Y-80952380D01*
X128954819Y-80952380D02*
X128954819Y-80333333D01*
X122166666Y-54224819D02*
X122166666Y-54939104D01*
X122166666Y-54939104D02*
X122119047Y-55081961D01*
X122119047Y-55081961D02*
X122023809Y-55177200D01*
X122023809Y-55177200D02*
X121880952Y-55224819D01*
X121880952Y-55224819D02*
X121785714Y-55224819D01*
X123166666Y-55224819D02*
X122595238Y-55224819D01*
X122880952Y-55224819D02*
X122880952Y-54224819D01*
X122880952Y-54224819D02*
X122785714Y-54367676D01*
X122785714Y-54367676D02*
X122690476Y-54462914D01*
X122690476Y-54462914D02*
X122595238Y-54510533D01*
X144704819Y-127783333D02*
X145419104Y-127783333D01*
X145419104Y-127783333D02*
X145561961Y-127830952D01*
X145561961Y-127830952D02*
X145657200Y-127926190D01*
X145657200Y-127926190D02*
X145704819Y-128069047D01*
X145704819Y-128069047D02*
X145704819Y-128164285D01*
X145038152Y-126878571D02*
X145704819Y-126878571D01*
X144657200Y-127116666D02*
X145371485Y-127354761D01*
X145371485Y-127354761D02*
X145371485Y-126735714D01*
X125954819Y-101833333D02*
X126669104Y-101833333D01*
X126669104Y-101833333D02*
X126811961Y-101880952D01*
X126811961Y-101880952D02*
X126907200Y-101976190D01*
X126907200Y-101976190D02*
X126954819Y-102119047D01*
X126954819Y-102119047D02*
X126954819Y-102214285D01*
X125954819Y-101452380D02*
X125954819Y-100833333D01*
X125954819Y-100833333D02*
X126335771Y-101166666D01*
X126335771Y-101166666D02*
X126335771Y-101023809D01*
X126335771Y-101023809D02*
X126383390Y-100928571D01*
X126383390Y-100928571D02*
X126431009Y-100880952D01*
X126431009Y-100880952D02*
X126526247Y-100833333D01*
X126526247Y-100833333D02*
X126764342Y-100833333D01*
X126764342Y-100833333D02*
X126859580Y-100880952D01*
X126859580Y-100880952D02*
X126907200Y-100928571D01*
X126907200Y-100928571D02*
X126954819Y-101023809D01*
X126954819Y-101023809D02*
X126954819Y-101309523D01*
X126954819Y-101309523D02*
X126907200Y-101404761D01*
X126907200Y-101404761D02*
X126859580Y-101452380D01*
X169229235Y-59304999D02*
X168419712Y-59304999D01*
X168419712Y-59304999D02*
X168324474Y-59352618D01*
X168324474Y-59352618D02*
X168276855Y-59400237D01*
X168276855Y-59400237D02*
X168229235Y-59495475D01*
X168229235Y-59495475D02*
X168229235Y-59685951D01*
X168229235Y-59685951D02*
X168276855Y-59781189D01*
X168276855Y-59781189D02*
X168324474Y-59828808D01*
X168324474Y-59828808D02*
X168419712Y-59876427D01*
X168419712Y-59876427D02*
X169229235Y-59876427D01*
X169229235Y-60257380D02*
X169229235Y-60876427D01*
X169229235Y-60876427D02*
X168848283Y-60543094D01*
X168848283Y-60543094D02*
X168848283Y-60685951D01*
X168848283Y-60685951D02*
X168800664Y-60781189D01*
X168800664Y-60781189D02*
X168753045Y-60828808D01*
X168753045Y-60828808D02*
X168657807Y-60876427D01*
X168657807Y-60876427D02*
X168419712Y-60876427D01*
X168419712Y-60876427D02*
X168324474Y-60828808D01*
X168324474Y-60828808D02*
X168276855Y-60781189D01*
X168276855Y-60781189D02*
X168229235Y-60685951D01*
X168229235Y-60685951D02*
X168229235Y-60400237D01*
X168229235Y-60400237D02*
X168276855Y-60304999D01*
X168276855Y-60304999D02*
X168324474Y-60257380D01*
D11*
X175815479Y-50382129D02*
X175710717Y-50334510D01*
X175710717Y-50334510D02*
X175553574Y-50334510D01*
X175553574Y-50334510D02*
X175396431Y-50382129D01*
X175396431Y-50382129D02*
X175291669Y-50477367D01*
X175291669Y-50477367D02*
X175239288Y-50572605D01*
X175239288Y-50572605D02*
X175186907Y-50763081D01*
X175186907Y-50763081D02*
X175186907Y-50905938D01*
X175186907Y-50905938D02*
X175239288Y-51096414D01*
X175239288Y-51096414D02*
X175291669Y-51191652D01*
X175291669Y-51191652D02*
X175396431Y-51286891D01*
X175396431Y-51286891D02*
X175553574Y-51334510D01*
X175553574Y-51334510D02*
X175658336Y-51334510D01*
X175658336Y-51334510D02*
X175815479Y-51286891D01*
X175815479Y-51286891D02*
X175867860Y-51239271D01*
X175867860Y-51239271D02*
X175867860Y-50905938D01*
X175867860Y-50905938D02*
X175658336Y-50905938D01*
X176339288Y-51334510D02*
X176339288Y-50334510D01*
X176339288Y-50334510D02*
X176758336Y-50334510D01*
X176758336Y-50334510D02*
X176863098Y-50382129D01*
X176863098Y-50382129D02*
X176915479Y-50429748D01*
X176915479Y-50429748D02*
X176967860Y-50524986D01*
X176967860Y-50524986D02*
X176967860Y-50667843D01*
X176967860Y-50667843D02*
X176915479Y-50763081D01*
X176915479Y-50763081D02*
X176863098Y-50810700D01*
X176863098Y-50810700D02*
X176758336Y-50858319D01*
X176758336Y-50858319D02*
X176339288Y-50858319D01*
X177439288Y-51334510D02*
X177439288Y-50334510D01*
X178172622Y-50334510D02*
X178382146Y-50334510D01*
X178382146Y-50334510D02*
X178486908Y-50382129D01*
X178486908Y-50382129D02*
X178591670Y-50477367D01*
X178591670Y-50477367D02*
X178644051Y-50667843D01*
X178644051Y-50667843D02*
X178644051Y-51001176D01*
X178644051Y-51001176D02*
X178591670Y-51191652D01*
X178591670Y-51191652D02*
X178486908Y-51286891D01*
X178486908Y-51286891D02*
X178382146Y-51334510D01*
X178382146Y-51334510D02*
X178172622Y-51334510D01*
X178172622Y-51334510D02*
X178067860Y-51286891D01*
X178067860Y-51286891D02*
X177963098Y-51191652D01*
X177963098Y-51191652D02*
X177910717Y-51001176D01*
X177910717Y-51001176D02*
X177910717Y-50667843D01*
X177910717Y-50667843D02*
X177963098Y-50477367D01*
X177963098Y-50477367D02*
X178067860Y-50382129D01*
X178067860Y-50382129D02*
X178172622Y-50334510D01*
X179010717Y-50334510D02*
X179691670Y-50334510D01*
X179691670Y-50334510D02*
X179325003Y-50715462D01*
X179325003Y-50715462D02*
X179482146Y-50715462D01*
X179482146Y-50715462D02*
X179586908Y-50763081D01*
X179586908Y-50763081D02*
X179639289Y-50810700D01*
X179639289Y-50810700D02*
X179691670Y-50905938D01*
X179691670Y-50905938D02*
X179691670Y-51144033D01*
X179691670Y-51144033D02*
X179639289Y-51239271D01*
X179639289Y-51239271D02*
X179586908Y-51286891D01*
X179586908Y-51286891D02*
X179482146Y-51334510D01*
X179482146Y-51334510D02*
X179167860Y-51334510D01*
X179167860Y-51334510D02*
X179063098Y-51286891D01*
X179063098Y-51286891D02*
X179010717Y-51239271D01*
X156739288Y-43310700D02*
X157105955Y-43310700D01*
X157263098Y-43834510D02*
X156739288Y-43834510D01*
X156739288Y-43834510D02*
X156739288Y-42834510D01*
X156739288Y-42834510D02*
X157263098Y-42834510D01*
X157734526Y-43834510D02*
X157734526Y-42834510D01*
X157734526Y-42834510D02*
X158363098Y-43834510D01*
X158363098Y-43834510D02*
X158363098Y-42834510D01*
X174815479Y-65382129D02*
X174710717Y-65334510D01*
X174710717Y-65334510D02*
X174553574Y-65334510D01*
X174553574Y-65334510D02*
X174396431Y-65382129D01*
X174396431Y-65382129D02*
X174291669Y-65477367D01*
X174291669Y-65477367D02*
X174239288Y-65572605D01*
X174239288Y-65572605D02*
X174186907Y-65763081D01*
X174186907Y-65763081D02*
X174186907Y-65905938D01*
X174186907Y-65905938D02*
X174239288Y-66096414D01*
X174239288Y-66096414D02*
X174291669Y-66191652D01*
X174291669Y-66191652D02*
X174396431Y-66286891D01*
X174396431Y-66286891D02*
X174553574Y-66334510D01*
X174553574Y-66334510D02*
X174658336Y-66334510D01*
X174658336Y-66334510D02*
X174815479Y-66286891D01*
X174815479Y-66286891D02*
X174867860Y-66239271D01*
X174867860Y-66239271D02*
X174867860Y-65905938D01*
X174867860Y-65905938D02*
X174658336Y-65905938D01*
X175339288Y-66334510D02*
X175339288Y-65334510D01*
X175339288Y-65334510D02*
X175758336Y-65334510D01*
X175758336Y-65334510D02*
X175863098Y-65382129D01*
X175863098Y-65382129D02*
X175915479Y-65429748D01*
X175915479Y-65429748D02*
X175967860Y-65524986D01*
X175967860Y-65524986D02*
X175967860Y-65667843D01*
X175967860Y-65667843D02*
X175915479Y-65763081D01*
X175915479Y-65763081D02*
X175863098Y-65810700D01*
X175863098Y-65810700D02*
X175758336Y-65858319D01*
X175758336Y-65858319D02*
X175339288Y-65858319D01*
X176439288Y-66334510D02*
X176439288Y-65334510D01*
X177172622Y-65334510D02*
X177382146Y-65334510D01*
X177382146Y-65334510D02*
X177486908Y-65382129D01*
X177486908Y-65382129D02*
X177591670Y-65477367D01*
X177591670Y-65477367D02*
X177644051Y-65667843D01*
X177644051Y-65667843D02*
X177644051Y-66001176D01*
X177644051Y-66001176D02*
X177591670Y-66191652D01*
X177591670Y-66191652D02*
X177486908Y-66286891D01*
X177486908Y-66286891D02*
X177382146Y-66334510D01*
X177382146Y-66334510D02*
X177172622Y-66334510D01*
X177172622Y-66334510D02*
X177067860Y-66286891D01*
X177067860Y-66286891D02*
X176963098Y-66191652D01*
X176963098Y-66191652D02*
X176910717Y-66001176D01*
X176910717Y-66001176D02*
X176910717Y-65667843D01*
X176910717Y-65667843D02*
X176963098Y-65477367D01*
X176963098Y-65477367D02*
X177067860Y-65382129D01*
X177067860Y-65382129D02*
X177172622Y-65334510D01*
X178691670Y-66334510D02*
X178063098Y-66334510D01*
X178377384Y-66334510D02*
X178377384Y-65334510D01*
X178377384Y-65334510D02*
X178272622Y-65477367D01*
X178272622Y-65477367D02*
X178167860Y-65572605D01*
X178167860Y-65572605D02*
X178063098Y-65620224D01*
X179634527Y-65334510D02*
X179425003Y-65334510D01*
X179425003Y-65334510D02*
X179320241Y-65382129D01*
X179320241Y-65382129D02*
X179267860Y-65429748D01*
X179267860Y-65429748D02*
X179163098Y-65572605D01*
X179163098Y-65572605D02*
X179110717Y-65763081D01*
X179110717Y-65763081D02*
X179110717Y-66144033D01*
X179110717Y-66144033D02*
X179163098Y-66239271D01*
X179163098Y-66239271D02*
X179215479Y-66286891D01*
X179215479Y-66286891D02*
X179320241Y-66334510D01*
X179320241Y-66334510D02*
X179529765Y-66334510D01*
X179529765Y-66334510D02*
X179634527Y-66286891D01*
X179634527Y-66286891D02*
X179686908Y-66239271D01*
X179686908Y-66239271D02*
X179739289Y-66144033D01*
X179739289Y-66144033D02*
X179739289Y-65905938D01*
X179739289Y-65905938D02*
X179686908Y-65810700D01*
X179686908Y-65810700D02*
X179634527Y-65763081D01*
X179634527Y-65763081D02*
X179529765Y-65715462D01*
X179529765Y-65715462D02*
X179320241Y-65715462D01*
X179320241Y-65715462D02*
X179215479Y-65763081D01*
X179215479Y-65763081D02*
X179163098Y-65810700D01*
X179163098Y-65810700D02*
X179110717Y-65905938D01*
X174815479Y-62882129D02*
X174710717Y-62834510D01*
X174710717Y-62834510D02*
X174553574Y-62834510D01*
X174553574Y-62834510D02*
X174396431Y-62882129D01*
X174396431Y-62882129D02*
X174291669Y-62977367D01*
X174291669Y-62977367D02*
X174239288Y-63072605D01*
X174239288Y-63072605D02*
X174186907Y-63263081D01*
X174186907Y-63263081D02*
X174186907Y-63405938D01*
X174186907Y-63405938D02*
X174239288Y-63596414D01*
X174239288Y-63596414D02*
X174291669Y-63691652D01*
X174291669Y-63691652D02*
X174396431Y-63786891D01*
X174396431Y-63786891D02*
X174553574Y-63834510D01*
X174553574Y-63834510D02*
X174658336Y-63834510D01*
X174658336Y-63834510D02*
X174815479Y-63786891D01*
X174815479Y-63786891D02*
X174867860Y-63739271D01*
X174867860Y-63739271D02*
X174867860Y-63405938D01*
X174867860Y-63405938D02*
X174658336Y-63405938D01*
X175339288Y-63834510D02*
X175339288Y-62834510D01*
X175339288Y-62834510D02*
X175758336Y-62834510D01*
X175758336Y-62834510D02*
X175863098Y-62882129D01*
X175863098Y-62882129D02*
X175915479Y-62929748D01*
X175915479Y-62929748D02*
X175967860Y-63024986D01*
X175967860Y-63024986D02*
X175967860Y-63167843D01*
X175967860Y-63167843D02*
X175915479Y-63263081D01*
X175915479Y-63263081D02*
X175863098Y-63310700D01*
X175863098Y-63310700D02*
X175758336Y-63358319D01*
X175758336Y-63358319D02*
X175339288Y-63358319D01*
X176439288Y-63834510D02*
X176439288Y-62834510D01*
X177172622Y-62834510D02*
X177382146Y-62834510D01*
X177382146Y-62834510D02*
X177486908Y-62882129D01*
X177486908Y-62882129D02*
X177591670Y-62977367D01*
X177591670Y-62977367D02*
X177644051Y-63167843D01*
X177644051Y-63167843D02*
X177644051Y-63501176D01*
X177644051Y-63501176D02*
X177591670Y-63691652D01*
X177591670Y-63691652D02*
X177486908Y-63786891D01*
X177486908Y-63786891D02*
X177382146Y-63834510D01*
X177382146Y-63834510D02*
X177172622Y-63834510D01*
X177172622Y-63834510D02*
X177067860Y-63786891D01*
X177067860Y-63786891D02*
X176963098Y-63691652D01*
X176963098Y-63691652D02*
X176910717Y-63501176D01*
X176910717Y-63501176D02*
X176910717Y-63167843D01*
X176910717Y-63167843D02*
X176963098Y-62977367D01*
X176963098Y-62977367D02*
X177067860Y-62882129D01*
X177067860Y-62882129D02*
X177172622Y-62834510D01*
X178691670Y-63834510D02*
X178063098Y-63834510D01*
X178377384Y-63834510D02*
X178377384Y-62834510D01*
X178377384Y-62834510D02*
X178272622Y-62977367D01*
X178272622Y-62977367D02*
X178167860Y-63072605D01*
X178167860Y-63072605D02*
X178063098Y-63120224D01*
X179058336Y-62834510D02*
X179791670Y-62834510D01*
X179791670Y-62834510D02*
X179320241Y-63834510D01*
X174815479Y-44882129D02*
X174710717Y-44834510D01*
X174710717Y-44834510D02*
X174553574Y-44834510D01*
X174553574Y-44834510D02*
X174396431Y-44882129D01*
X174396431Y-44882129D02*
X174291669Y-44977367D01*
X174291669Y-44977367D02*
X174239288Y-45072605D01*
X174239288Y-45072605D02*
X174186907Y-45263081D01*
X174186907Y-45263081D02*
X174186907Y-45405938D01*
X174186907Y-45405938D02*
X174239288Y-45596414D01*
X174239288Y-45596414D02*
X174291669Y-45691652D01*
X174291669Y-45691652D02*
X174396431Y-45786891D01*
X174396431Y-45786891D02*
X174553574Y-45834510D01*
X174553574Y-45834510D02*
X174658336Y-45834510D01*
X174658336Y-45834510D02*
X174815479Y-45786891D01*
X174815479Y-45786891D02*
X174867860Y-45739271D01*
X174867860Y-45739271D02*
X174867860Y-45405938D01*
X174867860Y-45405938D02*
X174658336Y-45405938D01*
X175339288Y-45834510D02*
X175339288Y-44834510D01*
X175339288Y-44834510D02*
X175758336Y-44834510D01*
X175758336Y-44834510D02*
X175863098Y-44882129D01*
X175863098Y-44882129D02*
X175915479Y-44929748D01*
X175915479Y-44929748D02*
X175967860Y-45024986D01*
X175967860Y-45024986D02*
X175967860Y-45167843D01*
X175967860Y-45167843D02*
X175915479Y-45263081D01*
X175915479Y-45263081D02*
X175863098Y-45310700D01*
X175863098Y-45310700D02*
X175758336Y-45358319D01*
X175758336Y-45358319D02*
X175339288Y-45358319D01*
X176439288Y-45834510D02*
X176439288Y-44834510D01*
X177172622Y-44834510D02*
X177382146Y-44834510D01*
X177382146Y-44834510D02*
X177486908Y-44882129D01*
X177486908Y-44882129D02*
X177591670Y-44977367D01*
X177591670Y-44977367D02*
X177644051Y-45167843D01*
X177644051Y-45167843D02*
X177644051Y-45501176D01*
X177644051Y-45501176D02*
X177591670Y-45691652D01*
X177591670Y-45691652D02*
X177486908Y-45786891D01*
X177486908Y-45786891D02*
X177382146Y-45834510D01*
X177382146Y-45834510D02*
X177172622Y-45834510D01*
X177172622Y-45834510D02*
X177067860Y-45786891D01*
X177067860Y-45786891D02*
X176963098Y-45691652D01*
X176963098Y-45691652D02*
X176910717Y-45501176D01*
X176910717Y-45501176D02*
X176910717Y-45167843D01*
X176910717Y-45167843D02*
X176963098Y-44977367D01*
X176963098Y-44977367D02*
X177067860Y-44882129D01*
X177067860Y-44882129D02*
X177172622Y-44834510D01*
X178063098Y-44929748D02*
X178115479Y-44882129D01*
X178115479Y-44882129D02*
X178220241Y-44834510D01*
X178220241Y-44834510D02*
X178482146Y-44834510D01*
X178482146Y-44834510D02*
X178586908Y-44882129D01*
X178586908Y-44882129D02*
X178639289Y-44929748D01*
X178639289Y-44929748D02*
X178691670Y-45024986D01*
X178691670Y-45024986D02*
X178691670Y-45120224D01*
X178691670Y-45120224D02*
X178639289Y-45263081D01*
X178639289Y-45263081D02*
X178010717Y-45834510D01*
X178010717Y-45834510D02*
X178691670Y-45834510D01*
X179110717Y-44929748D02*
X179163098Y-44882129D01*
X179163098Y-44882129D02*
X179267860Y-44834510D01*
X179267860Y-44834510D02*
X179529765Y-44834510D01*
X179529765Y-44834510D02*
X179634527Y-44882129D01*
X179634527Y-44882129D02*
X179686908Y-44929748D01*
X179686908Y-44929748D02*
X179739289Y-45024986D01*
X179739289Y-45024986D02*
X179739289Y-45120224D01*
X179739289Y-45120224D02*
X179686908Y-45263081D01*
X179686908Y-45263081D02*
X179058336Y-45834510D01*
X179058336Y-45834510D02*
X179739289Y-45834510D01*
X157315479Y-55382129D02*
X157210717Y-55334510D01*
X157210717Y-55334510D02*
X157053574Y-55334510D01*
X157053574Y-55334510D02*
X156896431Y-55382129D01*
X156896431Y-55382129D02*
X156791669Y-55477367D01*
X156791669Y-55477367D02*
X156739288Y-55572605D01*
X156739288Y-55572605D02*
X156686907Y-55763081D01*
X156686907Y-55763081D02*
X156686907Y-55905938D01*
X156686907Y-55905938D02*
X156739288Y-56096414D01*
X156739288Y-56096414D02*
X156791669Y-56191652D01*
X156791669Y-56191652D02*
X156896431Y-56286891D01*
X156896431Y-56286891D02*
X157053574Y-56334510D01*
X157053574Y-56334510D02*
X157158336Y-56334510D01*
X157158336Y-56334510D02*
X157315479Y-56286891D01*
X157315479Y-56286891D02*
X157367860Y-56239271D01*
X157367860Y-56239271D02*
X157367860Y-55905938D01*
X157367860Y-55905938D02*
X157158336Y-55905938D01*
X157839288Y-56334510D02*
X157839288Y-55334510D01*
X157839288Y-55334510D02*
X158258336Y-55334510D01*
X158258336Y-55334510D02*
X158363098Y-55382129D01*
X158363098Y-55382129D02*
X158415479Y-55429748D01*
X158415479Y-55429748D02*
X158467860Y-55524986D01*
X158467860Y-55524986D02*
X158467860Y-55667843D01*
X158467860Y-55667843D02*
X158415479Y-55763081D01*
X158415479Y-55763081D02*
X158363098Y-55810700D01*
X158363098Y-55810700D02*
X158258336Y-55858319D01*
X158258336Y-55858319D02*
X157839288Y-55858319D01*
X158939288Y-56334510D02*
X158939288Y-55334510D01*
X159672622Y-55334510D02*
X159882146Y-55334510D01*
X159882146Y-55334510D02*
X159986908Y-55382129D01*
X159986908Y-55382129D02*
X160091670Y-55477367D01*
X160091670Y-55477367D02*
X160144051Y-55667843D01*
X160144051Y-55667843D02*
X160144051Y-56001176D01*
X160144051Y-56001176D02*
X160091670Y-56191652D01*
X160091670Y-56191652D02*
X159986908Y-56286891D01*
X159986908Y-56286891D02*
X159882146Y-56334510D01*
X159882146Y-56334510D02*
X159672622Y-56334510D01*
X159672622Y-56334510D02*
X159567860Y-56286891D01*
X159567860Y-56286891D02*
X159463098Y-56191652D01*
X159463098Y-56191652D02*
X159410717Y-56001176D01*
X159410717Y-56001176D02*
X159410717Y-55667843D01*
X159410717Y-55667843D02*
X159463098Y-55477367D01*
X159463098Y-55477367D02*
X159567860Y-55382129D01*
X159567860Y-55382129D02*
X159672622Y-55334510D01*
X160510717Y-55334510D02*
X161191670Y-55334510D01*
X161191670Y-55334510D02*
X160825003Y-55715462D01*
X160825003Y-55715462D02*
X160982146Y-55715462D01*
X160982146Y-55715462D02*
X161086908Y-55763081D01*
X161086908Y-55763081D02*
X161139289Y-55810700D01*
X161139289Y-55810700D02*
X161191670Y-55905938D01*
X161191670Y-55905938D02*
X161191670Y-56144033D01*
X161191670Y-56144033D02*
X161139289Y-56239271D01*
X161139289Y-56239271D02*
X161086908Y-56286891D01*
X161086908Y-56286891D02*
X160982146Y-56334510D01*
X160982146Y-56334510D02*
X160667860Y-56334510D01*
X160667860Y-56334510D02*
X160563098Y-56286891D01*
X160563098Y-56286891D02*
X160510717Y-56239271D01*
X161610717Y-55429748D02*
X161663098Y-55382129D01*
X161663098Y-55382129D02*
X161767860Y-55334510D01*
X161767860Y-55334510D02*
X162029765Y-55334510D01*
X162029765Y-55334510D02*
X162134527Y-55382129D01*
X162134527Y-55382129D02*
X162186908Y-55429748D01*
X162186908Y-55429748D02*
X162239289Y-55524986D01*
X162239289Y-55524986D02*
X162239289Y-55620224D01*
X162239289Y-55620224D02*
X162186908Y-55763081D01*
X162186908Y-55763081D02*
X161558336Y-56334510D01*
X161558336Y-56334510D02*
X162239289Y-56334510D01*
X174815479Y-52882129D02*
X174710717Y-52834510D01*
X174710717Y-52834510D02*
X174553574Y-52834510D01*
X174553574Y-52834510D02*
X174396431Y-52882129D01*
X174396431Y-52882129D02*
X174291669Y-52977367D01*
X174291669Y-52977367D02*
X174239288Y-53072605D01*
X174239288Y-53072605D02*
X174186907Y-53263081D01*
X174186907Y-53263081D02*
X174186907Y-53405938D01*
X174186907Y-53405938D02*
X174239288Y-53596414D01*
X174239288Y-53596414D02*
X174291669Y-53691652D01*
X174291669Y-53691652D02*
X174396431Y-53786891D01*
X174396431Y-53786891D02*
X174553574Y-53834510D01*
X174553574Y-53834510D02*
X174658336Y-53834510D01*
X174658336Y-53834510D02*
X174815479Y-53786891D01*
X174815479Y-53786891D02*
X174867860Y-53739271D01*
X174867860Y-53739271D02*
X174867860Y-53405938D01*
X174867860Y-53405938D02*
X174658336Y-53405938D01*
X175339288Y-53834510D02*
X175339288Y-52834510D01*
X175339288Y-52834510D02*
X175758336Y-52834510D01*
X175758336Y-52834510D02*
X175863098Y-52882129D01*
X175863098Y-52882129D02*
X175915479Y-52929748D01*
X175915479Y-52929748D02*
X175967860Y-53024986D01*
X175967860Y-53024986D02*
X175967860Y-53167843D01*
X175967860Y-53167843D02*
X175915479Y-53263081D01*
X175915479Y-53263081D02*
X175863098Y-53310700D01*
X175863098Y-53310700D02*
X175758336Y-53358319D01*
X175758336Y-53358319D02*
X175339288Y-53358319D01*
X176439288Y-53834510D02*
X176439288Y-52834510D01*
X177172622Y-52834510D02*
X177382146Y-52834510D01*
X177382146Y-52834510D02*
X177486908Y-52882129D01*
X177486908Y-52882129D02*
X177591670Y-52977367D01*
X177591670Y-52977367D02*
X177644051Y-53167843D01*
X177644051Y-53167843D02*
X177644051Y-53501176D01*
X177644051Y-53501176D02*
X177591670Y-53691652D01*
X177591670Y-53691652D02*
X177486908Y-53786891D01*
X177486908Y-53786891D02*
X177382146Y-53834510D01*
X177382146Y-53834510D02*
X177172622Y-53834510D01*
X177172622Y-53834510D02*
X177067860Y-53786891D01*
X177067860Y-53786891D02*
X176963098Y-53691652D01*
X176963098Y-53691652D02*
X176910717Y-53501176D01*
X176910717Y-53501176D02*
X176910717Y-53167843D01*
X176910717Y-53167843D02*
X176963098Y-52977367D01*
X176963098Y-52977367D02*
X177067860Y-52882129D01*
X177067860Y-52882129D02*
X177172622Y-52834510D01*
X178063098Y-52929748D02*
X178115479Y-52882129D01*
X178115479Y-52882129D02*
X178220241Y-52834510D01*
X178220241Y-52834510D02*
X178482146Y-52834510D01*
X178482146Y-52834510D02*
X178586908Y-52882129D01*
X178586908Y-52882129D02*
X178639289Y-52929748D01*
X178639289Y-52929748D02*
X178691670Y-53024986D01*
X178691670Y-53024986D02*
X178691670Y-53120224D01*
X178691670Y-53120224D02*
X178639289Y-53263081D01*
X178639289Y-53263081D02*
X178010717Y-53834510D01*
X178010717Y-53834510D02*
X178691670Y-53834510D01*
X179739289Y-53834510D02*
X179110717Y-53834510D01*
X179425003Y-53834510D02*
X179425003Y-52834510D01*
X179425003Y-52834510D02*
X179320241Y-52977367D01*
X179320241Y-52977367D02*
X179215479Y-53072605D01*
X179215479Y-53072605D02*
X179110717Y-53120224D01*
X175815479Y-67882129D02*
X175710717Y-67834510D01*
X175710717Y-67834510D02*
X175553574Y-67834510D01*
X175553574Y-67834510D02*
X175396431Y-67882129D01*
X175396431Y-67882129D02*
X175291669Y-67977367D01*
X175291669Y-67977367D02*
X175239288Y-68072605D01*
X175239288Y-68072605D02*
X175186907Y-68263081D01*
X175186907Y-68263081D02*
X175186907Y-68405938D01*
X175186907Y-68405938D02*
X175239288Y-68596414D01*
X175239288Y-68596414D02*
X175291669Y-68691652D01*
X175291669Y-68691652D02*
X175396431Y-68786891D01*
X175396431Y-68786891D02*
X175553574Y-68834510D01*
X175553574Y-68834510D02*
X175658336Y-68834510D01*
X175658336Y-68834510D02*
X175815479Y-68786891D01*
X175815479Y-68786891D02*
X175867860Y-68739271D01*
X175867860Y-68739271D02*
X175867860Y-68405938D01*
X175867860Y-68405938D02*
X175658336Y-68405938D01*
X176339288Y-68834510D02*
X176339288Y-67834510D01*
X176339288Y-67834510D02*
X176758336Y-67834510D01*
X176758336Y-67834510D02*
X176863098Y-67882129D01*
X176863098Y-67882129D02*
X176915479Y-67929748D01*
X176915479Y-67929748D02*
X176967860Y-68024986D01*
X176967860Y-68024986D02*
X176967860Y-68167843D01*
X176967860Y-68167843D02*
X176915479Y-68263081D01*
X176915479Y-68263081D02*
X176863098Y-68310700D01*
X176863098Y-68310700D02*
X176758336Y-68358319D01*
X176758336Y-68358319D02*
X176339288Y-68358319D01*
X177439288Y-68834510D02*
X177439288Y-67834510D01*
X178172622Y-67834510D02*
X178382146Y-67834510D01*
X178382146Y-67834510D02*
X178486908Y-67882129D01*
X178486908Y-67882129D02*
X178591670Y-67977367D01*
X178591670Y-67977367D02*
X178644051Y-68167843D01*
X178644051Y-68167843D02*
X178644051Y-68501176D01*
X178644051Y-68501176D02*
X178591670Y-68691652D01*
X178591670Y-68691652D02*
X178486908Y-68786891D01*
X178486908Y-68786891D02*
X178382146Y-68834510D01*
X178382146Y-68834510D02*
X178172622Y-68834510D01*
X178172622Y-68834510D02*
X178067860Y-68786891D01*
X178067860Y-68786891D02*
X177963098Y-68691652D01*
X177963098Y-68691652D02*
X177910717Y-68501176D01*
X177910717Y-68501176D02*
X177910717Y-68167843D01*
X177910717Y-68167843D02*
X177963098Y-67977367D01*
X177963098Y-67977367D02*
X178067860Y-67882129D01*
X178067860Y-67882129D02*
X178172622Y-67834510D01*
X179586908Y-68167843D02*
X179586908Y-68834510D01*
X179325003Y-67786891D02*
X179063098Y-68501176D01*
X179063098Y-68501176D02*
X179744051Y-68501176D01*
X157315479Y-52882129D02*
X157210717Y-52834510D01*
X157210717Y-52834510D02*
X157053574Y-52834510D01*
X157053574Y-52834510D02*
X156896431Y-52882129D01*
X156896431Y-52882129D02*
X156791669Y-52977367D01*
X156791669Y-52977367D02*
X156739288Y-53072605D01*
X156739288Y-53072605D02*
X156686907Y-53263081D01*
X156686907Y-53263081D02*
X156686907Y-53405938D01*
X156686907Y-53405938D02*
X156739288Y-53596414D01*
X156739288Y-53596414D02*
X156791669Y-53691652D01*
X156791669Y-53691652D02*
X156896431Y-53786891D01*
X156896431Y-53786891D02*
X157053574Y-53834510D01*
X157053574Y-53834510D02*
X157158336Y-53834510D01*
X157158336Y-53834510D02*
X157315479Y-53786891D01*
X157315479Y-53786891D02*
X157367860Y-53739271D01*
X157367860Y-53739271D02*
X157367860Y-53405938D01*
X157367860Y-53405938D02*
X157158336Y-53405938D01*
X157839288Y-53834510D02*
X157839288Y-52834510D01*
X157839288Y-52834510D02*
X158258336Y-52834510D01*
X158258336Y-52834510D02*
X158363098Y-52882129D01*
X158363098Y-52882129D02*
X158415479Y-52929748D01*
X158415479Y-52929748D02*
X158467860Y-53024986D01*
X158467860Y-53024986D02*
X158467860Y-53167843D01*
X158467860Y-53167843D02*
X158415479Y-53263081D01*
X158415479Y-53263081D02*
X158363098Y-53310700D01*
X158363098Y-53310700D02*
X158258336Y-53358319D01*
X158258336Y-53358319D02*
X157839288Y-53358319D01*
X158939288Y-53834510D02*
X158939288Y-52834510D01*
X159672622Y-52834510D02*
X159882146Y-52834510D01*
X159882146Y-52834510D02*
X159986908Y-52882129D01*
X159986908Y-52882129D02*
X160091670Y-52977367D01*
X160091670Y-52977367D02*
X160144051Y-53167843D01*
X160144051Y-53167843D02*
X160144051Y-53501176D01*
X160144051Y-53501176D02*
X160091670Y-53691652D01*
X160091670Y-53691652D02*
X159986908Y-53786891D01*
X159986908Y-53786891D02*
X159882146Y-53834510D01*
X159882146Y-53834510D02*
X159672622Y-53834510D01*
X159672622Y-53834510D02*
X159567860Y-53786891D01*
X159567860Y-53786891D02*
X159463098Y-53691652D01*
X159463098Y-53691652D02*
X159410717Y-53501176D01*
X159410717Y-53501176D02*
X159410717Y-53167843D01*
X159410717Y-53167843D02*
X159463098Y-52977367D01*
X159463098Y-52977367D02*
X159567860Y-52882129D01*
X159567860Y-52882129D02*
X159672622Y-52834510D01*
X160510717Y-52834510D02*
X161191670Y-52834510D01*
X161191670Y-52834510D02*
X160825003Y-53215462D01*
X160825003Y-53215462D02*
X160982146Y-53215462D01*
X160982146Y-53215462D02*
X161086908Y-53263081D01*
X161086908Y-53263081D02*
X161139289Y-53310700D01*
X161139289Y-53310700D02*
X161191670Y-53405938D01*
X161191670Y-53405938D02*
X161191670Y-53644033D01*
X161191670Y-53644033D02*
X161139289Y-53739271D01*
X161139289Y-53739271D02*
X161086908Y-53786891D01*
X161086908Y-53786891D02*
X160982146Y-53834510D01*
X160982146Y-53834510D02*
X160667860Y-53834510D01*
X160667860Y-53834510D02*
X160563098Y-53786891D01*
X160563098Y-53786891D02*
X160510717Y-53739271D01*
X162186908Y-52834510D02*
X161663098Y-52834510D01*
X161663098Y-52834510D02*
X161610717Y-53310700D01*
X161610717Y-53310700D02*
X161663098Y-53263081D01*
X161663098Y-53263081D02*
X161767860Y-53215462D01*
X161767860Y-53215462D02*
X162029765Y-53215462D01*
X162029765Y-53215462D02*
X162134527Y-53263081D01*
X162134527Y-53263081D02*
X162186908Y-53310700D01*
X162186908Y-53310700D02*
X162239289Y-53405938D01*
X162239289Y-53405938D02*
X162239289Y-53644033D01*
X162239289Y-53644033D02*
X162186908Y-53739271D01*
X162186908Y-53739271D02*
X162134527Y-53786891D01*
X162134527Y-53786891D02*
X162029765Y-53834510D01*
X162029765Y-53834510D02*
X161767860Y-53834510D01*
X161767860Y-53834510D02*
X161663098Y-53786891D01*
X161663098Y-53786891D02*
X161610717Y-53739271D01*
X157315479Y-67882129D02*
X157210717Y-67834510D01*
X157210717Y-67834510D02*
X157053574Y-67834510D01*
X157053574Y-67834510D02*
X156896431Y-67882129D01*
X156896431Y-67882129D02*
X156791669Y-67977367D01*
X156791669Y-67977367D02*
X156739288Y-68072605D01*
X156739288Y-68072605D02*
X156686907Y-68263081D01*
X156686907Y-68263081D02*
X156686907Y-68405938D01*
X156686907Y-68405938D02*
X156739288Y-68596414D01*
X156739288Y-68596414D02*
X156791669Y-68691652D01*
X156791669Y-68691652D02*
X156896431Y-68786891D01*
X156896431Y-68786891D02*
X157053574Y-68834510D01*
X157053574Y-68834510D02*
X157158336Y-68834510D01*
X157158336Y-68834510D02*
X157315479Y-68786891D01*
X157315479Y-68786891D02*
X157367860Y-68739271D01*
X157367860Y-68739271D02*
X157367860Y-68405938D01*
X157367860Y-68405938D02*
X157158336Y-68405938D01*
X157839288Y-68834510D02*
X157839288Y-67834510D01*
X157839288Y-67834510D02*
X158258336Y-67834510D01*
X158258336Y-67834510D02*
X158363098Y-67882129D01*
X158363098Y-67882129D02*
X158415479Y-67929748D01*
X158415479Y-67929748D02*
X158467860Y-68024986D01*
X158467860Y-68024986D02*
X158467860Y-68167843D01*
X158467860Y-68167843D02*
X158415479Y-68263081D01*
X158415479Y-68263081D02*
X158363098Y-68310700D01*
X158363098Y-68310700D02*
X158258336Y-68358319D01*
X158258336Y-68358319D02*
X157839288Y-68358319D01*
X158939288Y-68834510D02*
X158939288Y-67834510D01*
X159672622Y-67834510D02*
X159882146Y-67834510D01*
X159882146Y-67834510D02*
X159986908Y-67882129D01*
X159986908Y-67882129D02*
X160091670Y-67977367D01*
X160091670Y-67977367D02*
X160144051Y-68167843D01*
X160144051Y-68167843D02*
X160144051Y-68501176D01*
X160144051Y-68501176D02*
X160091670Y-68691652D01*
X160091670Y-68691652D02*
X159986908Y-68786891D01*
X159986908Y-68786891D02*
X159882146Y-68834510D01*
X159882146Y-68834510D02*
X159672622Y-68834510D01*
X159672622Y-68834510D02*
X159567860Y-68786891D01*
X159567860Y-68786891D02*
X159463098Y-68691652D01*
X159463098Y-68691652D02*
X159410717Y-68501176D01*
X159410717Y-68501176D02*
X159410717Y-68167843D01*
X159410717Y-68167843D02*
X159463098Y-67977367D01*
X159463098Y-67977367D02*
X159567860Y-67882129D01*
X159567860Y-67882129D02*
X159672622Y-67834510D01*
X161191670Y-68834510D02*
X160563098Y-68834510D01*
X160877384Y-68834510D02*
X160877384Y-67834510D01*
X160877384Y-67834510D02*
X160772622Y-67977367D01*
X160772622Y-67977367D02*
X160667860Y-68072605D01*
X160667860Y-68072605D02*
X160563098Y-68120224D01*
X162134527Y-68167843D02*
X162134527Y-68834510D01*
X161872622Y-67786891D02*
X161610717Y-68501176D01*
X161610717Y-68501176D02*
X162291670Y-68501176D01*
X177315479Y-75382129D02*
X177210717Y-75334510D01*
X177210717Y-75334510D02*
X177053574Y-75334510D01*
X177053574Y-75334510D02*
X176896431Y-75382129D01*
X176896431Y-75382129D02*
X176791669Y-75477367D01*
X176791669Y-75477367D02*
X176739288Y-75572605D01*
X176739288Y-75572605D02*
X176686907Y-75763081D01*
X176686907Y-75763081D02*
X176686907Y-75905938D01*
X176686907Y-75905938D02*
X176739288Y-76096414D01*
X176739288Y-76096414D02*
X176791669Y-76191652D01*
X176791669Y-76191652D02*
X176896431Y-76286891D01*
X176896431Y-76286891D02*
X177053574Y-76334510D01*
X177053574Y-76334510D02*
X177158336Y-76334510D01*
X177158336Y-76334510D02*
X177315479Y-76286891D01*
X177315479Y-76286891D02*
X177367860Y-76239271D01*
X177367860Y-76239271D02*
X177367860Y-75905938D01*
X177367860Y-75905938D02*
X177158336Y-75905938D01*
X177839288Y-76334510D02*
X177839288Y-75334510D01*
X177839288Y-75334510D02*
X178467860Y-76334510D01*
X178467860Y-76334510D02*
X178467860Y-75334510D01*
X178991669Y-76334510D02*
X178991669Y-75334510D01*
X178991669Y-75334510D02*
X179253574Y-75334510D01*
X179253574Y-75334510D02*
X179410717Y-75382129D01*
X179410717Y-75382129D02*
X179515479Y-75477367D01*
X179515479Y-75477367D02*
X179567860Y-75572605D01*
X179567860Y-75572605D02*
X179620241Y-75763081D01*
X179620241Y-75763081D02*
X179620241Y-75905938D01*
X179620241Y-75905938D02*
X179567860Y-76096414D01*
X179567860Y-76096414D02*
X179515479Y-76191652D01*
X179515479Y-76191652D02*
X179410717Y-76286891D01*
X179410717Y-76286891D02*
X179253574Y-76334510D01*
X179253574Y-76334510D02*
X178991669Y-76334510D01*
X157315479Y-72882129D02*
X157210717Y-72834510D01*
X157210717Y-72834510D02*
X157053574Y-72834510D01*
X157053574Y-72834510D02*
X156896431Y-72882129D01*
X156896431Y-72882129D02*
X156791669Y-72977367D01*
X156791669Y-72977367D02*
X156739288Y-73072605D01*
X156739288Y-73072605D02*
X156686907Y-73263081D01*
X156686907Y-73263081D02*
X156686907Y-73405938D01*
X156686907Y-73405938D02*
X156739288Y-73596414D01*
X156739288Y-73596414D02*
X156791669Y-73691652D01*
X156791669Y-73691652D02*
X156896431Y-73786891D01*
X156896431Y-73786891D02*
X157053574Y-73834510D01*
X157053574Y-73834510D02*
X157158336Y-73834510D01*
X157158336Y-73834510D02*
X157315479Y-73786891D01*
X157315479Y-73786891D02*
X157367860Y-73739271D01*
X157367860Y-73739271D02*
X157367860Y-73405938D01*
X157367860Y-73405938D02*
X157158336Y-73405938D01*
X157839288Y-73834510D02*
X157839288Y-72834510D01*
X157839288Y-72834510D02*
X158258336Y-72834510D01*
X158258336Y-72834510D02*
X158363098Y-72882129D01*
X158363098Y-72882129D02*
X158415479Y-72929748D01*
X158415479Y-72929748D02*
X158467860Y-73024986D01*
X158467860Y-73024986D02*
X158467860Y-73167843D01*
X158467860Y-73167843D02*
X158415479Y-73263081D01*
X158415479Y-73263081D02*
X158363098Y-73310700D01*
X158363098Y-73310700D02*
X158258336Y-73358319D01*
X158258336Y-73358319D02*
X157839288Y-73358319D01*
X158939288Y-73834510D02*
X158939288Y-72834510D01*
X159672622Y-72834510D02*
X159882146Y-72834510D01*
X159882146Y-72834510D02*
X159986908Y-72882129D01*
X159986908Y-72882129D02*
X160091670Y-72977367D01*
X160091670Y-72977367D02*
X160144051Y-73167843D01*
X160144051Y-73167843D02*
X160144051Y-73501176D01*
X160144051Y-73501176D02*
X160091670Y-73691652D01*
X160091670Y-73691652D02*
X159986908Y-73786891D01*
X159986908Y-73786891D02*
X159882146Y-73834510D01*
X159882146Y-73834510D02*
X159672622Y-73834510D01*
X159672622Y-73834510D02*
X159567860Y-73786891D01*
X159567860Y-73786891D02*
X159463098Y-73691652D01*
X159463098Y-73691652D02*
X159410717Y-73501176D01*
X159410717Y-73501176D02*
X159410717Y-73167843D01*
X159410717Y-73167843D02*
X159463098Y-72977367D01*
X159463098Y-72977367D02*
X159567860Y-72882129D01*
X159567860Y-72882129D02*
X159672622Y-72834510D01*
X161191670Y-73834510D02*
X160563098Y-73834510D01*
X160877384Y-73834510D02*
X160877384Y-72834510D01*
X160877384Y-72834510D02*
X160772622Y-72977367D01*
X160772622Y-72977367D02*
X160667860Y-73072605D01*
X160667860Y-73072605D02*
X160563098Y-73120224D01*
X161558336Y-72834510D02*
X162239289Y-72834510D01*
X162239289Y-72834510D02*
X161872622Y-73215462D01*
X161872622Y-73215462D02*
X162029765Y-73215462D01*
X162029765Y-73215462D02*
X162134527Y-73263081D01*
X162134527Y-73263081D02*
X162186908Y-73310700D01*
X162186908Y-73310700D02*
X162239289Y-73405938D01*
X162239289Y-73405938D02*
X162239289Y-73644033D01*
X162239289Y-73644033D02*
X162186908Y-73739271D01*
X162186908Y-73739271D02*
X162134527Y-73786891D01*
X162134527Y-73786891D02*
X162029765Y-73834510D01*
X162029765Y-73834510D02*
X161715479Y-73834510D01*
X161715479Y-73834510D02*
X161610717Y-73786891D01*
X161610717Y-73786891D02*
X161558336Y-73739271D01*
X157315479Y-57882129D02*
X157210717Y-57834510D01*
X157210717Y-57834510D02*
X157053574Y-57834510D01*
X157053574Y-57834510D02*
X156896431Y-57882129D01*
X156896431Y-57882129D02*
X156791669Y-57977367D01*
X156791669Y-57977367D02*
X156739288Y-58072605D01*
X156739288Y-58072605D02*
X156686907Y-58263081D01*
X156686907Y-58263081D02*
X156686907Y-58405938D01*
X156686907Y-58405938D02*
X156739288Y-58596414D01*
X156739288Y-58596414D02*
X156791669Y-58691652D01*
X156791669Y-58691652D02*
X156896431Y-58786891D01*
X156896431Y-58786891D02*
X157053574Y-58834510D01*
X157053574Y-58834510D02*
X157158336Y-58834510D01*
X157158336Y-58834510D02*
X157315479Y-58786891D01*
X157315479Y-58786891D02*
X157367860Y-58739271D01*
X157367860Y-58739271D02*
X157367860Y-58405938D01*
X157367860Y-58405938D02*
X157158336Y-58405938D01*
X157839288Y-58834510D02*
X157839288Y-57834510D01*
X157839288Y-57834510D02*
X158258336Y-57834510D01*
X158258336Y-57834510D02*
X158363098Y-57882129D01*
X158363098Y-57882129D02*
X158415479Y-57929748D01*
X158415479Y-57929748D02*
X158467860Y-58024986D01*
X158467860Y-58024986D02*
X158467860Y-58167843D01*
X158467860Y-58167843D02*
X158415479Y-58263081D01*
X158415479Y-58263081D02*
X158363098Y-58310700D01*
X158363098Y-58310700D02*
X158258336Y-58358319D01*
X158258336Y-58358319D02*
X157839288Y-58358319D01*
X158939288Y-58834510D02*
X158939288Y-57834510D01*
X159672622Y-57834510D02*
X159882146Y-57834510D01*
X159882146Y-57834510D02*
X159986908Y-57882129D01*
X159986908Y-57882129D02*
X160091670Y-57977367D01*
X160091670Y-57977367D02*
X160144051Y-58167843D01*
X160144051Y-58167843D02*
X160144051Y-58501176D01*
X160144051Y-58501176D02*
X160091670Y-58691652D01*
X160091670Y-58691652D02*
X159986908Y-58786891D01*
X159986908Y-58786891D02*
X159882146Y-58834510D01*
X159882146Y-58834510D02*
X159672622Y-58834510D01*
X159672622Y-58834510D02*
X159567860Y-58786891D01*
X159567860Y-58786891D02*
X159463098Y-58691652D01*
X159463098Y-58691652D02*
X159410717Y-58501176D01*
X159410717Y-58501176D02*
X159410717Y-58167843D01*
X159410717Y-58167843D02*
X159463098Y-57977367D01*
X159463098Y-57977367D02*
X159567860Y-57882129D01*
X159567860Y-57882129D02*
X159672622Y-57834510D01*
X160510717Y-57834510D02*
X161191670Y-57834510D01*
X161191670Y-57834510D02*
X160825003Y-58215462D01*
X160825003Y-58215462D02*
X160982146Y-58215462D01*
X160982146Y-58215462D02*
X161086908Y-58263081D01*
X161086908Y-58263081D02*
X161139289Y-58310700D01*
X161139289Y-58310700D02*
X161191670Y-58405938D01*
X161191670Y-58405938D02*
X161191670Y-58644033D01*
X161191670Y-58644033D02*
X161139289Y-58739271D01*
X161139289Y-58739271D02*
X161086908Y-58786891D01*
X161086908Y-58786891D02*
X160982146Y-58834510D01*
X160982146Y-58834510D02*
X160667860Y-58834510D01*
X160667860Y-58834510D02*
X160563098Y-58786891D01*
X160563098Y-58786891D02*
X160510717Y-58739271D01*
X161558336Y-57834510D02*
X162239289Y-57834510D01*
X162239289Y-57834510D02*
X161872622Y-58215462D01*
X161872622Y-58215462D02*
X162029765Y-58215462D01*
X162029765Y-58215462D02*
X162134527Y-58263081D01*
X162134527Y-58263081D02*
X162186908Y-58310700D01*
X162186908Y-58310700D02*
X162239289Y-58405938D01*
X162239289Y-58405938D02*
X162239289Y-58644033D01*
X162239289Y-58644033D02*
X162186908Y-58739271D01*
X162186908Y-58739271D02*
X162134527Y-58786891D01*
X162134527Y-58786891D02*
X162029765Y-58834510D01*
X162029765Y-58834510D02*
X161715479Y-58834510D01*
X161715479Y-58834510D02*
X161610717Y-58786891D01*
X161610717Y-58786891D02*
X161558336Y-58739271D01*
X157315479Y-75382129D02*
X157210717Y-75334510D01*
X157210717Y-75334510D02*
X157053574Y-75334510D01*
X157053574Y-75334510D02*
X156896431Y-75382129D01*
X156896431Y-75382129D02*
X156791669Y-75477367D01*
X156791669Y-75477367D02*
X156739288Y-75572605D01*
X156739288Y-75572605D02*
X156686907Y-75763081D01*
X156686907Y-75763081D02*
X156686907Y-75905938D01*
X156686907Y-75905938D02*
X156739288Y-76096414D01*
X156739288Y-76096414D02*
X156791669Y-76191652D01*
X156791669Y-76191652D02*
X156896431Y-76286891D01*
X156896431Y-76286891D02*
X157053574Y-76334510D01*
X157053574Y-76334510D02*
X157158336Y-76334510D01*
X157158336Y-76334510D02*
X157315479Y-76286891D01*
X157315479Y-76286891D02*
X157367860Y-76239271D01*
X157367860Y-76239271D02*
X157367860Y-75905938D01*
X157367860Y-75905938D02*
X157158336Y-75905938D01*
X157839288Y-76334510D02*
X157839288Y-75334510D01*
X157839288Y-75334510D02*
X158467860Y-76334510D01*
X158467860Y-76334510D02*
X158467860Y-75334510D01*
X158991669Y-76334510D02*
X158991669Y-75334510D01*
X158991669Y-75334510D02*
X159253574Y-75334510D01*
X159253574Y-75334510D02*
X159410717Y-75382129D01*
X159410717Y-75382129D02*
X159515479Y-75477367D01*
X159515479Y-75477367D02*
X159567860Y-75572605D01*
X159567860Y-75572605D02*
X159620241Y-75763081D01*
X159620241Y-75763081D02*
X159620241Y-75905938D01*
X159620241Y-75905938D02*
X159567860Y-76096414D01*
X159567860Y-76096414D02*
X159515479Y-76191652D01*
X159515479Y-76191652D02*
X159410717Y-76286891D01*
X159410717Y-76286891D02*
X159253574Y-76334510D01*
X159253574Y-76334510D02*
X158991669Y-76334510D01*
X157315479Y-65382129D02*
X157210717Y-65334510D01*
X157210717Y-65334510D02*
X157053574Y-65334510D01*
X157053574Y-65334510D02*
X156896431Y-65382129D01*
X156896431Y-65382129D02*
X156791669Y-65477367D01*
X156791669Y-65477367D02*
X156739288Y-65572605D01*
X156739288Y-65572605D02*
X156686907Y-65763081D01*
X156686907Y-65763081D02*
X156686907Y-65905938D01*
X156686907Y-65905938D02*
X156739288Y-66096414D01*
X156739288Y-66096414D02*
X156791669Y-66191652D01*
X156791669Y-66191652D02*
X156896431Y-66286891D01*
X156896431Y-66286891D02*
X157053574Y-66334510D01*
X157053574Y-66334510D02*
X157158336Y-66334510D01*
X157158336Y-66334510D02*
X157315479Y-66286891D01*
X157315479Y-66286891D02*
X157367860Y-66239271D01*
X157367860Y-66239271D02*
X157367860Y-65905938D01*
X157367860Y-65905938D02*
X157158336Y-65905938D01*
X157839288Y-66334510D02*
X157839288Y-65334510D01*
X157839288Y-65334510D02*
X158258336Y-65334510D01*
X158258336Y-65334510D02*
X158363098Y-65382129D01*
X158363098Y-65382129D02*
X158415479Y-65429748D01*
X158415479Y-65429748D02*
X158467860Y-65524986D01*
X158467860Y-65524986D02*
X158467860Y-65667843D01*
X158467860Y-65667843D02*
X158415479Y-65763081D01*
X158415479Y-65763081D02*
X158363098Y-65810700D01*
X158363098Y-65810700D02*
X158258336Y-65858319D01*
X158258336Y-65858319D02*
X157839288Y-65858319D01*
X158939288Y-66334510D02*
X158939288Y-65334510D01*
X159672622Y-65334510D02*
X159882146Y-65334510D01*
X159882146Y-65334510D02*
X159986908Y-65382129D01*
X159986908Y-65382129D02*
X160091670Y-65477367D01*
X160091670Y-65477367D02*
X160144051Y-65667843D01*
X160144051Y-65667843D02*
X160144051Y-66001176D01*
X160144051Y-66001176D02*
X160091670Y-66191652D01*
X160091670Y-66191652D02*
X159986908Y-66286891D01*
X159986908Y-66286891D02*
X159882146Y-66334510D01*
X159882146Y-66334510D02*
X159672622Y-66334510D01*
X159672622Y-66334510D02*
X159567860Y-66286891D01*
X159567860Y-66286891D02*
X159463098Y-66191652D01*
X159463098Y-66191652D02*
X159410717Y-66001176D01*
X159410717Y-66001176D02*
X159410717Y-65667843D01*
X159410717Y-65667843D02*
X159463098Y-65477367D01*
X159463098Y-65477367D02*
X159567860Y-65382129D01*
X159567860Y-65382129D02*
X159672622Y-65334510D01*
X160563098Y-65429748D02*
X160615479Y-65382129D01*
X160615479Y-65382129D02*
X160720241Y-65334510D01*
X160720241Y-65334510D02*
X160982146Y-65334510D01*
X160982146Y-65334510D02*
X161086908Y-65382129D01*
X161086908Y-65382129D02*
X161139289Y-65429748D01*
X161139289Y-65429748D02*
X161191670Y-65524986D01*
X161191670Y-65524986D02*
X161191670Y-65620224D01*
X161191670Y-65620224D02*
X161139289Y-65763081D01*
X161139289Y-65763081D02*
X160510717Y-66334510D01*
X160510717Y-66334510D02*
X161191670Y-66334510D01*
X161558336Y-65334510D02*
X162291670Y-65334510D01*
X162291670Y-65334510D02*
X161820241Y-66334510D01*
X175815479Y-47382129D02*
X175710717Y-47334510D01*
X175710717Y-47334510D02*
X175553574Y-47334510D01*
X175553574Y-47334510D02*
X175396431Y-47382129D01*
X175396431Y-47382129D02*
X175291669Y-47477367D01*
X175291669Y-47477367D02*
X175239288Y-47572605D01*
X175239288Y-47572605D02*
X175186907Y-47763081D01*
X175186907Y-47763081D02*
X175186907Y-47905938D01*
X175186907Y-47905938D02*
X175239288Y-48096414D01*
X175239288Y-48096414D02*
X175291669Y-48191652D01*
X175291669Y-48191652D02*
X175396431Y-48286891D01*
X175396431Y-48286891D02*
X175553574Y-48334510D01*
X175553574Y-48334510D02*
X175658336Y-48334510D01*
X175658336Y-48334510D02*
X175815479Y-48286891D01*
X175815479Y-48286891D02*
X175867860Y-48239271D01*
X175867860Y-48239271D02*
X175867860Y-47905938D01*
X175867860Y-47905938D02*
X175658336Y-47905938D01*
X176339288Y-48334510D02*
X176339288Y-47334510D01*
X176339288Y-47334510D02*
X176758336Y-47334510D01*
X176758336Y-47334510D02*
X176863098Y-47382129D01*
X176863098Y-47382129D02*
X176915479Y-47429748D01*
X176915479Y-47429748D02*
X176967860Y-47524986D01*
X176967860Y-47524986D02*
X176967860Y-47667843D01*
X176967860Y-47667843D02*
X176915479Y-47763081D01*
X176915479Y-47763081D02*
X176863098Y-47810700D01*
X176863098Y-47810700D02*
X176758336Y-47858319D01*
X176758336Y-47858319D02*
X176339288Y-47858319D01*
X177439288Y-48334510D02*
X177439288Y-47334510D01*
X178172622Y-47334510D02*
X178382146Y-47334510D01*
X178382146Y-47334510D02*
X178486908Y-47382129D01*
X178486908Y-47382129D02*
X178591670Y-47477367D01*
X178591670Y-47477367D02*
X178644051Y-47667843D01*
X178644051Y-47667843D02*
X178644051Y-48001176D01*
X178644051Y-48001176D02*
X178591670Y-48191652D01*
X178591670Y-48191652D02*
X178486908Y-48286891D01*
X178486908Y-48286891D02*
X178382146Y-48334510D01*
X178382146Y-48334510D02*
X178172622Y-48334510D01*
X178172622Y-48334510D02*
X178067860Y-48286891D01*
X178067860Y-48286891D02*
X177963098Y-48191652D01*
X177963098Y-48191652D02*
X177910717Y-48001176D01*
X177910717Y-48001176D02*
X177910717Y-47667843D01*
X177910717Y-47667843D02*
X177963098Y-47477367D01*
X177963098Y-47477367D02*
X178067860Y-47382129D01*
X178067860Y-47382129D02*
X178172622Y-47334510D01*
X179691670Y-48334510D02*
X179063098Y-48334510D01*
X179377384Y-48334510D02*
X179377384Y-47334510D01*
X179377384Y-47334510D02*
X179272622Y-47477367D01*
X179272622Y-47477367D02*
X179167860Y-47572605D01*
X179167860Y-47572605D02*
X179063098Y-47620224D01*
X176634526Y-77834510D02*
X177315479Y-77834510D01*
X177315479Y-77834510D02*
X176948812Y-78215462D01*
X176948812Y-78215462D02*
X177105955Y-78215462D01*
X177105955Y-78215462D02*
X177210717Y-78263081D01*
X177210717Y-78263081D02*
X177263098Y-78310700D01*
X177263098Y-78310700D02*
X177315479Y-78405938D01*
X177315479Y-78405938D02*
X177315479Y-78644033D01*
X177315479Y-78644033D02*
X177263098Y-78739271D01*
X177263098Y-78739271D02*
X177210717Y-78786891D01*
X177210717Y-78786891D02*
X177105955Y-78834510D01*
X177105955Y-78834510D02*
X176791669Y-78834510D01*
X176791669Y-78834510D02*
X176686907Y-78786891D01*
X176686907Y-78786891D02*
X176634526Y-78739271D01*
X177786907Y-78739271D02*
X177839288Y-78786891D01*
X177839288Y-78786891D02*
X177786907Y-78834510D01*
X177786907Y-78834510D02*
X177734526Y-78786891D01*
X177734526Y-78786891D02*
X177786907Y-78739271D01*
X177786907Y-78739271D02*
X177786907Y-78834510D01*
X178205955Y-77834510D02*
X178886908Y-77834510D01*
X178886908Y-77834510D02*
X178520241Y-78215462D01*
X178520241Y-78215462D02*
X178677384Y-78215462D01*
X178677384Y-78215462D02*
X178782146Y-78263081D01*
X178782146Y-78263081D02*
X178834527Y-78310700D01*
X178834527Y-78310700D02*
X178886908Y-78405938D01*
X178886908Y-78405938D02*
X178886908Y-78644033D01*
X178886908Y-78644033D02*
X178834527Y-78739271D01*
X178834527Y-78739271D02*
X178782146Y-78786891D01*
X178782146Y-78786891D02*
X178677384Y-78834510D01*
X178677384Y-78834510D02*
X178363098Y-78834510D01*
X178363098Y-78834510D02*
X178258336Y-78786891D01*
X178258336Y-78786891D02*
X178205955Y-78739271D01*
X179253574Y-78167843D02*
X179515479Y-78834510D01*
X179515479Y-78834510D02*
X179777384Y-78167843D01*
X174815479Y-55382129D02*
X174710717Y-55334510D01*
X174710717Y-55334510D02*
X174553574Y-55334510D01*
X174553574Y-55334510D02*
X174396431Y-55382129D01*
X174396431Y-55382129D02*
X174291669Y-55477367D01*
X174291669Y-55477367D02*
X174239288Y-55572605D01*
X174239288Y-55572605D02*
X174186907Y-55763081D01*
X174186907Y-55763081D02*
X174186907Y-55905938D01*
X174186907Y-55905938D02*
X174239288Y-56096414D01*
X174239288Y-56096414D02*
X174291669Y-56191652D01*
X174291669Y-56191652D02*
X174396431Y-56286891D01*
X174396431Y-56286891D02*
X174553574Y-56334510D01*
X174553574Y-56334510D02*
X174658336Y-56334510D01*
X174658336Y-56334510D02*
X174815479Y-56286891D01*
X174815479Y-56286891D02*
X174867860Y-56239271D01*
X174867860Y-56239271D02*
X174867860Y-55905938D01*
X174867860Y-55905938D02*
X174658336Y-55905938D01*
X175339288Y-56334510D02*
X175339288Y-55334510D01*
X175339288Y-55334510D02*
X175758336Y-55334510D01*
X175758336Y-55334510D02*
X175863098Y-55382129D01*
X175863098Y-55382129D02*
X175915479Y-55429748D01*
X175915479Y-55429748D02*
X175967860Y-55524986D01*
X175967860Y-55524986D02*
X175967860Y-55667843D01*
X175967860Y-55667843D02*
X175915479Y-55763081D01*
X175915479Y-55763081D02*
X175863098Y-55810700D01*
X175863098Y-55810700D02*
X175758336Y-55858319D01*
X175758336Y-55858319D02*
X175339288Y-55858319D01*
X176439288Y-56334510D02*
X176439288Y-55334510D01*
X177172622Y-55334510D02*
X177382146Y-55334510D01*
X177382146Y-55334510D02*
X177486908Y-55382129D01*
X177486908Y-55382129D02*
X177591670Y-55477367D01*
X177591670Y-55477367D02*
X177644051Y-55667843D01*
X177644051Y-55667843D02*
X177644051Y-56001176D01*
X177644051Y-56001176D02*
X177591670Y-56191652D01*
X177591670Y-56191652D02*
X177486908Y-56286891D01*
X177486908Y-56286891D02*
X177382146Y-56334510D01*
X177382146Y-56334510D02*
X177172622Y-56334510D01*
X177172622Y-56334510D02*
X177067860Y-56286891D01*
X177067860Y-56286891D02*
X176963098Y-56191652D01*
X176963098Y-56191652D02*
X176910717Y-56001176D01*
X176910717Y-56001176D02*
X176910717Y-55667843D01*
X176910717Y-55667843D02*
X176963098Y-55477367D01*
X176963098Y-55477367D02*
X177067860Y-55382129D01*
X177067860Y-55382129D02*
X177172622Y-55334510D01*
X178691670Y-56334510D02*
X178063098Y-56334510D01*
X178377384Y-56334510D02*
X178377384Y-55334510D01*
X178377384Y-55334510D02*
X178272622Y-55477367D01*
X178272622Y-55477367D02*
X178167860Y-55572605D01*
X178167860Y-55572605D02*
X178063098Y-55620224D01*
X179215479Y-56334510D02*
X179425003Y-56334510D01*
X179425003Y-56334510D02*
X179529765Y-56286891D01*
X179529765Y-56286891D02*
X179582146Y-56239271D01*
X179582146Y-56239271D02*
X179686908Y-56096414D01*
X179686908Y-56096414D02*
X179739289Y-55905938D01*
X179739289Y-55905938D02*
X179739289Y-55524986D01*
X179739289Y-55524986D02*
X179686908Y-55429748D01*
X179686908Y-55429748D02*
X179634527Y-55382129D01*
X179634527Y-55382129D02*
X179529765Y-55334510D01*
X179529765Y-55334510D02*
X179320241Y-55334510D01*
X179320241Y-55334510D02*
X179215479Y-55382129D01*
X179215479Y-55382129D02*
X179163098Y-55429748D01*
X179163098Y-55429748D02*
X179110717Y-55524986D01*
X179110717Y-55524986D02*
X179110717Y-55763081D01*
X179110717Y-55763081D02*
X179163098Y-55858319D01*
X179163098Y-55858319D02*
X179215479Y-55905938D01*
X179215479Y-55905938D02*
X179320241Y-55953557D01*
X179320241Y-55953557D02*
X179529765Y-55953557D01*
X179529765Y-55953557D02*
X179634527Y-55905938D01*
X179634527Y-55905938D02*
X179686908Y-55858319D01*
X179686908Y-55858319D02*
X179739289Y-55763081D01*
X174815479Y-57882129D02*
X174710717Y-57834510D01*
X174710717Y-57834510D02*
X174553574Y-57834510D01*
X174553574Y-57834510D02*
X174396431Y-57882129D01*
X174396431Y-57882129D02*
X174291669Y-57977367D01*
X174291669Y-57977367D02*
X174239288Y-58072605D01*
X174239288Y-58072605D02*
X174186907Y-58263081D01*
X174186907Y-58263081D02*
X174186907Y-58405938D01*
X174186907Y-58405938D02*
X174239288Y-58596414D01*
X174239288Y-58596414D02*
X174291669Y-58691652D01*
X174291669Y-58691652D02*
X174396431Y-58786891D01*
X174396431Y-58786891D02*
X174553574Y-58834510D01*
X174553574Y-58834510D02*
X174658336Y-58834510D01*
X174658336Y-58834510D02*
X174815479Y-58786891D01*
X174815479Y-58786891D02*
X174867860Y-58739271D01*
X174867860Y-58739271D02*
X174867860Y-58405938D01*
X174867860Y-58405938D02*
X174658336Y-58405938D01*
X175339288Y-58834510D02*
X175339288Y-57834510D01*
X175339288Y-57834510D02*
X175758336Y-57834510D01*
X175758336Y-57834510D02*
X175863098Y-57882129D01*
X175863098Y-57882129D02*
X175915479Y-57929748D01*
X175915479Y-57929748D02*
X175967860Y-58024986D01*
X175967860Y-58024986D02*
X175967860Y-58167843D01*
X175967860Y-58167843D02*
X175915479Y-58263081D01*
X175915479Y-58263081D02*
X175863098Y-58310700D01*
X175863098Y-58310700D02*
X175758336Y-58358319D01*
X175758336Y-58358319D02*
X175339288Y-58358319D01*
X176439288Y-58834510D02*
X176439288Y-57834510D01*
X177172622Y-57834510D02*
X177382146Y-57834510D01*
X177382146Y-57834510D02*
X177486908Y-57882129D01*
X177486908Y-57882129D02*
X177591670Y-57977367D01*
X177591670Y-57977367D02*
X177644051Y-58167843D01*
X177644051Y-58167843D02*
X177644051Y-58501176D01*
X177644051Y-58501176D02*
X177591670Y-58691652D01*
X177591670Y-58691652D02*
X177486908Y-58786891D01*
X177486908Y-58786891D02*
X177382146Y-58834510D01*
X177382146Y-58834510D02*
X177172622Y-58834510D01*
X177172622Y-58834510D02*
X177067860Y-58786891D01*
X177067860Y-58786891D02*
X176963098Y-58691652D01*
X176963098Y-58691652D02*
X176910717Y-58501176D01*
X176910717Y-58501176D02*
X176910717Y-58167843D01*
X176910717Y-58167843D02*
X176963098Y-57977367D01*
X176963098Y-57977367D02*
X177067860Y-57882129D01*
X177067860Y-57882129D02*
X177172622Y-57834510D01*
X178691670Y-58834510D02*
X178063098Y-58834510D01*
X178377384Y-58834510D02*
X178377384Y-57834510D01*
X178377384Y-57834510D02*
X178272622Y-57977367D01*
X178272622Y-57977367D02*
X178167860Y-58072605D01*
X178167860Y-58072605D02*
X178063098Y-58120224D01*
X179320241Y-58263081D02*
X179215479Y-58215462D01*
X179215479Y-58215462D02*
X179163098Y-58167843D01*
X179163098Y-58167843D02*
X179110717Y-58072605D01*
X179110717Y-58072605D02*
X179110717Y-58024986D01*
X179110717Y-58024986D02*
X179163098Y-57929748D01*
X179163098Y-57929748D02*
X179215479Y-57882129D01*
X179215479Y-57882129D02*
X179320241Y-57834510D01*
X179320241Y-57834510D02*
X179529765Y-57834510D01*
X179529765Y-57834510D02*
X179634527Y-57882129D01*
X179634527Y-57882129D02*
X179686908Y-57929748D01*
X179686908Y-57929748D02*
X179739289Y-58024986D01*
X179739289Y-58024986D02*
X179739289Y-58072605D01*
X179739289Y-58072605D02*
X179686908Y-58167843D01*
X179686908Y-58167843D02*
X179634527Y-58215462D01*
X179634527Y-58215462D02*
X179529765Y-58263081D01*
X179529765Y-58263081D02*
X179320241Y-58263081D01*
X179320241Y-58263081D02*
X179215479Y-58310700D01*
X179215479Y-58310700D02*
X179163098Y-58358319D01*
X179163098Y-58358319D02*
X179110717Y-58453557D01*
X179110717Y-58453557D02*
X179110717Y-58644033D01*
X179110717Y-58644033D02*
X179163098Y-58739271D01*
X179163098Y-58739271D02*
X179215479Y-58786891D01*
X179215479Y-58786891D02*
X179320241Y-58834510D01*
X179320241Y-58834510D02*
X179529765Y-58834510D01*
X179529765Y-58834510D02*
X179634527Y-58786891D01*
X179634527Y-58786891D02*
X179686908Y-58739271D01*
X179686908Y-58739271D02*
X179739289Y-58644033D01*
X179739289Y-58644033D02*
X179739289Y-58453557D01*
X179739289Y-58453557D02*
X179686908Y-58358319D01*
X179686908Y-58358319D02*
X179634527Y-58310700D01*
X179634527Y-58310700D02*
X179529765Y-58263081D01*
X167215479Y-86347420D02*
X167215479Y-87156943D01*
X167215479Y-87156943D02*
X167263098Y-87252181D01*
X167263098Y-87252181D02*
X167310717Y-87299801D01*
X167310717Y-87299801D02*
X167405955Y-87347420D01*
X167405955Y-87347420D02*
X167596431Y-87347420D01*
X167596431Y-87347420D02*
X167691669Y-87299801D01*
X167691669Y-87299801D02*
X167739288Y-87252181D01*
X167739288Y-87252181D02*
X167786907Y-87156943D01*
X167786907Y-87156943D02*
X167786907Y-86347420D01*
X168215479Y-87299801D02*
X168358336Y-87347420D01*
X168358336Y-87347420D02*
X168596431Y-87347420D01*
X168596431Y-87347420D02*
X168691669Y-87299801D01*
X168691669Y-87299801D02*
X168739288Y-87252181D01*
X168739288Y-87252181D02*
X168786907Y-87156943D01*
X168786907Y-87156943D02*
X168786907Y-87061705D01*
X168786907Y-87061705D02*
X168739288Y-86966467D01*
X168739288Y-86966467D02*
X168691669Y-86918848D01*
X168691669Y-86918848D02*
X168596431Y-86871229D01*
X168596431Y-86871229D02*
X168405955Y-86823610D01*
X168405955Y-86823610D02*
X168310717Y-86775991D01*
X168310717Y-86775991D02*
X168263098Y-86728372D01*
X168263098Y-86728372D02*
X168215479Y-86633134D01*
X168215479Y-86633134D02*
X168215479Y-86537896D01*
X168215479Y-86537896D02*
X168263098Y-86442658D01*
X168263098Y-86442658D02*
X168310717Y-86395039D01*
X168310717Y-86395039D02*
X168405955Y-86347420D01*
X168405955Y-86347420D02*
X168644050Y-86347420D01*
X168644050Y-86347420D02*
X168786907Y-86395039D01*
X169548812Y-86823610D02*
X169691669Y-86871229D01*
X169691669Y-86871229D02*
X169739288Y-86918848D01*
X169739288Y-86918848D02*
X169786907Y-87014086D01*
X169786907Y-87014086D02*
X169786907Y-87156943D01*
X169786907Y-87156943D02*
X169739288Y-87252181D01*
X169739288Y-87252181D02*
X169691669Y-87299801D01*
X169691669Y-87299801D02*
X169596431Y-87347420D01*
X169596431Y-87347420D02*
X169215479Y-87347420D01*
X169215479Y-87347420D02*
X169215479Y-86347420D01*
X169215479Y-86347420D02*
X169548812Y-86347420D01*
X169548812Y-86347420D02*
X169644050Y-86395039D01*
X169644050Y-86395039D02*
X169691669Y-86442658D01*
X169691669Y-86442658D02*
X169739288Y-86537896D01*
X169739288Y-86537896D02*
X169739288Y-86633134D01*
X169739288Y-86633134D02*
X169691669Y-86728372D01*
X169691669Y-86728372D02*
X169644050Y-86775991D01*
X169644050Y-86775991D02*
X169548812Y-86823610D01*
X169548812Y-86823610D02*
X169215479Y-86823610D01*
X174815479Y-42382129D02*
X174710717Y-42334510D01*
X174710717Y-42334510D02*
X174553574Y-42334510D01*
X174553574Y-42334510D02*
X174396431Y-42382129D01*
X174396431Y-42382129D02*
X174291669Y-42477367D01*
X174291669Y-42477367D02*
X174239288Y-42572605D01*
X174239288Y-42572605D02*
X174186907Y-42763081D01*
X174186907Y-42763081D02*
X174186907Y-42905938D01*
X174186907Y-42905938D02*
X174239288Y-43096414D01*
X174239288Y-43096414D02*
X174291669Y-43191652D01*
X174291669Y-43191652D02*
X174396431Y-43286891D01*
X174396431Y-43286891D02*
X174553574Y-43334510D01*
X174553574Y-43334510D02*
X174658336Y-43334510D01*
X174658336Y-43334510D02*
X174815479Y-43286891D01*
X174815479Y-43286891D02*
X174867860Y-43239271D01*
X174867860Y-43239271D02*
X174867860Y-42905938D01*
X174867860Y-42905938D02*
X174658336Y-42905938D01*
X175339288Y-43334510D02*
X175339288Y-42334510D01*
X175339288Y-42334510D02*
X175758336Y-42334510D01*
X175758336Y-42334510D02*
X175863098Y-42382129D01*
X175863098Y-42382129D02*
X175915479Y-42429748D01*
X175915479Y-42429748D02*
X175967860Y-42524986D01*
X175967860Y-42524986D02*
X175967860Y-42667843D01*
X175967860Y-42667843D02*
X175915479Y-42763081D01*
X175915479Y-42763081D02*
X175863098Y-42810700D01*
X175863098Y-42810700D02*
X175758336Y-42858319D01*
X175758336Y-42858319D02*
X175339288Y-42858319D01*
X176439288Y-43334510D02*
X176439288Y-42334510D01*
X177172622Y-42334510D02*
X177382146Y-42334510D01*
X177382146Y-42334510D02*
X177486908Y-42382129D01*
X177486908Y-42382129D02*
X177591670Y-42477367D01*
X177591670Y-42477367D02*
X177644051Y-42667843D01*
X177644051Y-42667843D02*
X177644051Y-43001176D01*
X177644051Y-43001176D02*
X177591670Y-43191652D01*
X177591670Y-43191652D02*
X177486908Y-43286891D01*
X177486908Y-43286891D02*
X177382146Y-43334510D01*
X177382146Y-43334510D02*
X177172622Y-43334510D01*
X177172622Y-43334510D02*
X177067860Y-43286891D01*
X177067860Y-43286891D02*
X176963098Y-43191652D01*
X176963098Y-43191652D02*
X176910717Y-43001176D01*
X176910717Y-43001176D02*
X176910717Y-42667843D01*
X176910717Y-42667843D02*
X176963098Y-42477367D01*
X176963098Y-42477367D02*
X177067860Y-42382129D01*
X177067860Y-42382129D02*
X177172622Y-42334510D01*
X178063098Y-42429748D02*
X178115479Y-42382129D01*
X178115479Y-42382129D02*
X178220241Y-42334510D01*
X178220241Y-42334510D02*
X178482146Y-42334510D01*
X178482146Y-42334510D02*
X178586908Y-42382129D01*
X178586908Y-42382129D02*
X178639289Y-42429748D01*
X178639289Y-42429748D02*
X178691670Y-42524986D01*
X178691670Y-42524986D02*
X178691670Y-42620224D01*
X178691670Y-42620224D02*
X178639289Y-42763081D01*
X178639289Y-42763081D02*
X178010717Y-43334510D01*
X178010717Y-43334510D02*
X178691670Y-43334510D01*
X179058336Y-42334510D02*
X179739289Y-42334510D01*
X179739289Y-42334510D02*
X179372622Y-42715462D01*
X179372622Y-42715462D02*
X179529765Y-42715462D01*
X179529765Y-42715462D02*
X179634527Y-42763081D01*
X179634527Y-42763081D02*
X179686908Y-42810700D01*
X179686908Y-42810700D02*
X179739289Y-42905938D01*
X179739289Y-42905938D02*
X179739289Y-43144033D01*
X179739289Y-43144033D02*
X179686908Y-43239271D01*
X179686908Y-43239271D02*
X179634527Y-43286891D01*
X179634527Y-43286891D02*
X179529765Y-43334510D01*
X179529765Y-43334510D02*
X179215479Y-43334510D01*
X179215479Y-43334510D02*
X179110717Y-43286891D01*
X179110717Y-43286891D02*
X179058336Y-43239271D01*
X157315479Y-62882129D02*
X157210717Y-62834510D01*
X157210717Y-62834510D02*
X157053574Y-62834510D01*
X157053574Y-62834510D02*
X156896431Y-62882129D01*
X156896431Y-62882129D02*
X156791669Y-62977367D01*
X156791669Y-62977367D02*
X156739288Y-63072605D01*
X156739288Y-63072605D02*
X156686907Y-63263081D01*
X156686907Y-63263081D02*
X156686907Y-63405938D01*
X156686907Y-63405938D02*
X156739288Y-63596414D01*
X156739288Y-63596414D02*
X156791669Y-63691652D01*
X156791669Y-63691652D02*
X156896431Y-63786891D01*
X156896431Y-63786891D02*
X157053574Y-63834510D01*
X157053574Y-63834510D02*
X157158336Y-63834510D01*
X157158336Y-63834510D02*
X157315479Y-63786891D01*
X157315479Y-63786891D02*
X157367860Y-63739271D01*
X157367860Y-63739271D02*
X157367860Y-63405938D01*
X157367860Y-63405938D02*
X157158336Y-63405938D01*
X157839288Y-63834510D02*
X157839288Y-62834510D01*
X157839288Y-62834510D02*
X158258336Y-62834510D01*
X158258336Y-62834510D02*
X158363098Y-62882129D01*
X158363098Y-62882129D02*
X158415479Y-62929748D01*
X158415479Y-62929748D02*
X158467860Y-63024986D01*
X158467860Y-63024986D02*
X158467860Y-63167843D01*
X158467860Y-63167843D02*
X158415479Y-63263081D01*
X158415479Y-63263081D02*
X158363098Y-63310700D01*
X158363098Y-63310700D02*
X158258336Y-63358319D01*
X158258336Y-63358319D02*
X157839288Y-63358319D01*
X158939288Y-63834510D02*
X158939288Y-62834510D01*
X159672622Y-62834510D02*
X159882146Y-62834510D01*
X159882146Y-62834510D02*
X159986908Y-62882129D01*
X159986908Y-62882129D02*
X160091670Y-62977367D01*
X160091670Y-62977367D02*
X160144051Y-63167843D01*
X160144051Y-63167843D02*
X160144051Y-63501176D01*
X160144051Y-63501176D02*
X160091670Y-63691652D01*
X160091670Y-63691652D02*
X159986908Y-63786891D01*
X159986908Y-63786891D02*
X159882146Y-63834510D01*
X159882146Y-63834510D02*
X159672622Y-63834510D01*
X159672622Y-63834510D02*
X159567860Y-63786891D01*
X159567860Y-63786891D02*
X159463098Y-63691652D01*
X159463098Y-63691652D02*
X159410717Y-63501176D01*
X159410717Y-63501176D02*
X159410717Y-63167843D01*
X159410717Y-63167843D02*
X159463098Y-62977367D01*
X159463098Y-62977367D02*
X159567860Y-62882129D01*
X159567860Y-62882129D02*
X159672622Y-62834510D01*
X160563098Y-62929748D02*
X160615479Y-62882129D01*
X160615479Y-62882129D02*
X160720241Y-62834510D01*
X160720241Y-62834510D02*
X160982146Y-62834510D01*
X160982146Y-62834510D02*
X161086908Y-62882129D01*
X161086908Y-62882129D02*
X161139289Y-62929748D01*
X161139289Y-62929748D02*
X161191670Y-63024986D01*
X161191670Y-63024986D02*
X161191670Y-63120224D01*
X161191670Y-63120224D02*
X161139289Y-63263081D01*
X161139289Y-63263081D02*
X160510717Y-63834510D01*
X160510717Y-63834510D02*
X161191670Y-63834510D01*
X162134527Y-62834510D02*
X161925003Y-62834510D01*
X161925003Y-62834510D02*
X161820241Y-62882129D01*
X161820241Y-62882129D02*
X161767860Y-62929748D01*
X161767860Y-62929748D02*
X161663098Y-63072605D01*
X161663098Y-63072605D02*
X161610717Y-63263081D01*
X161610717Y-63263081D02*
X161610717Y-63644033D01*
X161610717Y-63644033D02*
X161663098Y-63739271D01*
X161663098Y-63739271D02*
X161715479Y-63786891D01*
X161715479Y-63786891D02*
X161820241Y-63834510D01*
X161820241Y-63834510D02*
X162029765Y-63834510D01*
X162029765Y-63834510D02*
X162134527Y-63786891D01*
X162134527Y-63786891D02*
X162186908Y-63739271D01*
X162186908Y-63739271D02*
X162239289Y-63644033D01*
X162239289Y-63644033D02*
X162239289Y-63405938D01*
X162239289Y-63405938D02*
X162186908Y-63310700D01*
X162186908Y-63310700D02*
X162134527Y-63263081D01*
X162134527Y-63263081D02*
X162029765Y-63215462D01*
X162029765Y-63215462D02*
X161820241Y-63215462D01*
X161820241Y-63215462D02*
X161715479Y-63263081D01*
X161715479Y-63263081D02*
X161663098Y-63310700D01*
X161663098Y-63310700D02*
X161610717Y-63405938D01*
X157315479Y-45382129D02*
X157210717Y-45334510D01*
X157210717Y-45334510D02*
X157053574Y-45334510D01*
X157053574Y-45334510D02*
X156896431Y-45382129D01*
X156896431Y-45382129D02*
X156791669Y-45477367D01*
X156791669Y-45477367D02*
X156739288Y-45572605D01*
X156739288Y-45572605D02*
X156686907Y-45763081D01*
X156686907Y-45763081D02*
X156686907Y-45905938D01*
X156686907Y-45905938D02*
X156739288Y-46096414D01*
X156739288Y-46096414D02*
X156791669Y-46191652D01*
X156791669Y-46191652D02*
X156896431Y-46286891D01*
X156896431Y-46286891D02*
X157053574Y-46334510D01*
X157053574Y-46334510D02*
X157158336Y-46334510D01*
X157158336Y-46334510D02*
X157315479Y-46286891D01*
X157315479Y-46286891D02*
X157367860Y-46239271D01*
X157367860Y-46239271D02*
X157367860Y-45905938D01*
X157367860Y-45905938D02*
X157158336Y-45905938D01*
X157839288Y-46334510D02*
X157839288Y-45334510D01*
X157839288Y-45334510D02*
X158258336Y-45334510D01*
X158258336Y-45334510D02*
X158363098Y-45382129D01*
X158363098Y-45382129D02*
X158415479Y-45429748D01*
X158415479Y-45429748D02*
X158467860Y-45524986D01*
X158467860Y-45524986D02*
X158467860Y-45667843D01*
X158467860Y-45667843D02*
X158415479Y-45763081D01*
X158415479Y-45763081D02*
X158363098Y-45810700D01*
X158363098Y-45810700D02*
X158258336Y-45858319D01*
X158258336Y-45858319D02*
X157839288Y-45858319D01*
X158939288Y-46334510D02*
X158939288Y-45334510D01*
X159672622Y-45334510D02*
X159882146Y-45334510D01*
X159882146Y-45334510D02*
X159986908Y-45382129D01*
X159986908Y-45382129D02*
X160091670Y-45477367D01*
X160091670Y-45477367D02*
X160144051Y-45667843D01*
X160144051Y-45667843D02*
X160144051Y-46001176D01*
X160144051Y-46001176D02*
X160091670Y-46191652D01*
X160091670Y-46191652D02*
X159986908Y-46286891D01*
X159986908Y-46286891D02*
X159882146Y-46334510D01*
X159882146Y-46334510D02*
X159672622Y-46334510D01*
X159672622Y-46334510D02*
X159567860Y-46286891D01*
X159567860Y-46286891D02*
X159463098Y-46191652D01*
X159463098Y-46191652D02*
X159410717Y-46001176D01*
X159410717Y-46001176D02*
X159410717Y-45667843D01*
X159410717Y-45667843D02*
X159463098Y-45477367D01*
X159463098Y-45477367D02*
X159567860Y-45382129D01*
X159567860Y-45382129D02*
X159672622Y-45334510D01*
X160510717Y-45334510D02*
X161191670Y-45334510D01*
X161191670Y-45334510D02*
X160825003Y-45715462D01*
X160825003Y-45715462D02*
X160982146Y-45715462D01*
X160982146Y-45715462D02*
X161086908Y-45763081D01*
X161086908Y-45763081D02*
X161139289Y-45810700D01*
X161139289Y-45810700D02*
X161191670Y-45905938D01*
X161191670Y-45905938D02*
X161191670Y-46144033D01*
X161191670Y-46144033D02*
X161139289Y-46239271D01*
X161139289Y-46239271D02*
X161086908Y-46286891D01*
X161086908Y-46286891D02*
X160982146Y-46334510D01*
X160982146Y-46334510D02*
X160667860Y-46334510D01*
X160667860Y-46334510D02*
X160563098Y-46286891D01*
X160563098Y-46286891D02*
X160510717Y-46239271D01*
X162134527Y-45334510D02*
X161925003Y-45334510D01*
X161925003Y-45334510D02*
X161820241Y-45382129D01*
X161820241Y-45382129D02*
X161767860Y-45429748D01*
X161767860Y-45429748D02*
X161663098Y-45572605D01*
X161663098Y-45572605D02*
X161610717Y-45763081D01*
X161610717Y-45763081D02*
X161610717Y-46144033D01*
X161610717Y-46144033D02*
X161663098Y-46239271D01*
X161663098Y-46239271D02*
X161715479Y-46286891D01*
X161715479Y-46286891D02*
X161820241Y-46334510D01*
X161820241Y-46334510D02*
X162029765Y-46334510D01*
X162029765Y-46334510D02*
X162134527Y-46286891D01*
X162134527Y-46286891D02*
X162186908Y-46239271D01*
X162186908Y-46239271D02*
X162239289Y-46144033D01*
X162239289Y-46144033D02*
X162239289Y-45905938D01*
X162239289Y-45905938D02*
X162186908Y-45810700D01*
X162186908Y-45810700D02*
X162134527Y-45763081D01*
X162134527Y-45763081D02*
X162029765Y-45715462D01*
X162029765Y-45715462D02*
X161820241Y-45715462D01*
X161820241Y-45715462D02*
X161715479Y-45763081D01*
X161715479Y-45763081D02*
X161663098Y-45810700D01*
X161663098Y-45810700D02*
X161610717Y-45905938D01*
X157082145Y-77834510D02*
X157448812Y-78834510D01*
X157448812Y-78834510D02*
X157815479Y-77834510D01*
X158182145Y-78834510D02*
X158182145Y-77834510D01*
X158705955Y-78834510D02*
X158705955Y-77834510D01*
X158705955Y-77834510D02*
X159334527Y-78834510D01*
X159334527Y-78834510D02*
X159334527Y-77834510D01*
X157315479Y-47882129D02*
X157210717Y-47834510D01*
X157210717Y-47834510D02*
X157053574Y-47834510D01*
X157053574Y-47834510D02*
X156896431Y-47882129D01*
X156896431Y-47882129D02*
X156791669Y-47977367D01*
X156791669Y-47977367D02*
X156739288Y-48072605D01*
X156739288Y-48072605D02*
X156686907Y-48263081D01*
X156686907Y-48263081D02*
X156686907Y-48405938D01*
X156686907Y-48405938D02*
X156739288Y-48596414D01*
X156739288Y-48596414D02*
X156791669Y-48691652D01*
X156791669Y-48691652D02*
X156896431Y-48786891D01*
X156896431Y-48786891D02*
X157053574Y-48834510D01*
X157053574Y-48834510D02*
X157158336Y-48834510D01*
X157158336Y-48834510D02*
X157315479Y-48786891D01*
X157315479Y-48786891D02*
X157367860Y-48739271D01*
X157367860Y-48739271D02*
X157367860Y-48405938D01*
X157367860Y-48405938D02*
X157158336Y-48405938D01*
X157839288Y-48834510D02*
X157839288Y-47834510D01*
X157839288Y-47834510D02*
X158258336Y-47834510D01*
X158258336Y-47834510D02*
X158363098Y-47882129D01*
X158363098Y-47882129D02*
X158415479Y-47929748D01*
X158415479Y-47929748D02*
X158467860Y-48024986D01*
X158467860Y-48024986D02*
X158467860Y-48167843D01*
X158467860Y-48167843D02*
X158415479Y-48263081D01*
X158415479Y-48263081D02*
X158363098Y-48310700D01*
X158363098Y-48310700D02*
X158258336Y-48358319D01*
X158258336Y-48358319D02*
X157839288Y-48358319D01*
X158939288Y-48834510D02*
X158939288Y-47834510D01*
X159672622Y-47834510D02*
X159882146Y-47834510D01*
X159882146Y-47834510D02*
X159986908Y-47882129D01*
X159986908Y-47882129D02*
X160091670Y-47977367D01*
X160091670Y-47977367D02*
X160144051Y-48167843D01*
X160144051Y-48167843D02*
X160144051Y-48501176D01*
X160144051Y-48501176D02*
X160091670Y-48691652D01*
X160091670Y-48691652D02*
X159986908Y-48786891D01*
X159986908Y-48786891D02*
X159882146Y-48834510D01*
X159882146Y-48834510D02*
X159672622Y-48834510D01*
X159672622Y-48834510D02*
X159567860Y-48786891D01*
X159567860Y-48786891D02*
X159463098Y-48691652D01*
X159463098Y-48691652D02*
X159410717Y-48501176D01*
X159410717Y-48501176D02*
X159410717Y-48167843D01*
X159410717Y-48167843D02*
X159463098Y-47977367D01*
X159463098Y-47977367D02*
X159567860Y-47882129D01*
X159567860Y-47882129D02*
X159672622Y-47834510D01*
X160510717Y-47834510D02*
X161191670Y-47834510D01*
X161191670Y-47834510D02*
X160825003Y-48215462D01*
X160825003Y-48215462D02*
X160982146Y-48215462D01*
X160982146Y-48215462D02*
X161086908Y-48263081D01*
X161086908Y-48263081D02*
X161139289Y-48310700D01*
X161139289Y-48310700D02*
X161191670Y-48405938D01*
X161191670Y-48405938D02*
X161191670Y-48644033D01*
X161191670Y-48644033D02*
X161139289Y-48739271D01*
X161139289Y-48739271D02*
X161086908Y-48786891D01*
X161086908Y-48786891D02*
X160982146Y-48834510D01*
X160982146Y-48834510D02*
X160667860Y-48834510D01*
X160667860Y-48834510D02*
X160563098Y-48786891D01*
X160563098Y-48786891D02*
X160510717Y-48739271D01*
X161715479Y-48834510D02*
X161925003Y-48834510D01*
X161925003Y-48834510D02*
X162029765Y-48786891D01*
X162029765Y-48786891D02*
X162082146Y-48739271D01*
X162082146Y-48739271D02*
X162186908Y-48596414D01*
X162186908Y-48596414D02*
X162239289Y-48405938D01*
X162239289Y-48405938D02*
X162239289Y-48024986D01*
X162239289Y-48024986D02*
X162186908Y-47929748D01*
X162186908Y-47929748D02*
X162134527Y-47882129D01*
X162134527Y-47882129D02*
X162029765Y-47834510D01*
X162029765Y-47834510D02*
X161820241Y-47834510D01*
X161820241Y-47834510D02*
X161715479Y-47882129D01*
X161715479Y-47882129D02*
X161663098Y-47929748D01*
X161663098Y-47929748D02*
X161610717Y-48024986D01*
X161610717Y-48024986D02*
X161610717Y-48263081D01*
X161610717Y-48263081D02*
X161663098Y-48358319D01*
X161663098Y-48358319D02*
X161715479Y-48405938D01*
X161715479Y-48405938D02*
X161820241Y-48453557D01*
X161820241Y-48453557D02*
X162029765Y-48453557D01*
X162029765Y-48453557D02*
X162134527Y-48405938D01*
X162134527Y-48405938D02*
X162186908Y-48358319D01*
X162186908Y-48358319D02*
X162239289Y-48263081D01*
X157315479Y-70382129D02*
X157210717Y-70334510D01*
X157210717Y-70334510D02*
X157053574Y-70334510D01*
X157053574Y-70334510D02*
X156896431Y-70382129D01*
X156896431Y-70382129D02*
X156791669Y-70477367D01*
X156791669Y-70477367D02*
X156739288Y-70572605D01*
X156739288Y-70572605D02*
X156686907Y-70763081D01*
X156686907Y-70763081D02*
X156686907Y-70905938D01*
X156686907Y-70905938D02*
X156739288Y-71096414D01*
X156739288Y-71096414D02*
X156791669Y-71191652D01*
X156791669Y-71191652D02*
X156896431Y-71286891D01*
X156896431Y-71286891D02*
X157053574Y-71334510D01*
X157053574Y-71334510D02*
X157158336Y-71334510D01*
X157158336Y-71334510D02*
X157315479Y-71286891D01*
X157315479Y-71286891D02*
X157367860Y-71239271D01*
X157367860Y-71239271D02*
X157367860Y-70905938D01*
X157367860Y-70905938D02*
X157158336Y-70905938D01*
X157839288Y-71334510D02*
X157839288Y-70334510D01*
X157839288Y-70334510D02*
X158258336Y-70334510D01*
X158258336Y-70334510D02*
X158363098Y-70382129D01*
X158363098Y-70382129D02*
X158415479Y-70429748D01*
X158415479Y-70429748D02*
X158467860Y-70524986D01*
X158467860Y-70524986D02*
X158467860Y-70667843D01*
X158467860Y-70667843D02*
X158415479Y-70763081D01*
X158415479Y-70763081D02*
X158363098Y-70810700D01*
X158363098Y-70810700D02*
X158258336Y-70858319D01*
X158258336Y-70858319D02*
X157839288Y-70858319D01*
X158939288Y-71334510D02*
X158939288Y-70334510D01*
X159672622Y-70334510D02*
X159882146Y-70334510D01*
X159882146Y-70334510D02*
X159986908Y-70382129D01*
X159986908Y-70382129D02*
X160091670Y-70477367D01*
X160091670Y-70477367D02*
X160144051Y-70667843D01*
X160144051Y-70667843D02*
X160144051Y-71001176D01*
X160144051Y-71001176D02*
X160091670Y-71191652D01*
X160091670Y-71191652D02*
X159986908Y-71286891D01*
X159986908Y-71286891D02*
X159882146Y-71334510D01*
X159882146Y-71334510D02*
X159672622Y-71334510D01*
X159672622Y-71334510D02*
X159567860Y-71286891D01*
X159567860Y-71286891D02*
X159463098Y-71191652D01*
X159463098Y-71191652D02*
X159410717Y-71001176D01*
X159410717Y-71001176D02*
X159410717Y-70667843D01*
X159410717Y-70667843D02*
X159463098Y-70477367D01*
X159463098Y-70477367D02*
X159567860Y-70382129D01*
X159567860Y-70382129D02*
X159672622Y-70334510D01*
X161191670Y-71334510D02*
X160563098Y-71334510D01*
X160877384Y-71334510D02*
X160877384Y-70334510D01*
X160877384Y-70334510D02*
X160772622Y-70477367D01*
X160772622Y-70477367D02*
X160667860Y-70572605D01*
X160667860Y-70572605D02*
X160563098Y-70620224D01*
X161610717Y-70429748D02*
X161663098Y-70382129D01*
X161663098Y-70382129D02*
X161767860Y-70334510D01*
X161767860Y-70334510D02*
X162029765Y-70334510D01*
X162029765Y-70334510D02*
X162134527Y-70382129D01*
X162134527Y-70382129D02*
X162186908Y-70429748D01*
X162186908Y-70429748D02*
X162239289Y-70524986D01*
X162239289Y-70524986D02*
X162239289Y-70620224D01*
X162239289Y-70620224D02*
X162186908Y-70763081D01*
X162186908Y-70763081D02*
X161558336Y-71334510D01*
X161558336Y-71334510D02*
X162239289Y-71334510D01*
X174815479Y-72882129D02*
X174710717Y-72834510D01*
X174710717Y-72834510D02*
X174553574Y-72834510D01*
X174553574Y-72834510D02*
X174396431Y-72882129D01*
X174396431Y-72882129D02*
X174291669Y-72977367D01*
X174291669Y-72977367D02*
X174239288Y-73072605D01*
X174239288Y-73072605D02*
X174186907Y-73263081D01*
X174186907Y-73263081D02*
X174186907Y-73405938D01*
X174186907Y-73405938D02*
X174239288Y-73596414D01*
X174239288Y-73596414D02*
X174291669Y-73691652D01*
X174291669Y-73691652D02*
X174396431Y-73786891D01*
X174396431Y-73786891D02*
X174553574Y-73834510D01*
X174553574Y-73834510D02*
X174658336Y-73834510D01*
X174658336Y-73834510D02*
X174815479Y-73786891D01*
X174815479Y-73786891D02*
X174867860Y-73739271D01*
X174867860Y-73739271D02*
X174867860Y-73405938D01*
X174867860Y-73405938D02*
X174658336Y-73405938D01*
X175339288Y-73834510D02*
X175339288Y-72834510D01*
X175339288Y-72834510D02*
X175758336Y-72834510D01*
X175758336Y-72834510D02*
X175863098Y-72882129D01*
X175863098Y-72882129D02*
X175915479Y-72929748D01*
X175915479Y-72929748D02*
X175967860Y-73024986D01*
X175967860Y-73024986D02*
X175967860Y-73167843D01*
X175967860Y-73167843D02*
X175915479Y-73263081D01*
X175915479Y-73263081D02*
X175863098Y-73310700D01*
X175863098Y-73310700D02*
X175758336Y-73358319D01*
X175758336Y-73358319D02*
X175339288Y-73358319D01*
X176439288Y-73834510D02*
X176439288Y-72834510D01*
X177172622Y-72834510D02*
X177382146Y-72834510D01*
X177382146Y-72834510D02*
X177486908Y-72882129D01*
X177486908Y-72882129D02*
X177591670Y-72977367D01*
X177591670Y-72977367D02*
X177644051Y-73167843D01*
X177644051Y-73167843D02*
X177644051Y-73501176D01*
X177644051Y-73501176D02*
X177591670Y-73691652D01*
X177591670Y-73691652D02*
X177486908Y-73786891D01*
X177486908Y-73786891D02*
X177382146Y-73834510D01*
X177382146Y-73834510D02*
X177172622Y-73834510D01*
X177172622Y-73834510D02*
X177067860Y-73786891D01*
X177067860Y-73786891D02*
X176963098Y-73691652D01*
X176963098Y-73691652D02*
X176910717Y-73501176D01*
X176910717Y-73501176D02*
X176910717Y-73167843D01*
X176910717Y-73167843D02*
X176963098Y-72977367D01*
X176963098Y-72977367D02*
X177067860Y-72882129D01*
X177067860Y-72882129D02*
X177172622Y-72834510D01*
X178691670Y-73834510D02*
X178063098Y-73834510D01*
X178377384Y-73834510D02*
X178377384Y-72834510D01*
X178377384Y-72834510D02*
X178272622Y-72977367D01*
X178272622Y-72977367D02*
X178167860Y-73072605D01*
X178167860Y-73072605D02*
X178063098Y-73120224D01*
X179686908Y-72834510D02*
X179163098Y-72834510D01*
X179163098Y-72834510D02*
X179110717Y-73310700D01*
X179110717Y-73310700D02*
X179163098Y-73263081D01*
X179163098Y-73263081D02*
X179267860Y-73215462D01*
X179267860Y-73215462D02*
X179529765Y-73215462D01*
X179529765Y-73215462D02*
X179634527Y-73263081D01*
X179634527Y-73263081D02*
X179686908Y-73310700D01*
X179686908Y-73310700D02*
X179739289Y-73405938D01*
X179739289Y-73405938D02*
X179739289Y-73644033D01*
X179739289Y-73644033D02*
X179686908Y-73739271D01*
X179686908Y-73739271D02*
X179634527Y-73786891D01*
X179634527Y-73786891D02*
X179529765Y-73834510D01*
X179529765Y-73834510D02*
X179267860Y-73834510D01*
X179267860Y-73834510D02*
X179163098Y-73786891D01*
X179163098Y-73786891D02*
X179110717Y-73739271D01*
X175815479Y-70382129D02*
X175710717Y-70334510D01*
X175710717Y-70334510D02*
X175553574Y-70334510D01*
X175553574Y-70334510D02*
X175396431Y-70382129D01*
X175396431Y-70382129D02*
X175291669Y-70477367D01*
X175291669Y-70477367D02*
X175239288Y-70572605D01*
X175239288Y-70572605D02*
X175186907Y-70763081D01*
X175186907Y-70763081D02*
X175186907Y-70905938D01*
X175186907Y-70905938D02*
X175239288Y-71096414D01*
X175239288Y-71096414D02*
X175291669Y-71191652D01*
X175291669Y-71191652D02*
X175396431Y-71286891D01*
X175396431Y-71286891D02*
X175553574Y-71334510D01*
X175553574Y-71334510D02*
X175658336Y-71334510D01*
X175658336Y-71334510D02*
X175815479Y-71286891D01*
X175815479Y-71286891D02*
X175867860Y-71239271D01*
X175867860Y-71239271D02*
X175867860Y-70905938D01*
X175867860Y-70905938D02*
X175658336Y-70905938D01*
X176339288Y-71334510D02*
X176339288Y-70334510D01*
X176339288Y-70334510D02*
X176758336Y-70334510D01*
X176758336Y-70334510D02*
X176863098Y-70382129D01*
X176863098Y-70382129D02*
X176915479Y-70429748D01*
X176915479Y-70429748D02*
X176967860Y-70524986D01*
X176967860Y-70524986D02*
X176967860Y-70667843D01*
X176967860Y-70667843D02*
X176915479Y-70763081D01*
X176915479Y-70763081D02*
X176863098Y-70810700D01*
X176863098Y-70810700D02*
X176758336Y-70858319D01*
X176758336Y-70858319D02*
X176339288Y-70858319D01*
X177439288Y-71334510D02*
X177439288Y-70334510D01*
X178172622Y-70334510D02*
X178382146Y-70334510D01*
X178382146Y-70334510D02*
X178486908Y-70382129D01*
X178486908Y-70382129D02*
X178591670Y-70477367D01*
X178591670Y-70477367D02*
X178644051Y-70667843D01*
X178644051Y-70667843D02*
X178644051Y-71001176D01*
X178644051Y-71001176D02*
X178591670Y-71191652D01*
X178591670Y-71191652D02*
X178486908Y-71286891D01*
X178486908Y-71286891D02*
X178382146Y-71334510D01*
X178382146Y-71334510D02*
X178172622Y-71334510D01*
X178172622Y-71334510D02*
X178067860Y-71286891D01*
X178067860Y-71286891D02*
X177963098Y-71191652D01*
X177963098Y-71191652D02*
X177910717Y-71001176D01*
X177910717Y-71001176D02*
X177910717Y-70667843D01*
X177910717Y-70667843D02*
X177963098Y-70477367D01*
X177963098Y-70477367D02*
X178067860Y-70382129D01*
X178067860Y-70382129D02*
X178172622Y-70334510D01*
X179063098Y-70429748D02*
X179115479Y-70382129D01*
X179115479Y-70382129D02*
X179220241Y-70334510D01*
X179220241Y-70334510D02*
X179482146Y-70334510D01*
X179482146Y-70334510D02*
X179586908Y-70382129D01*
X179586908Y-70382129D02*
X179639289Y-70429748D01*
X179639289Y-70429748D02*
X179691670Y-70524986D01*
X179691670Y-70524986D02*
X179691670Y-70620224D01*
X179691670Y-70620224D02*
X179639289Y-70763081D01*
X179639289Y-70763081D02*
X179010717Y-71334510D01*
X179010717Y-71334510D02*
X179691670Y-71334510D01*
X157315479Y-50382129D02*
X157210717Y-50334510D01*
X157210717Y-50334510D02*
X157053574Y-50334510D01*
X157053574Y-50334510D02*
X156896431Y-50382129D01*
X156896431Y-50382129D02*
X156791669Y-50477367D01*
X156791669Y-50477367D02*
X156739288Y-50572605D01*
X156739288Y-50572605D02*
X156686907Y-50763081D01*
X156686907Y-50763081D02*
X156686907Y-50905938D01*
X156686907Y-50905938D02*
X156739288Y-51096414D01*
X156739288Y-51096414D02*
X156791669Y-51191652D01*
X156791669Y-51191652D02*
X156896431Y-51286891D01*
X156896431Y-51286891D02*
X157053574Y-51334510D01*
X157053574Y-51334510D02*
X157158336Y-51334510D01*
X157158336Y-51334510D02*
X157315479Y-51286891D01*
X157315479Y-51286891D02*
X157367860Y-51239271D01*
X157367860Y-51239271D02*
X157367860Y-50905938D01*
X157367860Y-50905938D02*
X157158336Y-50905938D01*
X157839288Y-51334510D02*
X157839288Y-50334510D01*
X157839288Y-50334510D02*
X158258336Y-50334510D01*
X158258336Y-50334510D02*
X158363098Y-50382129D01*
X158363098Y-50382129D02*
X158415479Y-50429748D01*
X158415479Y-50429748D02*
X158467860Y-50524986D01*
X158467860Y-50524986D02*
X158467860Y-50667843D01*
X158467860Y-50667843D02*
X158415479Y-50763081D01*
X158415479Y-50763081D02*
X158363098Y-50810700D01*
X158363098Y-50810700D02*
X158258336Y-50858319D01*
X158258336Y-50858319D02*
X157839288Y-50858319D01*
X158939288Y-51334510D02*
X158939288Y-50334510D01*
X159672622Y-50334510D02*
X159882146Y-50334510D01*
X159882146Y-50334510D02*
X159986908Y-50382129D01*
X159986908Y-50382129D02*
X160091670Y-50477367D01*
X160091670Y-50477367D02*
X160144051Y-50667843D01*
X160144051Y-50667843D02*
X160144051Y-51001176D01*
X160144051Y-51001176D02*
X160091670Y-51191652D01*
X160091670Y-51191652D02*
X159986908Y-51286891D01*
X159986908Y-51286891D02*
X159882146Y-51334510D01*
X159882146Y-51334510D02*
X159672622Y-51334510D01*
X159672622Y-51334510D02*
X159567860Y-51286891D01*
X159567860Y-51286891D02*
X159463098Y-51191652D01*
X159463098Y-51191652D02*
X159410717Y-51001176D01*
X159410717Y-51001176D02*
X159410717Y-50667843D01*
X159410717Y-50667843D02*
X159463098Y-50477367D01*
X159463098Y-50477367D02*
X159567860Y-50382129D01*
X159567860Y-50382129D02*
X159672622Y-50334510D01*
X160510717Y-50334510D02*
X161191670Y-50334510D01*
X161191670Y-50334510D02*
X160825003Y-50715462D01*
X160825003Y-50715462D02*
X160982146Y-50715462D01*
X160982146Y-50715462D02*
X161086908Y-50763081D01*
X161086908Y-50763081D02*
X161139289Y-50810700D01*
X161139289Y-50810700D02*
X161191670Y-50905938D01*
X161191670Y-50905938D02*
X161191670Y-51144033D01*
X161191670Y-51144033D02*
X161139289Y-51239271D01*
X161139289Y-51239271D02*
X161086908Y-51286891D01*
X161086908Y-51286891D02*
X160982146Y-51334510D01*
X160982146Y-51334510D02*
X160667860Y-51334510D01*
X160667860Y-51334510D02*
X160563098Y-51286891D01*
X160563098Y-51286891D02*
X160510717Y-51239271D01*
X162134527Y-50667843D02*
X162134527Y-51334510D01*
X161872622Y-50286891D02*
X161610717Y-51001176D01*
X161610717Y-51001176D02*
X162291670Y-51001176D01*
X175815479Y-60382129D02*
X175710717Y-60334510D01*
X175710717Y-60334510D02*
X175553574Y-60334510D01*
X175553574Y-60334510D02*
X175396431Y-60382129D01*
X175396431Y-60382129D02*
X175291669Y-60477367D01*
X175291669Y-60477367D02*
X175239288Y-60572605D01*
X175239288Y-60572605D02*
X175186907Y-60763081D01*
X175186907Y-60763081D02*
X175186907Y-60905938D01*
X175186907Y-60905938D02*
X175239288Y-61096414D01*
X175239288Y-61096414D02*
X175291669Y-61191652D01*
X175291669Y-61191652D02*
X175396431Y-61286891D01*
X175396431Y-61286891D02*
X175553574Y-61334510D01*
X175553574Y-61334510D02*
X175658336Y-61334510D01*
X175658336Y-61334510D02*
X175815479Y-61286891D01*
X175815479Y-61286891D02*
X175867860Y-61239271D01*
X175867860Y-61239271D02*
X175867860Y-60905938D01*
X175867860Y-60905938D02*
X175658336Y-60905938D01*
X176339288Y-61334510D02*
X176339288Y-60334510D01*
X176339288Y-60334510D02*
X176758336Y-60334510D01*
X176758336Y-60334510D02*
X176863098Y-60382129D01*
X176863098Y-60382129D02*
X176915479Y-60429748D01*
X176915479Y-60429748D02*
X176967860Y-60524986D01*
X176967860Y-60524986D02*
X176967860Y-60667843D01*
X176967860Y-60667843D02*
X176915479Y-60763081D01*
X176915479Y-60763081D02*
X176863098Y-60810700D01*
X176863098Y-60810700D02*
X176758336Y-60858319D01*
X176758336Y-60858319D02*
X176339288Y-60858319D01*
X177439288Y-61334510D02*
X177439288Y-60334510D01*
X178172622Y-60334510D02*
X178382146Y-60334510D01*
X178382146Y-60334510D02*
X178486908Y-60382129D01*
X178486908Y-60382129D02*
X178591670Y-60477367D01*
X178591670Y-60477367D02*
X178644051Y-60667843D01*
X178644051Y-60667843D02*
X178644051Y-61001176D01*
X178644051Y-61001176D02*
X178591670Y-61191652D01*
X178591670Y-61191652D02*
X178486908Y-61286891D01*
X178486908Y-61286891D02*
X178382146Y-61334510D01*
X178382146Y-61334510D02*
X178172622Y-61334510D01*
X178172622Y-61334510D02*
X178067860Y-61286891D01*
X178067860Y-61286891D02*
X177963098Y-61191652D01*
X177963098Y-61191652D02*
X177910717Y-61001176D01*
X177910717Y-61001176D02*
X177910717Y-60667843D01*
X177910717Y-60667843D02*
X177963098Y-60477367D01*
X177963098Y-60477367D02*
X178067860Y-60382129D01*
X178067860Y-60382129D02*
X178172622Y-60334510D01*
X179639289Y-60334510D02*
X179115479Y-60334510D01*
X179115479Y-60334510D02*
X179063098Y-60810700D01*
X179063098Y-60810700D02*
X179115479Y-60763081D01*
X179115479Y-60763081D02*
X179220241Y-60715462D01*
X179220241Y-60715462D02*
X179482146Y-60715462D01*
X179482146Y-60715462D02*
X179586908Y-60763081D01*
X179586908Y-60763081D02*
X179639289Y-60810700D01*
X179639289Y-60810700D02*
X179691670Y-60905938D01*
X179691670Y-60905938D02*
X179691670Y-61144033D01*
X179691670Y-61144033D02*
X179639289Y-61239271D01*
X179639289Y-61239271D02*
X179586908Y-61286891D01*
X179586908Y-61286891D02*
X179482146Y-61334510D01*
X179482146Y-61334510D02*
X179220241Y-61334510D01*
X179220241Y-61334510D02*
X179115479Y-61286891D01*
X179115479Y-61286891D02*
X179063098Y-61239271D01*
X157315479Y-60382129D02*
X157210717Y-60334510D01*
X157210717Y-60334510D02*
X157053574Y-60334510D01*
X157053574Y-60334510D02*
X156896431Y-60382129D01*
X156896431Y-60382129D02*
X156791669Y-60477367D01*
X156791669Y-60477367D02*
X156739288Y-60572605D01*
X156739288Y-60572605D02*
X156686907Y-60763081D01*
X156686907Y-60763081D02*
X156686907Y-60905938D01*
X156686907Y-60905938D02*
X156739288Y-61096414D01*
X156739288Y-61096414D02*
X156791669Y-61191652D01*
X156791669Y-61191652D02*
X156896431Y-61286891D01*
X156896431Y-61286891D02*
X157053574Y-61334510D01*
X157053574Y-61334510D02*
X157158336Y-61334510D01*
X157158336Y-61334510D02*
X157315479Y-61286891D01*
X157315479Y-61286891D02*
X157367860Y-61239271D01*
X157367860Y-61239271D02*
X157367860Y-60905938D01*
X157367860Y-60905938D02*
X157158336Y-60905938D01*
X157839288Y-61334510D02*
X157839288Y-60334510D01*
X157839288Y-60334510D02*
X158258336Y-60334510D01*
X158258336Y-60334510D02*
X158363098Y-60382129D01*
X158363098Y-60382129D02*
X158415479Y-60429748D01*
X158415479Y-60429748D02*
X158467860Y-60524986D01*
X158467860Y-60524986D02*
X158467860Y-60667843D01*
X158467860Y-60667843D02*
X158415479Y-60763081D01*
X158415479Y-60763081D02*
X158363098Y-60810700D01*
X158363098Y-60810700D02*
X158258336Y-60858319D01*
X158258336Y-60858319D02*
X157839288Y-60858319D01*
X158939288Y-61334510D02*
X158939288Y-60334510D01*
X159672622Y-60334510D02*
X159882146Y-60334510D01*
X159882146Y-60334510D02*
X159986908Y-60382129D01*
X159986908Y-60382129D02*
X160091670Y-60477367D01*
X160091670Y-60477367D02*
X160144051Y-60667843D01*
X160144051Y-60667843D02*
X160144051Y-61001176D01*
X160144051Y-61001176D02*
X160091670Y-61191652D01*
X160091670Y-61191652D02*
X159986908Y-61286891D01*
X159986908Y-61286891D02*
X159882146Y-61334510D01*
X159882146Y-61334510D02*
X159672622Y-61334510D01*
X159672622Y-61334510D02*
X159567860Y-61286891D01*
X159567860Y-61286891D02*
X159463098Y-61191652D01*
X159463098Y-61191652D02*
X159410717Y-61001176D01*
X159410717Y-61001176D02*
X159410717Y-60667843D01*
X159410717Y-60667843D02*
X159463098Y-60477367D01*
X159463098Y-60477367D02*
X159567860Y-60382129D01*
X159567860Y-60382129D02*
X159672622Y-60334510D01*
X160563098Y-60429748D02*
X160615479Y-60382129D01*
X160615479Y-60382129D02*
X160720241Y-60334510D01*
X160720241Y-60334510D02*
X160982146Y-60334510D01*
X160982146Y-60334510D02*
X161086908Y-60382129D01*
X161086908Y-60382129D02*
X161139289Y-60429748D01*
X161139289Y-60429748D02*
X161191670Y-60524986D01*
X161191670Y-60524986D02*
X161191670Y-60620224D01*
X161191670Y-60620224D02*
X161139289Y-60763081D01*
X161139289Y-60763081D02*
X160510717Y-61334510D01*
X160510717Y-61334510D02*
X161191670Y-61334510D01*
X162186908Y-60334510D02*
X161663098Y-60334510D01*
X161663098Y-60334510D02*
X161610717Y-60810700D01*
X161610717Y-60810700D02*
X161663098Y-60763081D01*
X161663098Y-60763081D02*
X161767860Y-60715462D01*
X161767860Y-60715462D02*
X162029765Y-60715462D01*
X162029765Y-60715462D02*
X162134527Y-60763081D01*
X162134527Y-60763081D02*
X162186908Y-60810700D01*
X162186908Y-60810700D02*
X162239289Y-60905938D01*
X162239289Y-60905938D02*
X162239289Y-61144033D01*
X162239289Y-61144033D02*
X162186908Y-61239271D01*
X162186908Y-61239271D02*
X162134527Y-61286891D01*
X162134527Y-61286891D02*
X162029765Y-61334510D01*
X162029765Y-61334510D02*
X161767860Y-61334510D01*
X161767860Y-61334510D02*
X161663098Y-61286891D01*
X161663098Y-61286891D02*
X161610717Y-61239271D01*
%TO.C,U2*%
D12*
X155800000Y-132120000D02*
X181200000Y-132120000D01*
X181200000Y-116880000D01*
X155800000Y-116880000D01*
X155800000Y-132120000D01*
%TO.C,RV1*%
X133885590Y-46813478D02*
X150105590Y-46813478D01*
X133885590Y-54533478D02*
X133885590Y-46813478D01*
X138385590Y-41813478D02*
X145605590Y-41813478D01*
X138385590Y-46813478D02*
X138385590Y-41813478D01*
X139885590Y-31813478D02*
X144105590Y-31813478D01*
X139885590Y-41813478D02*
X139885590Y-31813478D01*
X144105590Y-31813478D02*
X144105590Y-41813478D01*
X144105590Y-41813478D02*
X139885590Y-41813478D01*
X145605590Y-41813478D02*
X145605590Y-46813478D01*
X145605590Y-46813478D02*
X138385590Y-46813478D01*
X150105590Y-46813478D02*
X150105590Y-54533478D01*
X150105590Y-54533478D02*
X133885590Y-54533478D01*
%TO.C,J2*%
X118590000Y-78070000D02*
X118590000Y-80730000D01*
X123730000Y-78070000D02*
X118590000Y-78070000D01*
X123730000Y-78070000D02*
X123730000Y-80730000D01*
X123730000Y-80730000D02*
X118590000Y-80730000D01*
X126330000Y-79400000D02*
X126330000Y-80730000D01*
X126330000Y-80730000D02*
X125000000Y-80730000D01*
%TO.C,J1*%
X121170000Y-50730000D02*
X121170000Y-37970000D01*
X121170000Y-53330000D02*
X121170000Y-52000000D01*
X122500000Y-53330000D02*
X121170000Y-53330000D01*
X123830000Y-37970000D02*
X121170000Y-37970000D01*
X123830000Y-50730000D02*
X121170000Y-50730000D01*
X123830000Y-50730000D02*
X123830000Y-37970000D01*
%TO.C,J4*%
X134700000Y-118950000D02*
X134700000Y-117900000D01*
X134900000Y-118100000D02*
X137500000Y-118100000D01*
X134900000Y-132800000D02*
X134900000Y-118100000D01*
X135750000Y-117900000D02*
X134700000Y-117900000D01*
X141400000Y-118100000D02*
X144100000Y-118100000D01*
X144100000Y-118100000D02*
X144100000Y-120000000D01*
X144100000Y-124000000D02*
X144100000Y-132800000D01*
X144100000Y-132800000D02*
X134900000Y-132800000D01*
%TO.C,J3*%
X118585420Y-103669084D02*
X118585420Y-106329084D01*
X123725420Y-103669084D02*
X118585420Y-103669084D01*
X123725420Y-103669084D02*
X123725420Y-106329084D01*
X123725420Y-106329084D02*
X118585420Y-106329084D01*
X126325420Y-104999084D02*
X126325420Y-106329084D01*
X126325420Y-106329084D02*
X124995420Y-106329084D01*
%TO.C,U3*%
D13*
X154081595Y-36062091D02*
X182381595Y-36062091D01*
X182381595Y-88062091D01*
X154081595Y-88062091D01*
X154081595Y-36062091D01*
D11*
X164601595Y-84835001D02*
X172221595Y-84835001D01*
X172221595Y-89089180D01*
X164601595Y-89089180D01*
X164601595Y-84835001D01*
%TD*%
M02*
